if (_typeface_js && _typeface_js.loadFace) _typeface_js.loadFace({"glyphs":{"\u0000":{"x_min":0,"x_max":0,"ha":0},"¦":{"x_min":166.171875,"x_max":370.3125,"ha":549,"o":"m 254 668 l 191 659 q 166 685 166 659 q 175 708 166 694 q 229 786 224 758 q 233 1088 229 786 q 205 1156 233 1129 q 185 1175 194 1166 q 177 1199 177 1184 q 200 1220 177 1220 q 241 1215 224 1220 q 273 1209 257 1209 l 339 1214 q 361 1207 353 1214 q 370 1192 370 1201 q 341 1156 370 1174 q 302 1110 317 1142 q 299 1099 299 1103 l 300 792 q 333 732 301 764 q 356 710 345 720 q 366 685 366 699 q 335 662 366 662 l 254 668 m 254 -225 l 191 -233 q 166 -208 166 -233 q 175 -185 166 -198 q 229 -107 224 -134 l 233 195 q 205 263 233 236 q 185 282 194 273 q 177 305 177 291 q 200 327 177 327 q 241 322 224 327 q 273 316 257 316 l 339 320 q 361 314 353 320 q 370 299 370 307 q 341 263 370 280 q 302 217 317 249 q 299 206 299 210 l 300 -100 q 333 -160 301 -128 q 356 -183 345 -172 q 366 -208 366 -193 q 335 -230 366 -230 l 254 -225 "},"Ő":{"x_min":71.21875,"x_max":907.703125,"ha":984,"o":"m 786 120 q 655 8 731 46 q 510 -29 579 -29 q 389 -15 441 -29 q 291 26 338 -2 q 204 99 244 54 q 134 207 164 144 q 71 536 71 343 q 190 919 71 771 q 497 1066 309 1066 q 782 956 675 1066 q 907 551 907 826 q 786 120 907 280 m 489 35 q 570 45 531 35 q 647 78 609 54 q 719 139 685 101 q 779 234 753 177 q 836 550 836 360 q 596 990 836 925 q 502 1005 537 1005 q 428 997 467 1005 q 349 969 389 988 q 271 916 309 949 q 204 834 233 883 q 139 563 139 725 q 324 83 139 200 q 489 35 397 37 m 509 1251 l 442 1260 q 423 1256 431 1260 q 394 1239 415 1252 q 354 1214 374 1226 q 300 1173 308 1181 q 262 1154 281 1154 q 235 1163 244 1154 q 227 1182 227 1171 q 253 1221 227 1206 q 383 1317 279 1236 q 397 1360 390 1321 q 439 1428 411 1428 q 462 1416 455 1428 q 477 1385 470 1403 q 492 1345 483 1367 q 514 1311 501 1324 q 540 1272 540 1283 q 509 1251 540 1251 m 877 1230 l 810 1239 q 791 1236 799 1239 q 762 1219 782 1232 q 722 1193 742 1206 q 667 1152 675 1161 q 630 1133 648 1133 q 603 1142 612 1133 q 595 1162 595 1151 q 621 1201 595 1186 q 751 1296 647 1216 q 765 1340 757 1300 q 807 1407 779 1407 q 830 1395 822 1407 q 844 1365 837 1383 q 860 1325 851 1346 q 881 1290 869 1304 q 907 1252 907 1263 q 877 1230 907 1230 "},"Ž":{"x_min":101.46875,"x_max":1015.015625,"ha":1080,"o":"m 256 -7 q 181 -13 205 -6 q 147 -21 157 -21 q 129 -18 137 -21 q 115 -12 122 -16 q 106 27 92 2 q 128 52 110 35 q 189 116 146 68 q 288 227 233 164 q 405 366 343 291 q 531 519 468 441 q 654 672 594 596 q 763 811 714 747 q 898 997 874 955 q 345 992 412 997 q 265 984 278 988 q 237 970 252 981 q 210 945 223 959 q 172 902 193 929 q 151 890 162 890 q 136 906 136 890 l 136 948 q 126 1097 136 1063 q 124 1110 124 1104 q 139 1130 124 1130 q 163 1118 148 1130 q 196 1091 178 1106 q 269 1051 244 1053 q 433 1048 313 1048 l 943 1051 q 986 999 1016 1051 q 625 532 946 934 q 202 46 271 90 l 641 52 q 817 61 775 55 q 881 79 859 67 q 919 105 902 91 l 969 153 q 999 168 983 168 q 1010 121 1023 168 q 996 -16 996 64 l 997 -54 q 978 -77 997 -77 q 933 -53 961 -77 q 892 -17 906 -29 q 864 -5 877 -6 l 828 -4 q 256 -7 307 -8 m 840 1247 l 788 1251 q 750 1239 770 1251 q 715 1218 731 1228 q 684 1199 698 1209 q 617 1142 659 1181 q 568 1138 596 1123 q 551 1155 556 1144 l 501 1192 l 469 1218 q 381 1266 406 1266 l 317 1258 q 286 1279 286 1258 q 307 1309 286 1298 q 342 1337 328 1321 q 369 1370 356 1354 q 392 1398 381 1387 q 413 1410 403 1410 q 430 1402 423 1410 q 438 1380 438 1395 l 435 1349 q 456 1297 435 1313 q 488 1271 476 1281 q 513 1252 501 1261 q 587 1205 543 1231 q 720 1292 674 1259 q 728 1330 728 1304 q 731 1371 729 1355 q 741 1396 733 1388 q 761 1404 749 1404 q 781 1395 773 1404 q 798 1371 789 1386 q 841 1311 823 1325 q 862 1254 887 1273 q 840 1247 853 1247 "},"Á":{"x_min":55.609375,"x_max":1206.65625,"ha":1287,"o":"m 271 -51 q 244 -76 271 -76 q 209 -63 224 -76 q 168 -38 193 -49 q 118 -17 143 -27 q 55 21 55 7 q 77 49 55 35 q 115 68 99 64 q 147 79 132 73 q 207 142 179 92 q 377 499 256 235 l 247 499 q 210 496 223 499 q 180 480 197 494 q 147 452 162 467 q 119 425 132 437 q 94 413 106 413 q 75 461 64 413 q 84 546 84 498 l 81 602 q 107 653 81 653 q 137 632 120 653 q 225 558 194 558 l 403 554 q 621 1051 604 993 q 638 1144 638 1110 q 649 1158 638 1153 q 670 1163 659 1163 q 702 1136 694 1163 q 732 1047 711 1109 q 779 906 752 986 q 902 552 857 676 q 1051 559 1031 549 q 1085 581 1070 569 q 1125 621 1112 602 q 1146 643 1138 640 q 1162 646 1155 646 q 1184 600 1197 646 q 1169 517 1170 556 q 1168 452 1169 478 q 1163 410 1167 425 q 1142 394 1159 394 q 1128 399 1137 394 q 1117 413 1120 404 l 1098 453 q 1039 499 1079 492 l 921 499 q 1096 81 1056 118 q 1123 64 1108 69 q 1149 54 1138 59 q 1170 46 1159 50 q 1189 40 1181 43 q 1197 5 1219 27 q 1143 -18 1188 -2 q 1082 -42 1098 -35 l 1005 -78 q 963 -65 963 -94 q 968 -33 963 -44 q 979 -8 973 -23 q 991 23 985 6 q 1003 98 1009 78 q 857 499 978 159 l 446 499 q 237 60 335 260 q 241 26 231 46 q 271 -51 271 -30 m 471 554 q 838 551 653 551 l 745 815 q 673 1016 680 998 q 471 554 617 869 m 818 1257 l 751 1266 q 732 1262 740 1266 q 703 1246 723 1258 q 664 1220 683 1233 q 608 1179 616 1187 q 571 1160 589 1160 q 544 1169 552 1160 q 536 1189 536 1178 q 562 1227 536 1212 q 692 1323 588 1242 q 706 1366 698 1327 q 748 1434 720 1434 q 771 1422 763 1434 q 785 1391 778 1410 q 801 1352 792 1373 q 822 1317 810 1330 q 848 1278 848 1290 q 818 1257 848 1257 "},"Î":{"x_min":-57.78125,"x_max":546.515625,"ha":472,"o":"m 204 0 l 155 -6 q 118 22 118 -6 q 127 44 119 33 q 145 65 136 54 q 165 89 153 76 q 185 112 176 101 q 205 150 205 139 l 208 622 q 204 912 208 784 q 158 976 204 933 q 119 1033 119 1013 q 177 1047 119 1062 q 272 1044 226 1035 q 342 1052 319 1052 q 364 1033 364 1052 q 341 1001 364 1019 q 303 968 318 983 q 281 941 288 953 q 270 898 270 923 l 273 567 l 266 180 l 266 160 q 267 134 266 150 q 285 96 268 118 q 316 56 303 74 q 337 16 337 28 q 300 -5 337 -5 l 204 0 m 92 1140 l 94 1124 q 74 1085 94 1095 q 1 1151 50 1071 q -23 1173 -3 1161 q -50 1192 -43 1184 q -57 1211 -57 1199 q -17 1235 -57 1235 l 37 1231 q 128 1275 73 1231 q 222 1345 158 1300 q 262 1346 239 1366 q 302 1313 284 1327 q 338 1288 320 1300 q 425 1243 360 1275 q 478 1233 448 1234 q 519 1229 507 1232 q 546 1206 546 1222 q 531 1178 546 1189 q 490 1142 499 1154 l 459 1098 q 433 1075 444 1075 q 406 1108 409 1075 q 393 1167 400 1157 q 382 1185 387 1178 q 312 1226 347 1206 q 240 1269 276 1246 l 169 1226 q 114 1189 161 1220 q 92 1140 92 1170 "},"\u0007":{"x_min":0,"x_max":0,"ha":0},"e":{"x_min":82.75,"x_max":876.9375,"ha":937,"o":"m 876 111 q 836 86 876 73 q 758 102 771 106 q 721 87 744 97 q 666 65 697 76 q 419 44 555 27 q 238 104 322 55 q 103 270 143 159 q 82 406 82 328 q 103 545 82 484 q 158 654 124 606 q 238 737 193 702 q 332 794 283 771 q 630 828 470 860 q 802 720 748 804 q 830 622 830 677 q 818 534 830 568 q 788 475 807 500 q 745 433 769 450 q 695 406 720 417 q 617 387 649 387 q 502 399 541 387 q 436 414 463 411 q 389 417 408 416 q 360 422 370 418 q 350 437 350 427 q 370 473 350 456 q 444 558 417 514 q 501 581 475 606 q 512 539 509 575 q 542 458 517 470 q 623 448 560 448 q 709 492 664 448 q 758 596 758 540 q 511 778 758 778 q 260 667 368 778 q 153 413 153 556 q 244 181 153 264 q 495 101 334 101 q 710 154 640 101 q 752 203 739 175 q 773 246 765 231 q 788 272 781 262 q 806 282 796 282 q 821 277 815 282 q 829 267 826 273 q 834 238 830 264 q 856 156 845 177 q 876 111 876 121 "},"»":{"x_min":182.09375,"x_max":1102.4375,"ha":1274,"o":"m 374 88 q 366 168 374 88 q 370 191 366 183 q 397 226 375 200 q 454 295 418 252 q 644 518 597 461 q 653 535 653 522 q 634 576 653 560 q 555 668 594 626 q 484 747 517 710 q 393 888 393 849 l 398 959 q 374 990 398 990 q 350 979 362 990 q 324 952 339 968 q 254 889 281 903 q 213 850 213 866 q 229 829 213 834 q 266 823 244 825 q 313 817 288 821 q 349 805 338 813 q 377 777 360 796 q 422 725 393 758 q 580 541 537 590 q 319 244 397 322 q 271 228 309 231 q 207 220 232 224 q 182 196 182 216 q 196 172 182 183 q 231 149 211 161 q 303 94 291 111 q 354 55 329 55 q 374 88 378 55 m 823 88 q 815 168 823 88 q 819 191 815 183 q 846 226 824 200 q 903 295 867 252 q 1093 518 1046 461 q 1102 535 1102 522 q 1083 576 1102 560 q 1004 668 1043 626 q 933 747 966 710 q 842 888 842 849 l 847 959 q 823 990 847 990 q 799 979 811 990 q 773 952 788 968 q 703 889 730 903 q 662 850 662 866 q 678 829 662 834 q 715 823 693 825 q 762 817 737 821 q 798 805 787 813 q 826 777 809 796 q 871 725 842 758 q 1029 541 986 590 q 768 244 846 322 q 720 228 758 231 q 656 220 681 224 q 631 196 631 216 q 645 172 631 183 q 680 149 660 161 q 752 94 740 111 q 803 55 778 55 q 823 88 827 55 "},"∆":{"x_min":23.734375,"x_max":1237.078125,"ha":1251,"o":"m 1039 32 l 227 32 q 215 36 216 32 q 212 40 214 40 q 177 -46 189 18 q 166 -85 172 -69 q 147 -101 160 -101 q 114 -67 127 -101 q 72 13 92 -10 q 44 48 52 37 q 23 96 23 80 q 59 113 23 124 q 145 94 121 96 l 188 180 q 617 1096 595 994 q 532 1181 580 1136 q 533 1214 516 1197 q 556 1222 541 1222 l 579 1221 l 763 1235 q 792 1197 822 1235 q 745 1141 773 1171 q 701 1093 716 1111 q 1084 120 916 501 q 1129 93 1109 96 l 1193 86 q 1212 84 1204 84 q 1228 78 1220 84 q 1237 64 1237 72 q 1233 50 1237 56 q 1223 38 1228 44 l 1201 21 q 1134 -47 1167 -6 q 1088 -101 1101 -88 q 1063 -114 1075 -114 q 1047 -73 1039 -114 q 1039 32 1070 28 m 232 96 q 1014 95 857 88 l 1015 95 l 836 562 l 735 822 q 658 1015 673 980 q 232 96 563 769 "},"ò":{"x_min":99.234375,"x_max":763.890625,"ha":863,"o":"m 528 92 q 459 78 489 81 q 414 75 428 75 q 370 79 400 75 q 305 95 340 83 q 233 129 270 107 q 167 189 196 152 q 99 408 99 273 q 184 636 99 537 q 356 744 262 729 q 497 750 416 763 q 640 690 574 738 q 747 526 715 636 q 763 393 763 468 q 741 266 763 318 q 684 179 719 214 q 608 123 649 144 q 528 92 567 103 m 323 158 q 375 142 350 147 q 414 138 401 138 q 452 141 428 138 q 508 152 477 143 q 572 178 539 161 q 634 223 606 194 q 698 394 698 288 q 542 671 698 610 q 300 651 424 717 q 270 636 283 642 q 192 532 222 603 q 167 411 167 471 q 181 309 167 351 q 217 238 195 267 q 267 188 239 208 q 323 158 295 169 m 280 975 q 249 996 249 975 q 268 1028 249 1009 q 296 1068 287 1046 q 312 1108 304 1089 q 326 1139 319 1126 q 350 1152 334 1152 q 373 1137 365 1152 q 385 1103 380 1122 q 393 1065 389 1084 q 405 1042 397 1047 q 429 1024 412 1036 q 464 996 445 1011 q 532 948 513 958 q 562 913 562 930 q 532 878 562 878 q 484 903 509 878 q 423 945 473 914 q 366 980 374 977 q 347 984 358 984 l 280 975 "},"^":{"x_min":50.1875,"x_max":837.609375,"ha":872,"o":"m 88 47 q 50 71 50 47 q 62 99 50 91 q 86 113 74 107 q 110 128 99 119 q 135 176 122 137 q 172 290 148 215 q 223 451 196 365 q 278 627 250 536 q 333 803 306 717 q 426 1093 392 990 q 456 1114 433 1114 q 508 1087 501 1114 l 666 468 q 742 191 710 297 q 765 154 749 167 q 797 131 781 141 q 825 111 813 122 q 837 83 837 101 q 797 61 837 61 l 759 61 l 644 54 q 609 73 609 54 q 633 109 609 88 q 668 141 657 130 q 678 167 682 155 q 540 707 604 463 q 463 1000 476 952 l 204 151 q 223 123 208 135 q 257 92 238 110 q 264 42 293 59 q 225 35 246 31 q 189 42 204 40 q 127 49 146 49 l 88 47 "},"«":{"x_min":170.90625,"x_max":1117.28125,"ha":1300,"o":"m 924 88 q 932 168 924 88 q 928 191 932 183 q 902 226 923 200 q 844 295 880 252 q 654 518 702 461 q 645 535 645 522 q 664 576 645 560 q 743 668 704 626 q 814 747 782 710 q 906 888 906 849 l 900 959 q 925 990 900 990 q 948 979 936 990 q 974 952 959 968 q 1044 889 1018 903 q 1085 850 1085 866 q 1070 829 1085 834 q 1032 823 1054 825 q 986 817 1010 821 q 950 805 961 813 q 922 777 938 796 q 877 725 905 758 q 718 541 761 590 q 979 244 901 322 q 1028 228 989 231 q 1091 220 1066 224 q 1117 196 1117 216 q 1102 172 1117 183 q 1067 149 1088 161 q 995 94 1008 111 q 945 55 969 55 q 924 88 921 55 m 449 88 q 457 168 449 88 q 453 191 457 183 q 427 226 448 200 q 369 295 405 252 q 179 518 227 461 q 170 535 170 522 q 189 576 170 560 q 268 668 229 626 q 339 747 307 710 q 431 888 431 849 l 425 959 q 450 990 425 990 q 473 979 461 990 q 499 952 484 968 q 569 889 543 903 q 610 850 610 866 q 595 829 610 834 q 557 823 579 825 q 511 817 535 821 q 475 805 486 813 q 447 777 463 796 q 402 725 430 758 q 243 541 286 590 q 504 244 426 322 q 553 228 514 231 q 616 220 591 224 q 642 196 642 216 q 627 172 642 183 q 592 149 613 161 q 520 94 533 111 q 470 55 494 55 q 449 88 446 55 "},"í":{"x_min":204.234375,"x_max":591.078125,"ha":595,"o":"m 238 -35 q 204 -9 204 -35 q 223 26 204 1 q 260 76 242 52 q 280 113 278 100 l 295 674 q 281 710 294 695 q 252 740 267 726 q 223 768 236 754 q 211 797 211 781 q 259 815 211 827 q 337 807 295 807 l 414 810 q 449 784 449 810 q 428 754 449 770 q 394 727 407 738 q 373 706 381 715 q 360 680 360 692 l 346 158 l 347 112 q 367 54 347 83 q 396 12 387 25 q 405 -9 405 0 q 367 -33 405 -33 l 337 -31 l 238 -35 m 560 1098 l 493 1107 q 474 1103 482 1107 q 445 1087 466 1100 q 406 1060 425 1074 q 350 1020 359 1028 q 313 1001 331 1001 q 286 1010 295 1001 q 278 1029 278 1019 q 304 1068 278 1053 q 434 1164 330 1083 q 448 1207 441 1168 q 490 1275 462 1275 q 513 1263 506 1275 q 528 1233 521 1251 q 543 1193 534 1214 q 565 1158 552 1171 q 591 1119 591 1131 q 560 1098 591 1098 "},"ˆ":{"x_min":61.71875,"x_max":652.453125,"ha":758,"o":"m 211 999 l 213 983 q 193 944 213 954 q 121 1010 170 930 q 95 1032 115 1020 q 68 1051 75 1043 q 61 1070 61 1058 q 101 1094 61 1094 l 156 1089 q 247 1133 193 1089 q 311 1184 278 1159 q 352 1211 345 1209 q 366 1213 358 1213 q 396 1201 385 1213 q 496 1104 438 1146 q 533 1077 514 1090 q 586 1055 556 1062 q 626 1045 616 1049 q 652 1020 652 1036 q 628 989 652 1002 q 585 962 594 971 q 568 944 577 954 q 550 925 558 933 q 521 905 530 905 q 504 914 512 905 q 497 938 497 923 l 498 965 q 486 1023 498 997 q 360 1128 365 1123 q 289 1088 326 1117 q 233 1047 252 1060 q 211 999 211 1029 "},"ū":{"x_min":72.984375,"x_max":736.96875,"ha":842,"o":"m 610 166 l 610 182 l 592 491 l 558 394 q 493 230 512 266 q 456 169 473 193 q 416 124 438 144 q 306 81 365 81 q 132 408 132 81 l 140 739 q 123 781 140 763 q 94 811 105 799 q 72 847 72 832 q 110 869 72 869 l 155 867 q 237 875 206 867 q 275 883 269 883 q 292 870 292 883 q 250 805 292 846 q 219 775 233 790 q 203 749 205 760 q 200 706 202 738 q 197 630 199 674 q 194 352 188 413 q 207 260 200 291 q 226 206 214 229 q 306 151 255 151 q 520 453 421 151 q 568 781 607 717 q 535 810 559 794 q 501 850 501 832 q 539 876 501 876 l 572 876 q 648 881 622 876 q 682 888 677 888 q 703 869 703 888 q 681 824 703 850 q 648 782 658 798 q 637 752 637 766 q 638 710 637 737 q 642 644 639 683 q 646 557 644 604 q 652 459 649 509 q 658 362 655 410 q 665 275 662 314 q 675 171 672 185 q 681 148 677 158 q 690 130 685 138 l 732 80 q 720 48 745 56 q 655 44 702 44 q 591 39 608 44 q 543 52 543 24 q 550 77 543 69 q 566 96 557 86 q 585 120 575 107 q 610 166 608 153 m 450 1145 l 340 1143 q 300 1127 323 1143 q 262 1101 277 1111 q 220 1096 236 1084 q 209 1120 209 1104 q 214 1146 209 1136 q 218 1170 218 1157 q 216 1195 218 1184 q 210 1216 213 1206 q 207 1268 197 1258 q 228 1277 217 1277 q 249 1269 238 1277 q 272 1252 260 1262 q 324 1215 307 1221 q 424 1216 391 1216 q 491 1216 465 1216 q 523 1218 517 1216 q 555 1243 528 1220 q 614 1277 589 1277 q 638 1243 638 1277 q 631 1211 638 1232 q 618 1146 618 1171 l 620 1110 q 601 1079 620 1079 q 568 1099 584 1079 q 541 1129 551 1119 q 519 1142 531 1139 q 450 1145 501 1145 "},"ȷ":{"x_min":-73.921875,"x_max":470.015625,"ha":566,"o":"m 432 953 q 470 941 470 960 q 442 902 470 920 q 389 817 404 877 q 389 644 381 788 q 400 446 396 501 q 415 105 415 163 q 413 9 415 48 q 405 -59 410 -28 q 263 -278 377 -243 q 89 -249 181 -303 q -12 -207 23 -210 q -60 -194 -47 -205 q -73 -170 -73 -183 q -59 -148 -73 -157 q 9 -109 -24 -128 q 65 -66 42 -90 q 101 -42 87 -42 q 121 -78 121 -42 l 119 -113 q 164 -212 119 -185 q 240 -218 195 -231 q 294 -185 274 -207 q 324 -132 313 -162 q 345 113 350 -61 q 313 803 329 669 q 290 848 309 828 q 246 885 270 868 q 207 935 207 915 q 233 956 207 956 q 292 950 259 956 q 349 944 326 944 q 385 945 373 944 l 432 953 "},"µ":{"x_min":109.875,"x_max":870.15625,"ha":904,"o":"m 144 -208 q 111 -182 111 -208 q 135 -139 111 -165 q 168 -104 160 -113 q 187 -73 187 -84 l 182 584 l 184 815 q 167 843 183 829 q 135 874 152 857 q 109 914 109 900 q 139 942 109 942 q 177 937 155 942 q 228 933 198 933 l 306 937 q 334 919 334 937 q 295 865 334 897 q 253 815 256 832 q 246 687 249 796 q 243 522 243 579 q 246 396 243 465 q 261 272 250 327 q 357 151 287 151 q 590 480 516 151 q 623 748 623 622 l 623 786 q 601 862 623 834 q 577 884 592 873 q 552 918 552 902 q 598 944 552 944 l 655 942 q 706 946 689 942 q 752 932 752 956 q 738 901 752 917 q 716 874 725 885 q 702 852 708 864 q 687 766 689 828 q 679 628 685 704 q 668 488 674 552 q 655 274 655 322 q 703 135 655 170 q 751 146 720 120 q 777 184 772 164 q 788 208 783 204 q 797 214 792 212 q 829 208 821 223 q 836 183 836 194 q 861 96 836 141 q 870 68 870 81 q 848 50 870 50 l 806 58 q 752 60 781 60 l 715 60 q 597 310 579 60 l 562 218 q 502 131 535 158 q 357 81 439 81 q 260 128 295 81 q 242 170 248 145 q 249 -33 245 13 q 263 -98 252 -80 q 286 -130 274 -115 q 308 -159 298 -145 q 318 -182 318 -172 q 308 -199 318 -191 q 281 -207 299 -207 l 226 -201 l 144 -208 "},"’":{"x_min":146.140625,"x_max":398.421875,"ha":514,"o":"m 193 1168 l 272 1162 q 344 1167 327 1162 q 367 1172 360 1172 q 398 1149 398 1172 q 388 1123 398 1138 q 361 1075 379 1108 q 320 1005 344 1042 q 206 878 261 913 q 156 884 178 858 q 146 908 146 897 q 151 921 146 918 q 173 937 157 925 q 207 964 190 949 q 249 1021 249 1004 q 236 1053 249 1039 q 209 1086 224 1067 q 187 1116 194 1105 q 175 1134 180 1127 q 171 1151 171 1142 q 193 1168 171 1168 "},"-":{"x_min":149.203125,"x_max":781.984375,"ha":931,"o":"m 655 399 l 281 403 q 213 375 240 403 q 194 355 203 364 q 170 346 185 346 q 149 375 149 346 l 159 453 q 155 509 159 453 q 162 532 155 522 q 176 541 168 541 q 213 511 195 541 q 259 470 229 486 q 270 466 266 466 l 548 458 q 641 461 614 458 q 683 475 669 464 q 709 497 697 485 q 732 518 721 509 q 756 528 743 528 q 778 497 778 528 l 773 423 l 781 361 q 756 335 781 335 q 733 345 747 335 q 655 399 683 394 "},"Q":{"x_min":92.234375,"x_max":1052.609375,"ha":1061,"o":"m 718 56 q 421 2 595 -31 q 236 101 316 23 q 92 562 92 243 q 219 915 92 783 q 507 1039 337 1039 q 775 923 659 1039 q 920 537 908 789 l 921 513 q 834 185 921 333 q 767 97 805 136 q 929 25 891 25 l 1014 29 q 1052 4 1052 29 q 1041 -21 1052 -9 q 1013 -48 1030 -33 q 953 -118 966 -90 q 933 -151 940 -145 q 915 -158 925 -158 q 889 -124 894 -158 l 883 -67 q 860 -19 876 -28 q 718 56 794 14 m 367 88 q 443 59 405 67 q 529 51 482 51 q 635 78 576 52 q 741 161 694 105 q 845 522 845 286 q 728 873 845 750 q 435 968 603 1004 q 283 890 351 950 q 160 572 160 782 l 160 557 q 181 373 160 459 q 230 233 202 287 q 293 143 258 179 q 367 88 328 108 "},"M":{"x_min":61,"x_max":1233.6875,"ha":1302,"o":"m 130 22 l 99 18 q 72 25 84 18 q 61 46 60 31 q 77 77 61 61 q 111 110 92 94 q 145 142 129 126 q 163 171 161 158 l 244 714 q 270 873 269 850 q 263 906 271 897 q 245 926 256 916 q 220 946 233 935 q 196 966 207 956 q 170 1006 170 990 q 200 1027 170 1027 l 243 1024 q 340 1033 299 1024 q 392 1042 381 1042 q 420 1021 419 1042 q 398 984 421 1007 q 338 910 349 939 l 434 666 l 556 355 q 602 231 590 268 q 623 194 614 194 q 638 209 632 194 q 656 250 644 225 q 687 315 668 276 q 728 404 705 354 q 777 508 752 454 q 830 618 803 562 q 881 725 856 674 q 959 893 954 881 q 930 936 952 908 q 898 976 907 964 q 890 999 890 989 q 921 1020 890 1020 l 982 1015 l 1093 1024 q 1121 1006 1121 1024 q 1111 981 1121 990 q 1090 957 1102 972 q 1067 925 1079 943 q 1032 866 1035 878 q 1037 826 1032 859 l 1047 745 q 1129 158 1114 204 q 1187 94 1137 132 q 1219 68 1205 80 q 1233 45 1233 55 q 1228 30 1233 35 q 1214 23 1223 25 q 1176 15 1197 17 q 1133 7 1155 14 q 1091 -5 1111 1 q 1028 -23 1041 -23 q 1009 -4 1009 -23 q 1015 17 1009 8 q 1028 43 1021 26 q 1043 80 1036 59 q 1064 143 1064 132 q 1062 178 1065 154 q 1054 234 1059 202 l 1028 406 l 1008 550 l 975 798 l 851 537 q 674 159 682 181 q 660 120 666 136 q 649 92 655 103 q 619 67 635 67 q 596 82 602 67 l 573 146 q 454 444 546 204 l 318 795 l 275 495 q 231 171 231 221 q 276 59 231 124 q 257 6 308 6 l 167 19 q 130 22 146 22 "},"œ":{"x_min":90.875,"x_max":1683.78125,"ha":1759,"o":"m 1643 189 l 1611 190 q 1515 174 1557 190 q 1308 74 1437 104 q 930 132 1109 28 q 739 377 780 219 q 632 234 709 288 q 362 170 511 150 q 239 212 290 180 q 158 280 188 244 q 90 499 90 364 q 200 756 90 655 q 495 840 327 872 q 653 762 582 824 q 717 678 691 729 q 888 922 758 828 q 1315 1003 1076 1060 q 1515 874 1453 971 q 1547 767 1547 824 q 1532 677 1547 710 q 1496 622 1518 644 q 1445 585 1473 599 q 1389 562 1417 571 q 1233 552 1325 545 q 1186 560 1202 554 q 1049 554 1148 571 q 1033 552 1037 552 q 992 577 992 552 q 1013 610 992 589 q 1050 660 1034 631 q 1079 715 1067 690 q 1103 755 1091 739 q 1128 771 1115 771 q 1165 727 1158 771 q 1203 628 1174 666 q 1215 618 1210 619 q 1225 616 1219 617 q 1241 613 1232 614 q 1424 647 1351 597 q 1466 826 1511 708 q 1319 944 1433 909 q 1152 962 1243 967 q 995 922 1060 956 q 879 832 930 888 q 781 444 727 666 q 881 252 807 336 q 1277 126 1029 84 q 1396 161 1358 139 q 1451 196 1435 183 q 1499 250 1489 227 q 1515 288 1509 272 q 1528 346 1524 320 q 1534 379 1532 373 q 1550 392 1539 392 q 1569 388 1561 392 q 1582 377 1576 383 q 1597 355 1593 366 q 1606 331 1601 343 q 1620 305 1612 319 q 1657 258 1640 271 q 1672 199 1700 223 q 1643 189 1660 190 m 392 229 q 444 232 419 229 q 501 244 470 235 q 568 269 533 252 q 630 314 602 286 q 696 485 696 379 q 535 765 696 700 q 424 785 483 785 q 316 761 365 785 q 232 698 267 737 q 159 498 159 615 q 314 249 159 312 q 392 229 364 229 "},"{":{"x_min":125.46875,"x_max":751.15625,"ha":861,"o":"m 729 -255 q 675 -224 703 -255 q 623 -196 656 -204 q 529 -164 550 -176 q 366 20 419 -102 q 297 308 324 114 q 269 438 282 414 q 240 474 257 461 q 202 498 223 487 q 168 513 181 510 q 146 520 156 516 q 125 548 125 528 q 151 575 125 567 q 283 661 244 600 q 330 857 325 727 q 337 990 333 919 q 358 1108 341 1062 q 401 1188 376 1155 q 548 1275 454 1256 q 635 1303 609 1287 q 669 1318 660 1318 q 682 1280 691 1318 l 672 1241 q 667 1190 671 1233 q 634 1121 660 1121 q 607 1136 616 1121 q 592 1162 597 1151 q 579 1181 586 1172 q 543 1203 562 1203 q 510 1194 523 1203 q 482 1171 497 1185 q 454 1143 466 1158 q 431 1105 442 1129 q 407 969 407 1051 q 368 681 407 830 q 301 575 353 618 q 252 545 278 557 q 343 454 324 503 q 360 383 356 421 q 369 315 364 346 q 382 240 375 283 q 400 157 390 198 q 438 29 420 66 q 476 -33 456 -8 q 521 -80 497 -59 q 623 -124 575 -124 q 688 -54 650 -124 q 712 -32 700 -32 q 732 -43 725 -32 q 739 -71 743 -59 q 731 -143 726 -112 q 748 -215 737 -175 q 729 -255 758 -255 "},"¼":{"x_min":55.609375,"x_max":1152.296875,"ha":1232,"o":"m 687 1000 q 701 1030 687 1030 q 742 1004 714 1030 q 805 960 771 978 q 869 930 840 942 q 916 908 897 918 q 935 889 935 899 q 890 859 935 868 q 772 817 790 838 l 686 707 q 377 320 377 314 l 377 320 q 349 187 356 282 q 325 177 348 161 q 256 241 297 198 q 208 291 216 284 q 180 326 180 317 q 218 351 180 346 q 274 359 255 356 q 303 364 292 361 q 341 377 324 368 q 386 416 358 386 q 450 489 414 446 q 526 583 486 532 q 603 684 566 634 q 722 849 676 781 q 693 975 734 862 q 687 1000 687 992 m 725 349 l 618 344 q 580 353 592 344 q 568 370 568 362 q 573 384 568 377 q 584 399 577 392 q 700 513 631 442 q 798 612 769 583 q 872 686 844 658 q 921 722 908 722 q 940 693 940 722 q 936 664 940 663 q 933 573 933 666 q 933 408 933 481 l 1016 409 q 1085 461 1056 431 q 1136 499 1124 499 q 1148 427 1160 499 q 1144 368 1144 403 l 1149 306 q 1121 295 1149 278 q 1036 338 1052 335 q 922 344 1000 344 q 920 261 920 283 q 920 209 920 240 q 921 158 920 179 q 927 122 922 137 q 959 77 934 105 q 990 28 990 41 q 949 6 990 6 l 909 7 l 849 6 q 790 31 790 6 q 803 54 790 42 q 830 83 816 66 q 849 111 843 101 q 859 131 855 121 q 870 212 870 163 l 874 346 q 725 349 749 349 m 720 434 q 718 408 695 408 l 798 408 q 870 409 830 408 l 876 594 q 720 434 814 528 m 436 647 l 397 647 q 312 644 333 647 q 244 660 244 636 q 303 737 244 676 q 340 803 335 769 q 345 866 345 836 q 345 920 345 897 q 344 967 345 943 l 342 1063 q 339 1170 340 1116 q 251 1111 258 1120 q 237 1090 244 1102 q 222 1065 230 1079 q 201 1015 204 1032 q 189 986 198 998 q 173 975 181 975 q 155 985 164 975 q 137 1011 146 995 q 118 1045 127 1026 q 101 1081 109 1064 q 72 1131 81 1122 q 55 1165 55 1150 q 84 1178 55 1184 q 221 1171 188 1158 q 305 1218 260 1186 q 356 1258 350 1249 q 373 1266 361 1266 q 394 1257 384 1266 q 403 1226 403 1247 q 400 814 393 856 q 446 704 412 730 q 468 673 468 687 q 436 647 468 647 "},"#":{"x_min":44.765625,"x_max":1000.375,"ha":1001,"o":"m 90 687 q 105 818 105 791 l 96 886 q 113 916 96 916 q 151 885 129 916 q 213 822 172 852 q 228 815 223 815 l 359 816 q 387 1030 387 990 q 347 1078 385 1051 q 322 1098 333 1088 q 311 1119 311 1108 q 342 1140 311 1140 l 383 1138 q 447 1147 413 1138 q 514 1160 500 1160 q 535 1138 535 1160 q 516 1104 535 1117 q 486 1074 498 1091 q 465 1041 474 1058 q 444 989 446 1005 l 411 817 l 707 821 q 733 1007 733 981 q 730 1040 733 1033 q 722 1052 727 1047 q 710 1062 717 1057 q 697 1075 703 1068 q 686 1087 691 1083 q 676 1097 680 1092 q 666 1119 666 1108 q 703 1141 666 1141 l 735 1140 q 793 1148 760 1140 q 836 1158 826 1156 q 857 1159 845 1159 q 876 1152 868 1159 q 883 1135 883 1145 q 864 1098 883 1112 q 832 1070 844 1085 q 811 1041 819 1056 q 790 990 792 1011 q 763 822 786 963 l 832 823 q 887 838 869 823 q 940 906 911 860 q 969 923 954 923 q 995 889 995 923 l 990 813 q 995 749 990 769 q 1000 722 1000 729 q 993 706 1000 714 q 974 697 987 698 q 946 708 961 697 q 914 731 930 718 q 846 766 869 766 l 754 765 l 687 370 l 712 370 q 796 385 769 372 q 874 456 843 408 q 903 474 889 474 q 929 439 929 474 l 925 365 q 930 298 925 316 q 934 274 934 280 q 915 249 934 250 q 880 258 895 248 q 847 280 864 267 q 780 316 803 314 l 678 316 l 629 60 q 644 25 629 39 q 695 -11 653 17 q 710 -33 710 -22 q 698 -53 710 -45 q 661 -61 685 -61 l 600 -58 l 570 -58 q 458 -27 458 -58 q 478 0 458 -11 q 510 19 498 10 q 530 39 521 28 q 570 110 560 73 q 587 174 580 146 q 618 316 600 229 q 314 312 383 314 l 264 55 q 270 21 260 36 q 291 -4 280 6 q 318 -52 318 -34 q 271 -78 318 -78 l 213 -73 l 139 -77 q 105 -68 118 -77 q 92 -50 92 -59 q 112 -21 92 -32 q 143 -3 132 -10 q 164 11 155 3 q 204 76 191 35 q 224 149 216 116 q 261 310 236 196 q 190 307 208 308 q 125 261 166 305 q 95 230 109 244 q 69 215 81 216 q 44 237 44 215 q 59 368 59 341 l 51 436 q 68 467 51 467 q 106 435 85 467 q 168 373 127 402 q 183 365 178 365 l 273 366 q 349 759 311 541 q 286 758 309 758 l 253 756 q 230 754 242 756 q 202 738 219 752 q 169 708 185 724 q 114 665 128 666 q 90 687 90 665 m 629 370 q 698 764 668 574 l 400 760 l 324 366 l 629 370 "},"\u0018":{"x_min":0,"x_max":0,"ha":0},"Ĳ":{"x_min":95.625,"x_max":779.671875,"ha":815,"o":"m 138 224 q 101 252 101 224 q 110 275 101 265 q 128 296 119 284 q 147 320 137 307 q 168 344 158 333 q 188 381 188 369 l 188 495 q 181 912 188 539 q 134 976 181 933 q 95 1033 95 1013 q 154 1047 95 1062 q 249 1044 202 1035 q 318 1052 295 1052 q 341 1033 341 1052 q 310 996 341 1019 q 246 914 248 948 l 245 741 l 245 575 q 247 407 245 453 q 255 349 250 360 q 268 326 261 337 l 305 278 q 283 225 343 225 l 187 231 l 138 224 m 758 1068 q 754 1019 802 1068 l 698 964 q 682 932 684 948 l 671 397 q 666 263 670 330 q 643 141 661 195 q 590 44 624 86 q 378 -89 523 -34 q 333 -126 358 -96 q 302 -166 308 -156 q 289 -186 295 -176 q 276 -204 283 -196 q 234 -197 242 -250 q 213 -111 224 -137 q 197 -74 202 -85 q 186 -52 191 -63 q 176 -31 181 -41 q 179 19 151 19 q 216 10 191 19 q 262 -6 241 0 q 297 -17 282 -13 q 390 -18 351 -32 q 455 10 430 -5 q 596 226 576 85 q 610 488 605 284 q 617 744 615 693 l 620 892 l 621 908 q 613 951 621 942 q 594 971 605 960 q 571 994 583 982 q 534 1026 541 1022 q 524 1056 524 1033 q 543 1079 524 1079 l 628 1066 q 650 1064 639 1064 l 670 1064 l 758 1068 "},"Ê":{"x_min":71.890625,"x_max":864.515625,"ha":874,"o":"m 570 470 q 334 470 457 470 q 139 461 210 470 l 139 445 q 223 161 143 270 q 501 0 313 40 q 614 -18 592 -18 q 654 -8 636 -18 q 687 12 672 0 q 715 33 702 23 q 738 42 727 42 q 758 20 758 42 q 746 -31 758 -2 q 718 -158 721 -94 q 697 -187 717 -187 q 630 -122 671 -187 q 557 -75 605 -84 q 88 290 166 -20 q 71 452 71 356 q 101 629 71 547 q 178 774 130 712 q 284 879 225 836 q 403 949 343 922 q 607 1006 510 999 q 678 1059 642 1007 q 736 1108 714 1108 q 758 1063 770 1108 q 765 928 748 1025 q 761 893 769 903 q 746 883 754 883 q 712 907 729 883 q 630 945 686 945 q 519 931 565 945 q 428 894 474 917 q 338 836 383 870 q 254 756 293 801 q 146 535 167 655 q 187 533 165 533 l 234 533 q 575 541 355 533 q 612 561 588 542 q 700 615 683 615 q 725 584 725 615 l 705 495 q 701 451 701 474 l 703 425 q 680 391 703 391 q 656 403 667 391 q 632 430 644 415 q 570 470 600 467 m 410 1200 l 412 1184 q 392 1145 412 1155 q 319 1211 368 1131 q 294 1233 314 1221 q 267 1252 274 1244 q 260 1271 260 1259 q 300 1295 260 1295 l 355 1291 q 446 1335 391 1291 q 540 1405 476 1360 q 580 1406 557 1426 q 620 1373 602 1387 q 656 1348 638 1360 q 743 1303 678 1335 q 796 1293 766 1294 q 837 1289 825 1292 q 864 1266 864 1282 q 849 1238 864 1249 q 808 1202 817 1214 l 777 1158 q 751 1135 762 1135 q 724 1168 727 1135 q 711 1227 718 1217 q 700 1245 705 1238 q 630 1286 665 1266 q 558 1329 594 1306 l 487 1286 q 432 1249 479 1280 q 410 1200 410 1230 "},")":{"x_min":135.640625,"x_max":610.40625,"ha":746,"o":"m 354 -263 q 334 -290 354 -290 q 308 -281 322 -290 q 286 -258 295 -271 q 265 -233 278 -244 q 236 -212 251 -221 l 182 -179 q 147 -142 147 -157 q 157 -124 147 -128 q 181 -117 167 -120 q 216 -111 194 -115 q 259 -102 237 -107 q 322 -74 310 -89 q 541 545 541 201 q 470 891 541 689 q 166 1261 349 1230 q 143 1272 151 1264 q 135 1287 135 1281 q 143 1302 135 1294 q 164 1319 151 1309 l 231 1368 q 325 1426 307 1426 q 348 1418 343 1426 q 354 1401 354 1410 q 352 1382 354 1393 q 347 1358 349 1371 q 355 1238 330 1268 q 409 1159 379 1207 q 468 1054 440 1110 q 523 935 497 998 q 568 805 549 872 q 610 563 610 662 q 603 403 610 464 q 582 287 596 341 q 548 183 568 233 q 500 84 527 134 q 368 -126 463 16 q 352 -212 352 -149 l 354 -263 "},"Å":{"x_min":55.609375,"x_max":1206.65625,"ha":1287,"o":"m 271 -51 q 244 -76 271 -76 q 209 -63 224 -76 q 168 -38 193 -49 q 118 -17 143 -27 q 55 21 55 7 q 77 49 55 35 q 115 68 99 64 q 147 79 132 73 q 207 142 179 92 q 377 499 256 235 l 247 499 q 210 496 223 499 q 180 480 197 494 q 147 452 162 467 q 119 425 132 437 q 94 413 106 413 q 75 461 64 413 q 84 546 84 498 l 81 602 q 107 653 81 653 q 137 632 120 653 q 225 558 194 558 l 403 554 q 621 1051 604 993 q 638 1144 638 1110 q 649 1158 638 1153 q 670 1163 659 1163 q 702 1136 694 1163 q 732 1047 711 1109 q 779 906 752 986 q 902 552 857 676 q 1051 559 1031 549 q 1085 581 1070 569 q 1125 621 1112 602 q 1146 643 1138 640 q 1162 646 1155 646 q 1184 600 1197 646 q 1169 517 1170 556 q 1168 452 1169 478 q 1163 410 1167 425 q 1142 394 1159 394 q 1128 399 1137 394 q 1117 413 1120 404 l 1098 453 q 1039 499 1079 492 l 921 499 q 1096 81 1056 118 q 1123 64 1108 69 q 1149 54 1138 59 q 1170 46 1159 50 q 1189 40 1181 43 q 1197 5 1219 27 q 1143 -18 1188 -2 q 1082 -42 1098 -35 l 1005 -78 q 963 -65 963 -94 q 968 -33 963 -44 q 979 -8 973 -23 q 991 23 985 6 q 1003 98 1009 78 q 857 499 978 159 l 446 499 q 237 60 335 260 q 241 26 231 46 q 271 -51 271 -30 m 471 554 q 838 551 653 551 l 745 815 q 673 1016 680 998 q 471 554 617 869 m 726 1112 q 687 1105 704 1107 q 661 1104 669 1104 q 636 1106 653 1104 q 599 1114 619 1108 q 558 1130 579 1119 q 521 1159 538 1141 q 483 1265 483 1201 q 538 1383 483 1332 q 709 1433 606 1446 q 850 1322 818 1418 q 859 1256 859 1293 q 847 1195 859 1220 q 814 1153 834 1170 q 771 1127 795 1136 q 726 1112 748 1117 m 787 1266 q 774 1316 787 1296 q 744 1349 762 1336 q 680 1370 712 1370 q 627 1361 648 1370 q 591 1339 606 1353 q 559 1275 559 1309 q 599 1186 559 1220 q 695 1166 640 1152 q 787 1266 787 1187 "},"¸":{"x_min":29.15625,"x_max":462.078125,"ha":553,"o":"m 345 48 q 337 -23 316 -1 q 369 -41 347 -32 q 407 -63 392 -50 q 434 -91 422 -75 q 459 -182 470 -140 q 433 -245 449 -224 q 394 -278 417 -267 q 304 -297 356 -297 q 226 -290 251 -297 q 180 -274 201 -282 q 140 -258 158 -265 q 104 -250 121 -250 l 62 -257 q 29 -235 29 -257 q 44 -212 29 -225 q 114 -126 93 -174 q 138 -103 125 -103 q 159 -110 151 -103 q 166 -128 166 -118 l 164 -159 q 288 -236 164 -236 q 375 -182 360 -236 q 373 -127 385 -146 q 346 -99 360 -109 q 317 -80 333 -88 q 287 -63 301 -72 q 258 0 244 -36 q 285 62 279 52 q 311 82 297 82 q 336 73 326 82 q 345 48 345 65 "},"a":{"x_min":85.15625,"x_max":1095.328125,"ha":1055,"o":"m 923 2 q 900 46 891 2 q 910 151 918 129 l 785 347 q 709 474 749 404 q 651 335 678 389 q 578 225 624 280 q 488 130 532 169 q 216 -2 339 -2 q 112 40 151 -2 q 96 191 67 92 q 286 430 136 322 q 576 564 422 528 q 650 577 617 574 q 554 754 576 708 q 519 777 541 769 q 424 812 436 805 q 413 829 413 819 q 448 862 413 851 q 556 916 509 878 q 607 939 582 939 q 632 912 632 939 l 607 830 q 609 783 600 800 l 752 518 q 925 238 846 351 q 968 188 953 198 q 1005 170 984 179 q 1047 153 1027 161 q 1095 115 1095 132 q 1061 83 1095 96 q 1005 55 1026 69 q 970 29 984 41 q 946 9 956 17 q 923 2 935 2 m 166 181 q 158 134 158 151 q 162 104 158 116 q 173 82 166 92 q 213 62 191 62 q 305 83 254 62 q 398 134 357 103 q 477 205 438 165 q 605 380 560 291 q 668 522 646 457 q 439 453 560 513 q 252 316 328 398 q 166 181 186 244 "},"=":{"x_min":94.265625,"x_max":768.421875,"ha":844,"o":"m 617 612 l 229 626 q 181 600 207 625 q 142 565 155 576 q 116 554 128 554 q 94 575 94 554 l 102 622 q 105 661 105 642 l 96 741 q 115 772 96 772 q 164 737 133 772 q 225 685 209 685 q 385 677 305 685 q 522 670 466 670 q 600 671 579 670 q 640 677 621 672 q 711 733 679 689 q 724 743 714 737 q 741 748 734 748 q 766 716 766 748 l 762 665 l 768 569 q 742 536 768 536 q 713 547 728 536 q 682 571 698 558 q 617 612 638 608 m 617 257 l 229 271 q 181 246 207 270 q 142 210 155 221 q 116 200 128 200 q 94 221 94 200 l 102 268 q 105 307 105 287 l 96 386 q 115 417 96 417 q 164 383 133 417 q 225 330 209 330 q 385 323 305 330 q 522 316 466 316 q 600 316 579 316 q 640 322 621 317 q 711 378 679 334 q 724 388 714 383 q 741 394 734 394 q 766 362 766 394 l 762 310 l 768 215 q 742 181 768 181 q 713 192 728 181 q 682 217 698 203 q 617 257 638 253 "},"˚":{"x_min":94.265625,"x_max":470.6875,"ha":581,"o":"m 337 991 q 298 984 315 986 q 272 983 280 983 q 247 985 264 983 q 210 993 230 987 q 169 1009 190 999 q 132 1039 149 1020 q 94 1144 94 1080 q 149 1262 94 1211 q 320 1312 217 1325 q 461 1201 429 1297 q 470 1136 470 1172 q 458 1074 470 1099 q 425 1032 445 1049 q 382 1006 406 1015 q 337 991 359 996 m 398 1144 q 385 1195 398 1175 q 355 1227 373 1216 q 291 1249 323 1249 q 238 1240 259 1249 q 202 1218 217 1232 q 170 1154 170 1188 q 210 1065 170 1099 q 306 1045 251 1031 q 398 1144 398 1066 "},"ú":{"x_min":72.984375,"x_max":736.96875,"ha":842,"o":"m 610 166 l 610 182 l 592 491 l 558 394 q 493 230 512 266 q 456 169 473 193 q 416 124 438 144 q 306 81 365 81 q 132 408 132 81 l 140 739 q 123 781 140 763 q 94 811 105 799 q 72 847 72 832 q 110 869 72 869 l 155 867 q 237 875 206 867 q 275 883 269 883 q 292 870 292 883 q 250 805 292 846 q 219 775 233 790 q 203 749 205 760 q 200 706 202 738 q 197 630 199 674 q 194 352 188 413 q 207 260 200 291 q 226 206 214 229 q 306 151 255 151 q 520 453 421 151 q 568 781 607 717 q 535 810 559 794 q 501 850 501 832 q 539 876 501 876 l 572 876 q 648 881 622 876 q 682 888 677 888 q 703 869 703 888 q 681 824 703 850 q 648 782 658 798 q 637 752 637 766 q 638 710 637 737 q 642 644 639 683 q 646 557 644 604 q 652 459 649 509 q 658 362 655 410 q 665 275 662 314 q 675 171 672 185 q 681 148 677 158 q 690 130 685 138 l 732 80 q 720 48 745 56 q 655 44 702 44 q 591 39 608 44 q 543 52 543 24 q 550 77 543 69 q 566 96 557 86 q 585 120 575 107 q 610 166 608 153 m 581 1098 l 514 1107 q 495 1103 503 1107 q 466 1087 487 1100 q 427 1060 446 1074 q 371 1020 380 1028 q 334 1001 352 1001 q 307 1010 316 1001 q 299 1029 299 1019 q 325 1068 299 1053 q 455 1164 351 1083 q 469 1207 462 1168 q 511 1275 483 1275 q 534 1263 527 1275 q 549 1233 542 1251 q 564 1193 555 1214 q 586 1158 573 1171 q 612 1119 612 1131 q 581 1098 612 1098 "},"¯":{"x_min":106.0625,"x_max":541.90625,"ha":654,"o":"m 353 1145 l 243 1143 q 203 1127 226 1143 q 165 1101 181 1111 q 123 1096 139 1084 q 112 1120 112 1104 q 117 1146 112 1136 q 122 1170 122 1157 q 119 1195 122 1184 q 113 1216 116 1206 q 110 1268 100 1258 q 131 1277 120 1277 q 152 1269 141 1277 q 175 1252 163 1262 q 227 1215 210 1221 q 327 1216 295 1216 q 394 1216 368 1216 q 426 1218 420 1216 q 459 1243 432 1220 q 517 1277 493 1277 q 541 1243 541 1277 q 535 1211 541 1232 q 521 1146 521 1171 l 523 1110 q 504 1079 523 1079 q 471 1099 487 1079 q 444 1129 455 1119 q 422 1142 434 1139 q 353 1145 404 1145 "},"Z":{"x_min":101.46875,"x_max":1015.015625,"ha":1080,"o":"m 256 -7 q 181 -13 205 -6 q 147 -21 157 -21 q 129 -18 137 -21 q 115 -12 122 -16 q 106 27 92 2 q 128 52 110 35 q 189 116 146 68 q 288 227 233 164 q 405 366 343 291 q 531 519 468 441 q 654 672 594 596 q 763 811 714 747 q 898 997 874 955 q 345 992 412 997 q 265 984 278 988 q 237 970 252 981 q 210 945 223 959 q 172 902 193 929 q 151 890 162 890 q 136 906 136 890 l 136 948 q 126 1097 136 1063 q 124 1110 124 1104 q 139 1130 124 1130 q 163 1118 148 1130 q 196 1091 178 1106 q 269 1051 244 1053 q 433 1048 313 1048 l 943 1051 q 986 999 1016 1051 q 625 532 946 934 q 202 46 271 90 l 641 52 q 817 61 775 55 q 881 79 859 67 q 919 105 902 91 l 969 153 q 999 168 983 168 q 1010 121 1023 168 q 996 -16 996 64 l 997 -54 q 978 -77 997 -77 q 933 -53 961 -77 q 892 -17 906 -29 q 864 -5 877 -6 l 828 -4 q 256 -7 307 -8 "},"":{"x_min":142.421875,"x_max":374.375,"ha":505,"o":"m 374 -59 q 364 -85 374 -70 q 341 -127 355 -100 q 306 -183 326 -153 q 202 -289 257 -257 q 152 -283 172 -307 q 142 -260 142 -271 q 146 -246 142 -249 q 163 -240 151 -244 q 189 -229 176 -236 q 225 -183 225 -212 q 212 -155 225 -169 q 185 -122 200 -141 q 150 -73 155 -83 q 169 -40 134 -40 l 248 -46 q 322 -40 303 -46 q 374 -59 374 -25 "},"u":{"x_min":96.984375,"x_max":760.96875,"ha":920,"o":"m 634 166 l 634 182 l 616 491 l 582 394 q 517 230 536 266 q 480 169 497 193 q 440 124 462 144 q 330 81 389 81 q 156 408 156 81 l 164 739 q 147 781 164 763 q 118 811 129 799 q 96 847 96 832 q 134 869 96 869 l 179 867 q 261 875 230 867 q 299 883 293 883 q 316 870 316 883 q 274 805 316 846 q 243 775 257 790 q 227 749 229 760 q 224 706 226 738 q 221 630 223 674 q 218 352 212 413 q 231 260 224 291 q 250 206 238 229 q 330 151 279 151 q 544 453 445 151 q 592 781 631 717 q 559 810 583 794 q 525 850 525 832 q 563 876 525 876 l 596 876 q 672 881 646 876 q 706 888 701 888 q 727 869 727 888 q 705 824 727 850 q 672 782 682 798 q 661 752 661 766 q 662 710 661 737 q 666 644 663 683 q 670 557 668 604 q 676 459 673 509 q 682 362 679 410 q 689 275 686 314 q 699 171 696 185 q 705 148 701 158 q 714 130 709 138 l 756 80 q 744 48 769 56 q 679 44 726 44 q 615 39 632 44 q 567 52 567 24 q 574 77 567 69 q 590 96 581 86 q 609 120 599 107 q 634 166 632 153 "},"k":{"x_min":75.28125,"x_max":746.71875,"ha":749,"o":"m 179 23 l 99 19 q 77 37 77 19 q 87 64 77 50 q 109 94 97 78 q 144 154 143 134 q 146 206 145 174 q 147 286 147 238 q 148 393 147 333 q 149 516 149 452 q 150 775 150 710 l 150 896 q 149 992 150 951 l 104 1050 q 75 1105 75 1088 q 94 1123 75 1128 q 250 1124 162 1108 q 287 1112 287 1131 q 265 1064 287 1093 q 230 1018 242 1035 q 214 984 218 1001 l 210 500 q 492 745 370 623 q 512 811 505 758 q 527 873 519 864 q 548 881 535 881 q 571 868 560 881 q 592 836 581 855 q 656 757 628 779 q 684 720 684 735 q 644 697 684 697 l 596 700 q 544 693 557 700 q 515 673 531 685 q 476 642 499 661 q 425 599 453 623 q 367 552 396 576 q 257 459 320 513 q 597 174 534 220 q 638 161 613 163 q 688 158 663 159 q 729 152 712 156 q 746 134 746 148 q 735 108 746 120 q 708 84 723 96 q 651 27 661 46 q 592 -5 619 -34 q 578 35 582 4 q 572 80 574 67 q 558 121 567 110 l 339 311 q 209 425 276 366 q 208 162 208 285 q 231 114 208 147 q 276 34 276 51 q 257 17 276 17 l 179 23 "},"Ù":{"x_min":22.375,"x_max":1008.515625,"ha":1049,"o":"m 1008 1088 q 994 1064 1008 1081 q 968 1029 980 1047 q 938 953 939 984 q 935 881 937 923 q 932 789 934 839 q 926 682 929 738 q 916 572 922 626 q 889 401 903 450 q 862 310 876 352 q 828 225 849 269 q 777 141 807 182 q 708 66 748 99 q 492 -6 617 -6 q 274 93 358 -6 q 151 463 171 215 l 112 876 q 101 918 109 906 q 60 959 87 935 q 27 992 33 983 q 22 1008 22 1001 q 65 1032 22 1032 l 100 1029 l 205 1049 q 257 1037 257 1058 q 241 1008 257 1024 q 215 976 225 992 q 197 943 204 960 q 181 882 181 906 q 183 818 181 858 q 189 723 185 777 q 235 327 211 421 q 293 177 259 233 q 496 56 366 56 q 781 278 691 56 q 877 945 877 515 q 868 986 877 973 q 832 1026 857 1001 q 793 1078 793 1063 q 833 1093 793 1093 l 900 1090 q 948 1097 930 1090 q 1008 1088 1008 1119 m 332 1192 q 301 1213 301 1192 q 320 1244 301 1226 q 347 1284 338 1263 q 363 1324 356 1306 q 378 1356 370 1343 q 401 1369 386 1369 q 425 1354 417 1369 q 436 1320 432 1339 q 445 1282 441 1300 q 456 1258 449 1264 q 480 1240 464 1253 q 515 1213 496 1228 q 583 1165 565 1175 q 614 1129 614 1147 q 583 1095 614 1095 q 536 1119 560 1095 q 475 1162 524 1131 q 418 1197 426 1193 q 399 1201 410 1201 l 332 1192 "},"¢":{"x_min":1.359375,"x_max":757.578125,"ha":1001,"o":"m 193 -118 q 164 -149 193 -149 q 123 -135 149 -149 q 49 -109 74 -109 q 12 -100 23 -109 q 1 -80 1 -90 q 35 -44 1 -61 q 111 3 82 -23 q 210 202 133 37 q 72 454 72 303 q 290 797 72 712 q 483 833 374 830 q 563 1048 563 1028 q 557 1079 563 1067 q 543 1102 551 1090 q 533 1170 510 1152 q 575 1176 553 1186 q 615 1155 598 1165 q 691 1125 662 1130 q 742 1093 742 1115 q 726 1072 742 1082 q 689 1052 709 1062 q 625 1007 631 1024 q 554 831 614 978 l 611 826 q 680 861 643 826 q 708 885 695 874 q 737 896 721 896 q 752 870 757 896 q 737 769 737 817 q 740 711 737 721 q 744 691 744 701 q 727 668 744 668 q 697 686 714 668 q 670 719 681 705 q 648 743 659 733 q 563 774 619 770 q 531 776 547 775 q 291 227 413 496 q 593 198 459 132 q 645 238 631 216 q 667 274 659 259 q 682 298 675 288 q 725 310 705 333 q 733 286 733 302 l 731 256 q 744 168 731 224 q 757 101 757 112 q 704 86 757 59 q 673 109 687 94 q 652 129 659 124 q 634 134 644 134 q 575 123 614 134 q 482 112 537 112 q 265 167 368 112 l 206 35 q 189 -2 196 11 l 184 -15 q 181 -34 181 -23 l 193 -118 m 238 263 q 459 774 374 567 q 231 680 319 761 q 140 459 140 595 q 238 263 140 345 "},"é":{"x_min":82.75,"x_max":876.9375,"ha":937,"o":"m 876 111 q 836 86 876 73 q 758 102 771 106 q 721 87 744 97 q 666 65 697 76 q 419 44 555 27 q 238 104 322 55 q 103 270 143 159 q 82 406 82 328 q 103 545 82 484 q 158 654 124 606 q 238 737 193 702 q 332 794 283 771 q 630 828 470 860 q 802 720 748 804 q 830 622 830 677 q 818 534 830 568 q 788 475 807 500 q 745 433 769 450 q 695 406 720 417 q 617 387 649 387 q 502 399 541 387 q 436 414 463 411 q 389 417 408 416 q 360 422 370 418 q 350 437 350 427 q 370 473 350 456 q 444 558 417 514 q 501 581 475 606 q 512 539 509 575 q 542 458 517 470 q 623 448 560 448 q 709 492 664 448 q 758 596 758 540 q 511 778 758 778 q 260 667 368 778 q 153 413 153 556 q 244 181 153 264 q 495 101 334 101 q 710 154 640 101 q 752 203 739 175 q 773 246 765 231 q 788 272 781 262 q 806 282 796 282 q 821 277 815 282 q 829 267 826 273 q 834 238 830 264 q 856 156 845 177 q 876 111 876 121 m 678 1023 l 611 1032 q 592 1028 600 1032 q 563 1012 584 1025 q 524 985 543 999 q 468 945 477 953 q 431 926 449 926 q 404 935 413 926 q 396 954 396 944 q 422 993 396 978 q 552 1089 448 1008 q 566 1132 559 1093 q 608 1200 580 1200 q 631 1188 624 1200 q 646 1158 639 1176 q 661 1118 652 1139 q 683 1083 670 1096 q 709 1044 709 1056 q 678 1023 709 1023 "},"B":{"x_min":123.4375,"x_max":844.390625,"ha":950,"o":"m 160 -87 q 123 -63 123 -87 q 137 -34 123 -46 q 158 -15 151 -22 q 174 -5 166 -9 q 189 2 183 0 q 204 20 204 10 q 236 614 228 331 q 248 1019 244 897 q 204 1081 248 1040 q 178 1106 192 1092 q 164 1136 164 1121 q 190 1157 164 1157 l 268 1148 l 360 1156 q 394 1133 394 1156 q 375 1103 394 1118 q 344 1076 356 1087 q 326 1056 333 1065 q 314 1025 314 1041 l 314 993 q 310 859 314 940 q 494 1029 390 981 q 591 1049 537 1049 q 681 1033 644 1049 q 737 991 717 1016 q 770 898 770 950 q 758 814 770 846 q 728 754 747 781 q 686 703 710 726 q 638 663 662 680 q 551 612 596 632 q 731 506 651 579 q 844 270 844 404 q 759 83 844 153 q 567 18 681 18 q 385 70 476 18 q 275 156 324 104 q 278 10 269 33 q 291 -4 281 2 q 337 -50 322 -23 q 342 -65 342 -58 q 301 -88 342 -88 l 206 -83 l 160 -87 m 278 240 q 470 99 367 136 q 643 96 552 68 q 769 279 769 133 q 716 421 769 351 q 520 557 641 520 q 455 568 484 568 q 411 570 426 568 q 389 577 396 573 q 376 602 376 583 q 388 628 376 620 q 419 639 400 636 q 464 644 438 642 q 519 659 489 647 q 582 696 549 672 q 642 751 615 720 q 694 925 725 845 q 587 990 668 990 q 338 798 468 990 q 305 748 320 771 l 291 489 q 278 240 288 434 "},"…":{"x_min":146.5,"x_max":1396.875,"ha":1552,"o":"m 1356 148 q 1396 123 1396 148 q 1370 77 1396 105 q 1328 31 1344 48 q 1306 2 1312 15 q 1250 -3 1274 -53 q 1211 56 1234 28 q 1159 131 1159 118 q 1198 158 1159 165 q 1314 147 1249 147 l 1356 148 m 862 158 q 902 133 902 158 q 876 87 902 115 q 834 41 850 58 q 812 12 818 25 q 756 7 780 -43 q 717 66 740 38 q 665 141 665 128 q 704 168 665 175 q 820 157 755 157 l 862 158 m 343 152 q 383 127 383 152 q 357 81 383 109 q 315 35 331 52 q 293 6 299 19 q 237 1 261 -49 q 198 60 221 32 q 146 135 146 122 q 185 162 146 169 q 301 151 236 151 l 343 152 "},"H":{"x_min":73.25,"x_max":1088.546875,"ha":1159,"o":"m 73 23 q 81 46 73 35 q 103 75 89 56 q 131 114 116 94 q 147 149 147 135 l 164 822 q 173 1037 168 935 q 155 1069 173 1053 l 100 1119 q 84 1150 84 1136 q 110 1171 84 1171 l 175 1164 q 243 1171 211 1164 q 308 1180 288 1180 q 328 1161 328 1180 q 309 1131 328 1146 q 276 1099 290 1115 q 254 1068 263 1083 q 237 1022 237 1040 q 226 634 237 971 q 925 640 536 622 q 933 1070 925 925 q 915 1102 933 1086 l 859 1152 q 843 1184 843 1169 q 870 1205 843 1205 l 935 1197 q 1003 1204 971 1197 q 1068 1214 1048 1214 q 1088 1195 1088 1214 q 1069 1164 1088 1180 q 1036 1132 1049 1148 q 1013 1101 1022 1116 q 996 1050 996 1073 q 995 974 996 1028 q 993 849 994 920 q 991 698 992 779 q 990 538 990 617 q 989 169 985 198 q 998 132 994 141 q 1009 116 1003 124 l 1049 72 q 1065 41 1065 52 q 1024 18 1065 18 l 956 19 q 912 14 936 19 q 846 36 846 1 q 854 59 846 48 q 876 88 862 69 l 904 128 q 921 163 920 149 q 925 579 923 227 q 224 571 396 560 q 216 149 210 174 q 230 112 222 124 q 249 89 238 101 q 272 65 261 78 q 251 5 320 5 l 183 6 q 139 2 163 6 q 73 23 73 -11 "},"î":{"x_min":33.71875,"x_max":624.453125,"ha":595,"o":"m 238 -35 q 204 -9 204 -35 q 223 26 204 1 q 260 76 242 52 q 280 113 278 100 l 295 674 q 281 710 294 695 q 252 740 267 726 q 223 768 236 754 q 211 797 211 781 q 259 815 211 827 q 337 807 295 807 l 414 810 q 449 784 449 810 q 428 754 449 770 q 394 727 407 738 q 373 706 381 715 q 360 680 360 692 l 346 158 l 347 112 q 367 54 347 83 q 396 12 387 25 q 405 -9 405 0 q 367 -33 405 -33 l 337 -31 l 238 -35 m 183 999 l 185 983 q 165 944 185 954 q 93 1010 142 930 q 67 1032 87 1020 q 40 1051 47 1043 q 33 1070 33 1058 q 73 1094 33 1094 l 128 1089 q 219 1133 165 1089 q 283 1184 250 1159 q 324 1211 317 1209 q 338 1213 330 1213 q 368 1201 357 1213 q 468 1104 410 1146 q 505 1077 486 1090 q 558 1055 528 1062 q 598 1045 588 1049 q 624 1020 624 1036 q 600 989 624 1002 q 557 962 566 971 q 540 944 549 954 q 522 925 530 933 q 493 905 502 905 q 476 914 484 905 q 469 938 469 923 l 470 965 q 458 1023 470 997 q 332 1128 337 1123 q 261 1088 298 1117 q 205 1047 224 1060 q 183 999 183 1029 "},"−":{"x_min":149.203125,"x_max":824.71875,"ha":972,"o":"m 698 399 l 281 403 q 213 375 240 403 q 194 355 203 364 q 170 346 185 346 q 149 375 149 346 l 159 453 q 155 509 159 453 q 162 532 155 522 q 176 541 168 541 q 213 511 195 541 q 259 470 229 486 q 270 466 266 466 q 678 462 644 461 q 726 473 712 463 q 751 495 739 483 q 774 518 763 507 q 798 528 785 528 q 816 521 811 528 q 821 488 821 514 l 816 423 l 824 361 q 799 335 824 335 q 762 355 784 335 q 726 386 739 375 q 698 399 712 396 "},"≠":{"x_min":94.265625,"x_max":768.421875,"ha":844,"o":"m 617 257 l 377 267 l 343 158 q 327 91 327 106 q 333 65 327 77 q 345 41 339 52 q 354 -29 379 -12 q 311 -33 333 -44 q 271 -13 289 -23 q 196 18 221 13 q 153 63 126 32 q 181 81 161 71 q 265 135 250 111 q 314 270 271 144 q 278 271 295 271 l 229 271 q 181 246 207 270 q 142 210 155 221 q 116 200 128 200 q 94 221 94 200 l 102 268 q 105 307 105 287 l 96 386 q 115 417 96 417 q 164 383 133 417 q 225 330 209 330 q 334 326 250 330 l 434 620 q 229 626 306 626 q 181 600 207 625 q 142 565 155 576 q 116 554 128 554 q 94 575 94 554 l 102 622 q 105 661 105 642 l 96 741 q 115 772 96 772 q 164 737 133 772 q 225 685 209 685 q 451 673 253 685 l 513 857 q 502 916 514 876 q 491 965 491 956 q 516 991 491 991 q 552 975 537 991 q 593 957 567 962 q 642 952 620 952 q 684 925 684 952 q 673 902 684 909 q 647 888 662 894 q 615 873 632 882 q 585 845 598 865 q 510 671 561 807 q 531 670 521 670 l 552 670 q 638 676 617 670 q 711 733 679 689 q 724 743 714 737 q 741 748 734 748 q 766 716 766 748 l 762 665 l 768 569 q 742 536 768 536 q 713 547 728 536 q 682 571 698 558 q 617 612 638 608 q 491 617 589 612 q 394 322 433 451 q 640 322 590 308 q 711 378 679 334 q 724 388 714 383 q 741 394 734 394 q 766 362 766 394 l 762 310 l 768 215 q 742 181 768 181 q 713 192 728 181 q 682 217 698 203 q 617 257 638 253 "},"¥":{"x_min":94.953125,"x_max":907.015625,"ha":1042,"o":"m 423 206 l 250 207 q 183 179 209 207 q 163 159 172 168 q 140 150 154 150 q 118 179 118 150 l 128 257 q 125 313 128 257 q 131 336 125 326 q 146 345 137 345 q 183 315 164 345 q 229 274 198 290 q 256 270 236 270 q 426 265 276 270 q 435 444 431 332 l 270 444 q 202 416 229 444 q 183 396 192 405 q 160 387 174 387 q 138 417 138 387 l 148 494 l 145 550 q 151 573 145 564 q 165 582 157 582 q 202 552 184 582 q 248 511 218 527 q 272 507 255 507 l 427 503 q 210 841 354 640 q 161 878 199 858 q 109 908 124 897 q 94 929 94 918 q 131 959 94 954 q 258 991 197 965 q 297 1000 278 1000 q 317 984 317 1000 q 301 950 317 972 q 263 889 263 896 q 272 868 263 881 q 302 821 280 855 q 348 751 324 788 l 484 544 l 614 691 q 731 847 692 781 q 730 895 740 864 q 713 951 713 946 q 740 976 713 976 q 780 959 754 976 q 863 915 836 923 q 883 855 939 894 q 849 842 874 849 q 814 830 825 835 q 786 802 803 826 q 735 739 768 779 q 669 658 703 699 q 600 578 634 618 q 535 500 566 537 q 573 499 554 499 l 609 499 q 717 502 690 499 q 759 516 745 505 q 785 538 773 526 q 808 560 797 550 q 831 569 819 569 q 849 562 844 569 q 854 529 854 555 l 849 465 l 857 402 q 832 377 857 377 q 809 386 823 377 q 731 440 759 435 q 499 443 678 440 q 486 263 499 423 q 693 264 654 259 q 746 279 732 268 q 772 301 760 289 q 795 322 784 313 q 818 332 806 332 q 836 325 831 332 q 841 292 841 318 l 836 227 l 845 165 q 819 139 845 139 q 796 149 810 139 q 718 203 746 198 q 482 206 663 203 q 480 149 480 170 l 480 120 q 480 100 480 110 q 481 77 480 90 q 487 52 482 64 q 507 20 496 31 q 524 0 518 8 q 539 -29 539 -18 q 499 -52 539 -52 l 419 -47 l 372 -55 q 339 -29 339 -55 q 349 -4 339 -18 l 415 81 l 420 157 q 423 206 421 180 "},"U":{"x_min":22.375,"x_max":1008.515625,"ha":1049,"o":"m 1008 1088 q 994 1064 1008 1081 q 968 1029 980 1047 q 938 953 939 984 q 935 881 937 923 q 932 789 934 839 q 926 682 929 738 q 916 572 922 626 q 889 401 903 450 q 862 310 876 352 q 828 225 849 269 q 777 141 807 182 q 708 66 748 99 q 492 -6 617 -6 q 274 93 358 -6 q 151 463 171 215 l 112 876 q 101 918 109 906 q 60 959 87 935 q 27 992 33 983 q 22 1008 22 1001 q 65 1032 22 1032 l 100 1029 l 205 1049 q 257 1037 257 1058 q 241 1008 257 1024 q 215 976 225 992 q 197 943 204 960 q 181 882 181 906 q 183 818 181 858 q 189 723 185 777 q 235 327 211 421 q 293 177 259 233 q 496 56 366 56 q 781 278 691 56 q 877 945 877 515 q 868 986 877 973 q 832 1026 857 1001 q 793 1078 793 1063 q 833 1093 793 1093 l 900 1090 q 948 1097 930 1090 q 1008 1088 1008 1119 "},"Ñ":{"x_min":59,"x_max":1114.25,"ha":1168,"o":"m 272 14 q 209 0 272 -12 q 78 10 162 10 q 59 27 59 10 q 79 57 59 47 q 111 76 99 67 q 128 97 122 86 q 148 180 141 119 q 161 292 155 242 q 173 404 167 343 q 187 526 180 465 q 200 645 193 588 q 221 844 200 645 q 176 911 221 873 q 149 929 163 922 q 123 955 123 940 q 154 984 123 984 l 251 978 q 304 982 281 978 q 348 986 328 986 q 369 967 369 986 q 346 935 369 946 q 276 864 290 909 q 598 438 304 798 q 906 84 888 84 q 906 88 908 84 l 962 878 q 944 923 962 897 q 910 970 927 948 q 893 1005 893 992 q 913 1022 893 1022 q 958 1018 934 1022 q 1014 1013 982 1013 l 1085 1017 q 1091 969 1139 1017 l 1066 944 q 1032 899 1038 914 q 1023 852 1026 885 q 1015 766 1020 819 q 1006 646 1011 713 q 996 506 1001 579 q 987 362 991 434 q 979 229 982 290 q 971 50 971 92 l 972 27 q 961 -13 972 -1 q 938 -25 949 -25 q 913 -18 921 -25 q 887 10 906 -11 q 838 68 868 32 q 767 152 807 105 q 682 253 727 200 q 590 363 637 306 q 498 474 543 419 q 413 578 453 529 q 341 667 373 628 q 270 767 276 751 q 206 153 206 167 l 206 135 q 218 90 206 107 q 245 56 218 90 q 272 14 272 23 m 454 1123 q 436 1098 454 1098 q 412 1107 425 1098 q 395 1126 400 1117 q 384 1145 390 1136 q 368 1163 378 1155 q 324 1189 347 1182 q 286 1216 286 1199 q 295 1233 286 1225 q 315 1241 303 1241 l 336 1240 q 391 1251 381 1242 q 412 1273 402 1260 q 439 1300 423 1286 q 537 1334 480 1334 q 642 1280 599 1334 q 665 1250 653 1265 q 743 1201 704 1201 q 811 1224 785 1201 q 815 1325 834 1246 q 819 1358 811 1348 q 836 1368 827 1368 q 865 1346 853 1367 q 941 1281 896 1298 q 972 1250 972 1268 q 961 1231 972 1239 q 929 1222 951 1224 q 892 1218 906 1220 q 873 1208 878 1216 q 856 1189 867 1200 q 827 1167 845 1178 q 706 1142 767 1130 q 649 1172 672 1149 q 614 1210 626 1195 q 590 1239 602 1226 q 534 1273 559 1273 q 494 1267 509 1273 q 469 1252 480 1260 q 445 1219 449 1233 q 441 1194 441 1205 l 454 1123 "},"F":{"x_min":80.703125,"x_max":835.15625,"ha":897,"o":"m 162 -4 q 128 21 129 -4 q 136 43 128 33 q 157 73 143 54 q 198 155 198 135 q 183 491 189 275 q 161 1034 171 898 q 140 1073 160 1053 q 101 1114 121 1093 q 80 1149 80 1134 q 107 1170 80 1170 l 172 1164 l 278 1177 q 303 1158 303 1177 q 280 1124 303 1143 q 227 1018 221 1076 q 229 1001 229 1009 q 670 1085 393 1025 q 746 1160 712 1111 q 777 1181 764 1181 q 796 1174 790 1181 q 805 1154 803 1166 q 809 1124 808 1141 q 811 1089 809 1108 q 824 1018 814 1041 q 814 960 849 960 q 785 969 798 960 q 761 985 772 978 q 738 999 750 992 q 687 1013 709 1014 q 631 1008 665 1013 q 556 998 597 1004 q 471 984 516 992 q 383 969 427 977 q 231 938 282 950 l 245 614 q 609 621 500 609 q 701 677 654 633 q 733 691 719 691 q 751 613 769 691 q 744 550 744 586 l 749 495 q 741 472 749 479 q 697 481 725 457 q 646 531 670 515 q 611 549 622 546 q 555 547 609 547 q 248 546 306 548 q 266 155 262 182 q 286 108 270 128 q 316 71 303 87 q 340 32 340 42 q 307 6 340 6 l 257 10 q 197 3 224 10 q 162 -4 169 -4 "},"ĵ":{"x_min":-73.921875,"x_max":649.453125,"ha":566,"o":"m 432 953 q 470 941 470 960 q 442 902 470 920 q 389 817 404 877 q 389 644 381 788 q 400 446 396 501 q 415 105 415 163 q 413 9 415 48 q 405 -59 410 -28 q 263 -278 377 -243 q 89 -249 181 -303 q -12 -207 23 -210 q -60 -194 -47 -205 q -73 -170 -73 -183 q -59 -148 -73 -157 q 9 -109 -24 -128 q 65 -66 42 -90 q 101 -42 87 -42 q 121 -78 121 -42 l 119 -113 q 164 -212 119 -185 q 240 -218 195 -231 q 294 -185 274 -207 q 324 -132 313 -162 q 345 113 350 -61 q 313 803 329 669 q 290 848 309 828 q 246 885 270 868 q 207 935 207 915 q 233 956 207 956 q 292 950 259 956 q 349 944 326 944 q 385 945 373 944 l 432 953 m 208 1110 l 210 1094 q 190 1055 210 1065 q 118 1121 167 1041 q 92 1143 112 1131 q 65 1162 72 1154 q 58 1181 58 1169 q 98 1205 58 1205 l 153 1200 q 244 1244 190 1200 q 308 1295 275 1270 q 349 1322 342 1320 q 363 1324 355 1324 q 393 1312 382 1324 q 493 1215 435 1257 q 530 1188 511 1201 q 583 1166 553 1173 q 623 1156 613 1160 q 649 1131 649 1147 q 625 1100 649 1113 q 582 1073 591 1082 q 565 1055 574 1065 q 547 1036 555 1044 q 518 1016 527 1016 q 501 1025 509 1016 q 494 1049 494 1034 l 495 1076 q 483 1134 495 1108 q 357 1239 362 1234 q 286 1199 323 1228 q 230 1158 249 1171 q 208 1110 208 1140 "},"ā":{"x_min":85.15625,"x_max":1095.328125,"ha":1055,"o":"m 923 2 q 900 46 891 2 q 910 151 918 129 l 785 347 q 709 474 749 404 q 651 335 678 389 q 578 225 624 280 q 488 130 532 169 q 216 -2 339 -2 q 112 40 151 -2 q 96 191 67 92 q 286 430 136 322 q 576 564 422 528 q 650 577 617 574 q 554 754 576 708 q 519 777 541 769 q 424 812 436 805 q 413 829 413 819 q 448 862 413 851 q 556 916 509 878 q 607 939 582 939 q 632 912 632 939 l 607 830 q 609 783 600 800 l 752 518 q 925 238 846 351 q 968 188 953 198 q 1005 170 984 179 q 1047 153 1027 161 q 1095 115 1095 132 q 1061 83 1095 96 q 1005 55 1026 69 q 970 29 984 41 q 946 9 956 17 q 923 2 935 2 m 166 181 q 158 134 158 151 q 162 104 158 116 q 173 82 166 92 q 213 62 191 62 q 305 83 254 62 q 398 134 357 103 q 477 205 438 165 q 605 380 560 291 q 668 522 646 457 q 439 453 560 513 q 252 316 328 398 q 166 181 186 244 m 586 1182 l 476 1180 q 436 1164 459 1180 q 398 1138 413 1148 q 356 1133 372 1121 q 345 1157 345 1141 q 350 1183 345 1173 q 354 1207 354 1194 q 352 1232 354 1221 q 345 1253 349 1243 q 343 1305 333 1295 q 363 1314 353 1314 q 385 1306 374 1314 q 408 1289 396 1299 q 459 1252 443 1258 q 560 1253 527 1253 q 627 1253 601 1253 q 659 1255 653 1253 q 691 1280 664 1257 q 750 1314 725 1314 q 774 1280 774 1314 q 767 1248 774 1269 q 754 1183 754 1208 l 756 1147 q 737 1116 756 1116 q 704 1136 720 1116 q 677 1166 687 1156 q 655 1179 667 1176 q 586 1182 636 1182 "},"Ĩ":{"x_min":-100.25,"x_max":585.4375,"ha":472,"o":"m 204 0 l 155 -6 q 118 22 118 -6 q 127 44 119 33 q 145 65 136 54 q 165 89 153 76 q 185 112 176 101 q 205 150 205 139 l 208 622 q 204 912 208 784 q 158 976 204 933 q 119 1033 119 1013 q 177 1047 119 1062 q 272 1044 226 1035 q 342 1052 319 1052 q 364 1033 364 1052 q 341 1001 364 1019 q 303 968 318 983 q 281 941 288 953 q 270 898 270 923 l 273 567 l 266 180 l 266 160 q 267 134 266 150 q 285 96 268 118 q 316 56 303 74 q 337 16 337 28 q 300 -5 337 -5 l 204 0 m 67 1123 q 49 1098 67 1098 q 25 1107 38 1098 q 8 1126 13 1117 q -2 1145 3 1136 q -18 1163 -8 1155 q -62 1189 -39 1182 q -100 1216 -100 1199 q -91 1233 -100 1225 q -71 1241 -83 1241 l -50 1240 q 4 1251 -5 1242 q 25 1273 15 1260 q 52 1300 36 1286 q 150 1334 93 1334 q 255 1280 212 1334 q 278 1250 266 1265 q 356 1201 317 1201 q 424 1224 398 1201 q 428 1325 447 1246 q 432 1358 424 1348 q 449 1368 440 1368 q 478 1346 466 1367 q 554 1281 509 1298 q 585 1250 585 1268 q 574 1231 585 1239 q 542 1222 564 1224 q 505 1218 519 1220 q 486 1208 491 1216 q 469 1189 480 1200 q 440 1167 458 1178 q 319 1142 380 1130 q 262 1172 285 1149 q 227 1210 239 1195 q 203 1239 215 1226 q 147 1273 172 1273 q 107 1267 122 1273 q 82 1252 93 1260 q 58 1219 62 1233 q 54 1194 54 1205 l 67 1123 "},"*":{"x_min":118.6875,"x_max":878.296875,"ha":972,"o":"m 312 295 l 318 239 q 311 221 318 227 q 277 227 298 204 q 172 291 233 276 q 139 325 139 299 q 151 346 139 339 q 183 356 164 352 q 259 382 242 370 q 294 406 276 394 q 335 435 312 419 l 437 507 q 319 584 370 555 q 265 615 269 613 l 265 615 q 227 622 249 622 l 147 613 q 118 634 118 613 q 143 670 118 648 q 187 717 168 693 q 221 760 206 741 q 290 794 268 826 q 302 751 301 779 q 305 706 303 722 q 327 656 309 667 q 364 629 345 645 q 402 596 383 613 q 472 539 453 551 l 472 585 q 466 754 472 693 q 450 791 464 774 q 427 817 436 808 q 412 833 418 827 q 400 846 406 839 q 387 874 387 860 q 426 902 387 902 l 500 895 q 535 901 520 895 q 564 906 550 906 q 598 880 598 906 q 585 850 597 868 q 562 817 573 833 q 544 789 552 801 q 529 759 529 765 q 526 735 528 754 q 522 689 524 717 q 517 567 517 615 l 634 662 q 699 760 699 720 l 693 824 q 717 853 693 853 q 746 842 733 853 q 772 815 758 831 q 804 781 786 799 q 843 751 821 763 q 878 717 878 732 q 860 696 878 702 q 819 687 843 691 q 735 664 750 678 l 653 606 q 609 573 632 590 q 563 539 586 556 q 520 507 540 522 q 635 431 587 465 q 715 380 682 398 q 777 358 748 362 q 828 352 806 354 q 861 345 851 350 q 872 330 872 340 q 856 297 872 311 q 827 274 840 283 q 803 254 815 264 q 767 218 771 228 l 767 219 q 752 196 763 206 q 731 186 741 186 q 701 219 706 186 l 694 282 q 682 326 691 315 l 517 451 q 522 308 517 358 q 529 249 526 258 q 543 224 531 240 q 569 193 556 208 q 602 144 602 156 q 577 122 602 122 q 560 127 575 122 q 457 138 525 138 l 416 132 q 390 146 390 132 q 417 184 390 155 q 455 226 443 212 q 467 257 467 240 q 468 301 467 273 q 469 359 469 330 l 471 470 q 367 385 403 417 l 331 353 q 312 295 312 337 "},"†":{"x_min":192.671875,"x_max":647.703125,"ha":821,"o":"m 347 -23 q 313 3 313 -23 q 324 29 313 17 q 350 53 336 42 q 375 77 364 65 q 387 97 387 90 l 387 120 l 387 229 l 388 400 q 388 494 388 400 q 387 737 388 648 q 340 730 368 736 q 296 712 312 724 q 265 688 279 700 q 215 657 227 657 q 193 685 187 657 q 205 777 205 731 l 200 847 q 219 872 200 872 q 265 843 240 872 q 326 795 305 795 q 386 798 360 795 l 384 887 q 381 937 383 929 q 372 951 379 944 q 357 965 366 959 q 305 1008 314 999 q 295 1032 295 1017 q 317 1054 295 1054 q 367 1049 339 1054 q 425 1044 396 1044 l 507 1052 q 538 1026 538 1052 q 461 956 538 1003 q 448 940 448 948 l 448 802 l 500 807 q 569 847 529 810 q 596 872 583 861 q 621 883 608 883 q 643 843 643 883 l 639 766 l 647 699 q 621 666 647 666 q 594 678 607 666 q 569 705 582 691 q 499 744 533 744 q 448 741 489 744 l 449 526 q 453 131 449 173 q 467 76 457 90 q 489 52 477 63 q 517 2 517 23 q 489 -19 517 -19 l 411 -14 l 347 -23 "},"°":{"x_min":46.125,"x_max":422.53125,"ha":480,"o":"m 289 796 q 249 789 267 790 q 224 787 232 787 q 199 789 216 787 q 162 798 182 792 q 121 818 142 805 q 84 851 101 830 q 46 975 46 900 q 101 1112 46 1052 q 271 1170 169 1186 q 413 1042 380 1153 q 422 967 422 1009 q 409 895 422 924 q 377 846 397 866 q 334 814 358 826 q 289 796 311 803 m 152 873 q 190 852 170 858 q 228 845 210 845 q 269 850 246 845 q 311 868 292 855 q 358 973 358 901 q 313 1089 358 1052 q 245 1114 281 1114 q 186 1103 209 1114 q 147 1074 164 1092 q 112 987 112 1034 q 124 914 112 940 q 152 873 135 889 "},"å":{"x_min":85.15625,"x_max":1095.328125,"ha":1055,"o":"m 923 2 q 900 46 891 2 q 910 151 918 129 l 785 347 q 709 474 749 404 q 651 335 678 389 q 578 225 624 280 q 488 130 532 169 q 216 -2 339 -2 q 112 40 151 -2 q 96 191 67 92 q 286 430 136 322 q 576 564 422 528 q 650 577 617 574 q 554 754 576 708 q 519 777 541 769 q 424 812 436 805 q 413 829 413 819 q 448 862 413 851 q 556 916 509 878 q 607 939 582 939 q 632 912 632 939 l 607 830 q 609 783 600 800 l 752 518 q 925 238 846 351 q 968 188 953 198 q 1005 170 984 179 q 1047 153 1027 161 q 1095 115 1095 132 q 1061 83 1095 96 q 1005 55 1026 69 q 970 29 984 41 q 946 9 956 17 q 923 2 935 2 m 166 181 q 158 134 158 151 q 162 104 158 116 q 173 82 166 92 q 213 62 191 62 q 305 83 254 62 q 398 134 357 103 q 477 205 438 165 q 605 380 560 291 q 668 522 646 457 q 439 453 560 513 q 252 316 328 398 q 166 181 186 244 m 611 1028 q 571 1021 589 1023 q 546 1020 554 1020 q 521 1022 538 1020 q 484 1030 504 1024 q 443 1046 464 1036 q 406 1076 423 1057 q 368 1181 368 1117 q 423 1299 368 1248 q 593 1349 491 1362 q 735 1238 703 1334 q 744 1173 744 1209 q 731 1111 744 1136 q 699 1069 719 1086 q 656 1043 680 1052 q 611 1028 633 1033 m 671 1181 q 659 1232 671 1212 q 629 1264 646 1253 q 565 1286 597 1286 q 512 1277 533 1286 q 475 1255 491 1269 q 444 1191 444 1225 q 484 1102 444 1136 q 580 1082 525 1068 q 671 1181 671 1103 "},"0":{"x_min":91.5625,"x_max":746.734375,"ha":846,"o":"m 568 -21 q 368 -53 490 -82 q 221 43 286 -33 q 92 497 105 179 q 91 519 91 508 l 91 542 q 185 946 91 786 q 291 1063 229 1021 q 417 1106 353 1106 q 532 1076 481 1106 q 625 983 583 1047 q 741 577 716 847 q 722 255 758 402 q 568 -21 675 61 m 403 1024 l 373 1027 q 297 980 343 1027 q 214 851 241 923 q 162 529 162 708 q 335 32 162 147 q 435 -2 388 -3 q 524 31 482 -2 q 600 126 566 64 q 674 579 696 301 q 597 895 657 777 q 493 1018 554 981 q 457 1034 471 1032 q 442 1038 457 1034 q 420 1031 432 1038 q 403 1024 407 1024 "},"”":{"x_min":146.140625,"x_max":733.421875,"ha":865,"o":"m 193 1168 l 272 1162 q 344 1167 327 1162 q 367 1172 360 1172 q 398 1149 398 1172 q 388 1123 398 1138 q 361 1075 379 1108 q 320 1005 344 1042 q 206 878 261 913 q 156 884 178 858 q 146 908 146 897 q 151 921 146 918 q 173 937 157 925 q 207 964 190 949 q 249 1021 249 1004 q 236 1053 249 1039 q 209 1086 224 1067 q 187 1116 194 1105 q 175 1134 180 1127 q 171 1151 171 1142 q 193 1168 171 1168 m 528 1168 l 607 1162 q 679 1167 662 1162 q 702 1172 695 1172 q 733 1149 733 1172 q 723 1123 733 1138 q 696 1075 714 1108 q 655 1005 679 1042 q 541 878 596 913 q 491 884 513 858 q 481 908 481 897 q 486 921 481 918 q 508 937 492 925 q 542 964 525 949 q 584 1021 584 1004 q 571 1053 584 1039 q 544 1086 559 1067 q 522 1116 529 1105 q 510 1134 515 1127 q 506 1151 506 1142 q 528 1168 506 1168 "},"\u0013":{"x_min":0,"x_max":0,"ha":0},"Ķ":{"x_min":88.171875,"x_max":973.25,"ha":946,"o":"m 124 -69 q 88 -42 88 -69 q 119 9 88 -23 q 164 59 150 42 q 180 89 179 75 q 217 971 225 667 q 168 1039 217 994 q 140 1066 154 1051 q 126 1095 126 1080 q 152 1116 126 1116 l 238 1108 q 301 1112 276 1108 q 342 1115 326 1115 q 377 1092 377 1115 q 348 1054 377 1077 q 282 977 282 1001 l 283 914 q 274 585 283 735 l 271 529 q 507 739 377 617 q 728 954 669 894 q 750 1053 742 979 q 779 1091 756 1091 q 804 1078 793 1091 q 826 1046 814 1065 q 883 971 861 988 q 912 916 931 934 q 870 907 902 907 q 771 897 805 918 l 771 897 q 543 697 741 880 q 322 493 345 514 q 790 112 537 305 q 860 98 822 100 q 924 94 898 96 q 962 88 950 92 q 973 72 973 83 q 969 54 973 61 q 958 42 965 47 l 928 21 q 881 -39 900 -4 q 852 -85 861 -74 q 832 -96 844 -96 q 801 -63 808 -96 q 774 18 792 -22 q 750 65 755 60 l 729 82 q 281 455 401 348 l 265 440 q 247 147 247 187 q 250 90 247 107 q 259 56 252 73 q 291 0 274 21 q 318 -44 318 -33 q 277 -67 318 -67 l 174 -61 q 148 -64 156 -61 q 124 -69 134 -69 m 670 -59 q 660 -85 670 -70 q 637 -127 651 -100 q 602 -183 622 -153 q 498 -289 552 -257 q 448 -283 468 -307 q 438 -260 438 -271 q 442 -246 438 -249 q 459 -240 447 -244 q 485 -229 472 -236 q 521 -183 521 -212 q 508 -155 521 -169 q 481 -122 495 -141 q 446 -73 451 -83 q 465 -40 430 -40 l 544 -46 q 618 -40 599 -46 q 670 -59 670 -25 "},"ö":{"x_min":99.234375,"x_max":763.890625,"ha":863,"o":"m 528 92 q 459 78 489 81 q 414 75 428 75 q 370 79 400 75 q 305 95 340 83 q 233 129 270 107 q 167 189 196 152 q 99 408 99 273 q 184 636 99 537 q 356 744 262 729 q 497 750 416 763 q 640 690 574 738 q 747 526 715 636 q 763 393 763 468 q 741 266 763 318 q 684 179 719 214 q 608 123 649 144 q 528 92 567 103 m 323 158 q 375 142 350 147 q 414 138 401 138 q 452 141 428 138 q 508 152 477 143 q 572 178 539 161 q 634 223 606 194 q 698 394 698 288 q 542 671 698 610 q 300 651 424 717 q 270 636 283 642 q 192 532 222 603 q 167 411 167 471 q 181 309 167 351 q 217 238 195 267 q 267 188 239 208 q 323 158 295 169 m 519 1029 q 550 1025 525 1029 q 667 1020 576 1020 q 704 997 704 1020 q 682 955 704 980 q 625 891 630 900 q 583 874 606 859 q 573 886 577 878 q 561 905 569 894 q 542 929 553 915 q 494 1009 494 991 q 519 1029 494 1029 m 390 997 q 367 955 390 978 q 310 891 316 901 q 255 887 282 846 l 201 966 q 206 1029 159 1029 l 243 1025 q 342 1020 294 1020 q 390 997 390 1020 "},"ǽ":{"x_min":55.9375,"x_max":1287.265625,"ha":1274,"o":"m 746 4 l 755 88 q 752 117 755 107 q 706 198 748 126 q 587 413 663 270 q 426 154 534 265 q 170 12 287 12 q 80 52 114 12 q 66 193 40 101 q 152 344 88 269 q 383 507 238 443 q 514 549 453 537 q 390 791 417 732 q 360 812 381 805 q 278 845 290 838 q 267 861 267 852 q 295 890 267 881 q 344 912 324 900 q 380 936 364 925 q 459 935 459 992 q 451 895 459 917 q 439 815 427 836 q 465 765 451 794 q 497 701 480 735 q 571 555 522 651 q 608 483 621 550 l 617 464 q 754 774 617 663 q 981 867 867 867 q 1163 824 1085 867 q 1259 661 1259 773 q 1141 474 1259 529 q 1077 458 1105 458 q 975 468 1007 458 q 920 480 944 478 q 879 484 896 482 q 854 490 863 485 q 845 504 845 494 q 856 530 845 515 q 882 560 868 544 q 924 611 922 607 q 929 621 926 616 q 937 630 933 626 q 978 632 961 652 q 995 572 987 621 q 1008 522 1003 524 q 1018 519 1012 521 q 1032 516 1024 518 q 1111 522 1087 510 q 1152 554 1135 535 q 1185 702 1210 615 q 1089 790 1167 763 q 985 804 1048 804 q 868 777 923 804 q 771 706 813 751 q 679 482 679 609 q 760 292 679 364 q 970 220 839 220 q 1161 268 1112 220 q 1194 313 1181 287 q 1211 345 1206 338 q 1225 353 1217 353 q 1241 347 1233 353 q 1249 329 1249 341 q 1251 303 1249 317 q 1258 275 1254 289 q 1276 228 1265 247 q 1287 198 1287 209 q 1257 172 1287 172 q 1218 186 1247 172 q 1186 200 1188 200 l 1108 176 q 817 186 957 139 q 761 210 788 196 l 770 198 q 790 167 782 179 q 807 148 797 154 q 836 133 817 141 q 874 118 856 126 q 919 83 919 98 q 887 50 919 69 q 804 0 813 8 q 769 -23 786 -23 q 746 4 746 -23 m 133 92 q 179 73 147 73 q 249 90 210 73 q 324 137 287 107 q 396 206 361 166 q 461 290 431 245 q 554 472 523 382 l 539 500 q 276 379 402 479 q 128 185 156 285 q 133 92 110 124 m 978 1136 l 911 1145 q 892 1141 900 1145 q 864 1125 884 1138 q 824 1098 843 1112 q 769 1058 777 1066 q 731 1039 750 1039 q 705 1048 713 1039 q 696 1067 696 1057 q 722 1106 696 1091 q 852 1202 748 1121 q 866 1245 859 1206 q 908 1313 881 1313 q 931 1301 924 1313 q 946 1270 939 1289 q 961 1231 952 1252 q 983 1196 970 1209 q 1009 1157 1009 1169 q 978 1136 1009 1136 "},"Õ":{"x_min":71.21875,"x_max":907.46875,"ha":984,"o":"m 786 120 q 655 8 731 46 q 510 -29 579 -29 q 389 -15 441 -29 q 291 26 338 -2 q 204 99 244 54 q 134 207 164 144 q 71 536 71 343 q 190 919 71 771 q 497 1066 309 1066 q 782 956 675 1066 q 907 551 907 826 q 786 120 907 280 m 489 35 q 570 45 531 35 q 647 78 609 54 q 719 139 685 101 q 779 234 753 177 q 836 550 836 360 q 596 990 836 925 q 502 1005 537 1005 q 428 997 467 1005 q 349 969 389 988 q 271 916 309 949 q 204 834 233 883 q 139 563 139 725 q 324 83 139 200 q 489 35 397 37 m 308 1175 q 290 1150 308 1150 q 266 1159 279 1150 q 249 1178 254 1169 q 238 1197 244 1188 q 222 1215 232 1207 q 178 1241 201 1234 q 140 1268 140 1251 q 149 1285 140 1277 q 169 1293 157 1293 l 190 1292 q 245 1303 235 1294 q 266 1325 256 1312 q 293 1352 277 1338 q 391 1386 334 1386 q 496 1332 453 1386 q 519 1302 507 1317 q 597 1253 558 1253 q 665 1276 639 1253 q 669 1377 688 1298 q 673 1410 665 1400 q 690 1420 681 1420 q 719 1398 707 1419 q 795 1333 750 1350 q 826 1302 826 1320 q 815 1283 826 1291 q 783 1274 805 1276 q 746 1270 760 1272 q 727 1260 732 1268 q 710 1241 721 1252 q 681 1219 699 1230 q 560 1194 621 1182 q 503 1224 526 1201 q 468 1262 480 1247 q 444 1291 456 1278 q 388 1325 413 1325 q 348 1319 363 1325 q 323 1304 334 1312 q 299 1271 303 1285 q 295 1246 295 1257 l 308 1175 "},"№":{"x_min":59,"x_max":1594.5,"ha":1684,"o":"m 272 14 q 209 0 272 -12 q 78 10 162 10 q 59 27 59 10 q 79 57 59 47 q 111 76 99 67 q 128 97 122 86 q 148 180 141 120 q 161 290 155 240 q 173 399 166 339 q 186 519 179 459 q 198 637 192 580 q 209 740 204 695 q 220 846 220 840 q 214 864 221 852 q 199 888 208 876 q 155 925 177 916 q 123 960 123 940 q 131 977 123 969 q 154 984 140 984 l 251 978 q 304 982 281 978 q 348 986 328 986 q 369 967 369 986 q 346 935 369 946 q 310 913 323 925 q 289 891 297 902 q 276 864 276 874 q 584 351 301 796 q 757 88 723 132 l 813 878 q 795 923 813 897 q 760 970 777 948 q 744 1005 744 992 q 764 1022 744 1022 q 809 1018 785 1022 q 865 1013 832 1013 l 936 1017 q 942 969 990 1017 l 916 944 q 883 899 889 914 q 874 852 877 885 q 866 766 870 819 q 857 646 862 713 q 847 506 852 579 q 837 362 842 434 q 830 229 833 290 q 822 50 822 92 l 823 27 q 811 -13 823 -1 q 789 -25 800 -25 q 764 -18 771 -25 q 742 10 757 -11 q 704 68 728 32 q 650 152 680 105 q 585 253 619 200 q 516 363 552 306 q 445 474 480 419 q 381 578 411 529 q 326 667 350 628 q 270 767 276 752 q 206 153 206 167 l 206 135 q 218 90 206 107 q 245 56 218 90 q 272 14 272 23 m 988 554 q 970 671 970 605 q 989 791 970 737 q 1039 885 1007 845 q 1207 984 1106 970 q 1344 991 1266 1003 q 1479 935 1417 980 q 1578 782 1549 885 q 1594 659 1594 729 q 1573 540 1594 589 q 1520 459 1552 492 q 1448 407 1488 427 q 1372 378 1409 388 q 1096 414 1222 336 q 988 554 1021 459 m 1044 728 q 1039 661 1039 699 q 1051 583 1039 622 q 1084 517 1064 545 q 1130 472 1105 490 q 1181 444 1156 454 q 1253 425 1227 425 q 1301 428 1279 425 q 1353 438 1324 430 q 1413 462 1382 446 q 1469 503 1443 477 q 1528 661 1528 563 q 1385 912 1528 855 q 1150 891 1274 957 q 1119 876 1132 882 q 1044 728 1062 830 m 1039 85 q 1015 114 1015 85 q 1018 142 1015 127 q 1022 172 1020 157 q 1028 227 1028 217 l 1022 275 q 1028 292 1022 286 q 1041 299 1034 299 q 1063 286 1049 299 q 1091 260 1077 274 q 1138 221 1132 221 q 1393 234 1261 221 q 1460 276 1420 237 l 1487 303 q 1510 316 1499 316 q 1536 264 1536 316 l 1534 207 q 1540 159 1534 173 q 1547 138 1547 145 q 1511 104 1547 94 q 1478 124 1504 106 q 1395 172 1415 168 l 1185 165 q 1147 163 1163 164 q 1087 122 1123 161 q 1039 85 1052 85 "},"ć":{"x_min":205.140625,"x_max":979.375,"ha":1042,"o":"m 953 207 q 973 59 953 126 q 957 7 990 7 q 924 17 944 7 q 895 35 905 27 q 878 49 886 43 q 786 56 851 71 q 595 29 656 29 q 494 36 533 29 q 416 60 456 43 q 338 106 376 77 q 270 181 300 136 q 205 434 205 279 q 279 659 205 564 q 445 779 340 736 q 619 815 532 815 l 726 806 q 818 844 780 806 q 855 862 835 862 q 873 833 883 862 q 844 685 844 746 q 847 661 844 685 q 842 642 847 651 q 829 634 837 634 q 800 655 815 634 q 776 692 786 676 q 757 720 767 708 q 709 750 735 746 q 613 758 649 758 q 537 748 577 758 q 459 720 497 738 q 387 674 420 701 q 327 613 353 647 q 272 442 272 537 q 301 277 272 346 q 376 166 329 208 q 601 89 462 89 q 711 100 660 89 q 788 119 761 111 q 834 135 816 127 q 862 153 852 144 q 879 173 873 163 l 905 220 q 936 246 919 246 q 953 207 953 246 m 809 1025 l 742 1034 q 723 1030 731 1034 q 694 1014 715 1027 q 655 987 674 1001 q 599 947 608 955 q 562 928 580 928 q 535 937 544 928 q 527 956 527 946 q 553 995 527 980 q 683 1091 579 1010 q 697 1134 690 1095 q 739 1202 711 1202 q 762 1190 755 1202 q 777 1160 770 1178 q 792 1120 783 1141 q 814 1085 801 1098 q 840 1046 840 1058 q 809 1025 840 1025 "},"þ":{"x_min":77.3125,"x_max":735.875,"ha":830,"o":"m 132 -77 q 77 -52 77 -77 q 123 0 77 -37 q 183 88 180 46 l 180 288 l 177 553 q 170 1028 172 1015 q 161 1051 167 1042 q 147 1070 155 1061 l 115 1104 q 84 1149 84 1135 q 111 1171 84 1171 l 177 1163 l 267 1174 q 299 1167 284 1174 q 310 1132 324 1157 q 291 1113 306 1125 q 265 1091 277 1102 q 246 1071 253 1080 q 235 1041 235 1054 l 235 901 q 236 662 235 786 q 339 808 264 757 q 530 849 422 866 q 722 666 679 824 q 735 559 735 619 q 723 459 735 500 q 690 387 710 417 q 644 338 670 358 q 591 307 618 318 q 357 320 475 259 q 240 440 275 363 q 257 56 245 86 q 309 -4 271 25 l 309 -4 q 347 -56 347 -33 q 316 -78 347 -78 l 212 -72 l 132 -77 m 597 383 q 633 420 617 397 q 669 539 669 472 q 659 645 669 607 q 633 709 649 682 q 595 752 616 735 q 553 778 575 769 q 370 755 455 820 q 278 615 301 702 q 282 490 262 554 q 394 365 310 402 q 597 383 503 318 "},"]":{"x_min":135.640625,"x_max":490.359375,"ha":627,"o":"m 490 -168 q 442 -200 490 -200 q 293 -222 330 -200 q 225 -277 243 -252 q 198 -297 211 -297 q 181 -261 183 -297 q 173 -167 179 -191 q 163 -113 163 -126 q 203 -100 163 -77 q 302 -138 269 -138 q 424 -135 379 -135 q 393 500 393 236 l 395 776 q 392 1167 395 896 l 322 1166 q 259 1152 280 1165 q 214 1119 227 1132 q 194 1096 202 1105 q 178 1080 186 1087 q 135 1085 135 1041 l 143 1196 q 145 1271 145 1241 l 144 1308 q 155 1342 144 1342 q 178 1328 164 1342 q 209 1298 192 1313 q 241 1269 225 1282 q 293 1237 276 1240 q 424 1230 325 1230 q 451 1221 440 1230 q 461 1185 461 1213 l 467 559 q 474 70 467 257 q 482 -124 482 -115 l 490 -168 "},"\u0004":{"x_min":0,"x_max":0,"ha":0},"8":{"x_min":101.734375,"x_max":756.21875,"ha":850,"o":"m 101 259 q 115 361 101 318 q 150 438 128 404 q 198 499 171 472 q 252 545 225 525 q 345 601 291 573 q 352 610 352 604 q 336 622 352 615 q 289 652 320 629 q 229 710 258 675 q 160 888 160 793 q 235 1066 160 995 q 425 1136 311 1136 q 610 1074 539 1136 q 685 889 685 1008 q 558 663 685 767 q 501 623 519 631 q 482 611 482 615 q 494 601 482 607 q 531 585 505 596 q 586 558 556 575 q 646 519 615 542 q 700 461 676 495 q 756 276 756 384 q 642 39 756 124 q 370 -28 523 -48 q 165 74 238 -10 q 101 259 101 147 m 421 640 q 541 727 480 669 q 621 876 621 803 q 572 1026 621 974 q 425 1078 523 1078 q 241 968 288 1078 q 225 883 225 931 q 246 795 225 834 q 298 725 267 756 q 421 640 354 667 m 214 414 q 183 346 195 384 q 171 263 171 308 q 186 176 171 217 q 233 102 201 134 q 427 29 303 29 q 621 103 548 29 q 689 273 689 172 q 603 474 689 409 q 502 532 557 510 q 413 569 447 554 q 304 505 325 519 q 259 467 284 491 q 214 414 233 444 "},"R":{"x_min":82.0625,"x_max":937.984375,"ha":985,"o":"m 160 -44 q 82 -28 82 -64 q 103 8 82 -12 q 136 42 124 29 q 153 68 147 56 q 168 140 167 94 q 170 226 169 186 q 172 317 171 266 q 174 424 173 368 q 176 539 175 480 q 177 653 177 598 q 178 936 181 909 q 168 976 175 963 q 151 1002 161 990 q 129 1024 141 1013 q 108 1041 116 1034 q 95 1063 95 1053 q 111 1073 95 1073 l 140 1072 q 275 1080 226 1072 q 335 1087 324 1087 q 346 1079 346 1087 q 332 1056 346 1070 q 260 976 278 1002 q 241 946 242 950 q 239 930 240 942 q 238 904 238 919 q 237 870 237 888 q 236 835 236 852 q 235 775 235 784 q 348 932 263 849 q 484 1017 408 990 q 647 1021 555 1042 q 774 916 735 1001 q 794 807 794 872 q 775 698 794 742 q 726 622 756 655 q 655 566 695 590 q 574 526 615 543 l 420 469 q 796 96 777 102 q 852 90 818 88 q 900 90 885 92 q 937 75 937 88 q 908 33 937 63 q 822 -73 845 -26 q 800 -104 810 -96 q 784 -111 790 -111 q 753 13 753 -111 q 748 43 753 40 q 726 64 743 47 q 682 109 708 82 q 622 171 655 137 q 554 241 589 205 q 485 313 519 278 q 424 375 452 347 q 352 448 361 440 q 333 471 343 455 q 324 496 324 486 q 352 520 324 516 q 419 533 379 524 q 501 556 459 541 q 583 593 543 571 q 656 645 624 615 q 727 804 727 713 q 687 934 727 894 q 562 973 646 973 q 400 903 478 973 q 254 687 309 820 q 235 634 240 654 l 235 101 q 252 70 235 85 q 305 18 297 29 q 318 0 314 8 q 305 -42 348 -42 l 230 -37 q 160 -44 187 -37 "},"o":{"x_min":92.234375,"x_max":756.890625,"ha":850,"o":"m 521 92 q 452 78 482 81 q 407 75 421 75 q 363 79 393 75 q 298 95 333 83 q 226 129 263 107 q 160 189 189 152 q 92 408 92 273 q 177 636 92 537 q 349 744 255 729 q 490 750 409 763 q 633 690 567 738 q 740 526 708 636 q 756 393 756 468 q 734 266 756 318 q 677 179 712 214 q 601 123 642 144 q 521 92 560 103 m 316 158 q 368 142 343 147 q 407 138 394 138 q 445 141 421 138 q 501 152 470 143 q 565 178 532 161 q 627 223 599 194 q 691 394 691 288 q 535 671 691 610 q 293 651 417 717 q 263 636 276 642 q 185 532 215 603 q 160 411 160 471 q 174 309 160 351 q 210 238 188 267 q 260 188 232 208 q 316 158 288 169 "},"5":{"x_min":31.875,"x_max":803.015625,"ha":905,"o":"m 95 140 q 31 164 31 140 q 50 189 31 179 q 88 212 69 198 q 124 242 107 226 q 171 297 160 276 q 192 318 182 318 q 211 309 203 318 q 219 286 219 299 l 203 184 q 216 169 206 181 q 241 144 225 158 q 278 114 257 130 q 328 85 300 99 q 453 55 390 55 q 565 74 516 55 q 653 128 615 93 q 737 326 737 206 q 595 580 737 524 q 494 599 547 599 q 408 593 440 599 q 353 579 377 588 q 311 559 328 570 q 280 540 293 549 q 199 533 227 505 q 185 567 185 547 l 191 613 q 194 755 194 701 l 194 840 q 192 976 194 942 l 191 1017 q 198 1062 189 1056 q 242 1070 210 1070 q 328 1069 292 1069 q 601 1067 577 1067 q 648 1083 626 1067 q 691 1122 670 1100 q 724 1144 712 1144 q 735 1114 735 1144 l 731 1070 q 737 1022 731 1048 q 727 948 753 948 q 694 967 708 948 q 655 998 680 986 q 604 1009 630 1009 l 422 1009 q 262 1010 350 1009 q 255 652 255 707 q 265 598 255 598 q 287 609 269 598 q 320 628 305 621 q 358 643 335 636 q 603 644 484 682 q 775 484 723 604 q 803 336 803 421 q 773 188 803 250 q 695 83 744 126 q 450 -4 596 -4 q 248 58 341 -4 q 189 104 212 82 q 157 131 166 126 q 122 141 143 141 l 95 140 "},"ħ":{"x_min":42.34375,"x_max":855.03125,"ha":904,"o":"m 230 22 l 156 15 q 136 31 136 15 q 146 63 136 48 q 169 93 157 78 q 202 162 202 134 q 223 921 202 168 l 178 918 q 126 890 152 913 q 87 857 100 867 q 65 847 75 847 q 44 880 35 847 q 61 997 61 947 l 57 1041 q 71 1061 57 1061 q 110 1032 83 1061 q 173 978 162 978 l 224 978 q 225 1070 225 1036 l 225 1095 q 177 1155 225 1110 q 157 1174 166 1165 q 147 1193 147 1183 q 172 1210 147 1210 q 224 1213 198 1210 q 275 1218 251 1215 q 345 1226 341 1226 q 335 1158 392 1226 q 289 1085 292 1106 q 285 978 286 1069 l 368 979 q 438 1017 398 979 q 465 1042 452 1030 q 491 1053 478 1053 q 513 1015 513 1053 l 507 942 q 510 918 507 936 l 515 891 q 491 841 524 841 q 475 849 485 841 q 447 872 465 857 q 419 893 428 886 q 402 906 410 901 q 359 917 384 917 q 284 920 334 917 l 281 751 q 280 620 280 671 q 364 725 310 681 q 490 777 426 777 q 649 668 597 777 q 689 555 678 610 q 714 419 699 501 q 756 191 752 204 q 768 166 760 179 q 788 143 777 154 q 828 109 813 117 q 845 66 870 88 q 778 48 836 59 q 705 30 720 38 q 671 19 683 19 q 653 60 636 19 l 675 108 q 692 165 691 151 q 691 195 693 178 q 686 237 689 212 q 678 291 682 261 q 670 349 674 320 q 631 545 645 501 q 604 616 617 589 q 573 666 591 644 q 480 713 534 713 q 366 648 416 713 q 284 465 312 580 q 269 311 271 413 l 265 161 q 324 63 265 126 q 335 37 335 51 q 314 17 335 17 l 230 22 "},"õ":{"x_min":99.234375,"x_max":763.890625,"ha":863,"o":"m 528 92 q 459 78 489 81 q 414 75 428 75 q 370 79 400 75 q 305 95 340 83 q 233 129 270 107 q 167 189 196 152 q 99 408 99 273 q 184 636 99 537 q 356 744 262 729 q 497 750 416 763 q 640 690 574 738 q 747 526 715 636 q 763 393 763 468 q 741 266 763 318 q 684 179 719 214 q 608 123 649 144 q 528 92 567 103 m 323 158 q 375 142 350 147 q 414 138 401 138 q 452 141 428 138 q 508 152 477 143 q 572 178 539 161 q 634 223 606 194 q 698 394 698 288 q 542 671 698 610 q 300 651 424 717 q 270 636 283 642 q 192 532 222 603 q 167 411 167 471 q 181 309 167 351 q 217 238 195 267 q 267 188 239 208 q 323 158 295 169 m 289 919 q 264 872 289 872 q 239 882 251 872 q 223 909 227 893 q 150 984 209 957 q 129 1008 129 995 q 140 1031 129 1022 q 162 1040 150 1040 l 220 1032 q 246 1037 238 1032 q 265 1048 255 1041 q 289 1062 276 1055 q 394 1073 346 1090 q 447 1046 433 1061 q 465 1019 460 1030 q 476 997 470 1008 q 550 946 506 946 q 608 1001 601 946 q 610 1034 610 1017 l 609 1057 q 619 1088 609 1077 q 639 1099 629 1099 q 668 1077 660 1099 q 692 1038 677 1056 q 723 1007 708 1021 q 749 983 738 993 q 761 960 761 972 q 749 939 761 949 q 721 930 738 930 l 673 935 q 650 929 656 935 q 634 916 644 923 q 609 902 624 909 q 489 896 544 873 q 415 972 446 913 q 339 1020 390 1020 q 297 993 312 1020 q 287 955 287 976 l 289 919 "},",":{"x_min":134.28125,"x_max":386.59375,"ha":505,"o":"m 386 130 q 378 107 386 120 q 360 76 370 95 q 337 35 350 58 q 308 -12 324 12 q 274 -61 293 -37 q 144 -134 183 -180 q 134 -110 134 -121 q 140 -96 134 -99 q 161 -80 145 -92 q 194 -52 177 -68 q 237 3 237 -14 q 224 34 237 21 q 197 67 212 48 q 175 97 183 86 q 164 115 167 108 q 158 132 158 124 q 181 150 158 150 l 261 144 q 334 149 316 144 q 386 130 386 164 "},"d":{"x_min":74.609375,"x_max":721.578125,"ha":756,"o":"m 539 -76 q 511 -50 511 -76 q 526 -4 511 -40 q 550 62 550 51 q 546 84 550 73 q 523 195 537 112 q 390 78 482 103 q 240 86 323 60 q 89 223 127 122 q 74 323 74 263 q 97 430 74 383 q 157 508 120 478 q 330 570 229 570 q 457 524 397 570 q 493 487 476 508 q 496 936 479 719 q 432 1039 496 967 q 417 1069 417 1056 q 440 1091 417 1091 q 490 1085 463 1091 q 543 1079 516 1079 l 608 1085 q 639 1077 626 1085 q 653 1055 653 1069 q 631 1020 653 1042 q 569 949 576 961 q 558 916 561 937 q 553 862 555 895 q 562 377 539 638 q 611 92 578 198 q 648 59 617 71 q 697 38 690 43 q 703 -12 742 5 q 641 -33 693 -16 q 577 -59 589 -50 q 539 -76 556 -76 m 141 317 q 151 251 141 280 q 178 202 162 223 q 215 168 194 181 q 258 146 236 154 q 439 176 371 103 q 487 318 487 227 q 435 462 487 408 q 325 510 388 510 q 192 451 244 510 q 141 317 141 396 "},"\"":{"x_min":159.84375,"x_max":653.0625,"ha":778,"o":"m 297 1112 q 338 1079 354 1112 q 320 1057 334 1071 q 298 1028 307 1042 q 285 1003 289 1015 q 276 946 282 992 l 272 788 q 265 732 278 750 q 240 714 252 714 q 221 725 229 714 q 215 785 207 745 l 219 959 q 207 1015 214 988 q 185 1053 200 1041 q 170 1106 143 1085 q 194 1114 181 1114 l 265 1110 l 297 1112 m 608 1112 q 649 1079 665 1112 q 631 1057 645 1071 q 609 1028 618 1042 q 596 1003 600 1015 q 587 946 593 992 l 583 788 q 576 732 589 750 q 551 714 563 714 q 532 725 540 714 q 526 785 518 745 l 530 959 q 518 1015 525 988 q 496 1053 511 1041 q 481 1106 454 1085 q 505 1114 492 1114 l 576 1110 l 608 1112 "},"˙":{"x_min":164.8125,"x_max":380.265625,"ha":463,"o":"m 340 1063 q 370 1024 400 1063 l 295 933 q 247 931 269 885 l 196 995 q 164 1052 164 1039 q 189 1072 164 1072 q 321 1062 268 1062 l 340 1063 "},"ê":{"x_min":82.75,"x_max":876.9375,"ha":937,"o":"m 876 111 q 836 86 876 73 q 758 102 771 106 q 721 87 744 97 q 666 65 697 76 q 419 44 555 27 q 238 104 322 55 q 103 270 143 159 q 82 406 82 328 q 103 545 82 484 q 158 654 124 606 q 238 737 193 702 q 332 794 283 771 q 630 828 470 860 q 802 720 748 804 q 830 622 830 677 q 818 534 830 568 q 788 475 807 500 q 745 433 769 450 q 695 406 720 417 q 617 387 649 387 q 502 399 541 387 q 436 414 463 411 q 389 417 408 416 q 360 422 370 418 q 350 437 350 427 q 370 473 350 456 q 444 558 417 514 q 501 581 475 606 q 512 539 509 575 q 542 458 517 470 q 623 448 560 448 q 709 492 664 448 q 758 596 758 540 q 511 778 758 778 q 260 667 368 778 q 153 413 153 556 q 244 181 153 264 q 495 101 334 101 q 710 154 640 101 q 752 203 739 175 q 773 246 765 231 q 788 272 781 262 q 806 282 796 282 q 821 277 815 282 q 829 267 826 273 q 834 238 830 264 q 856 156 845 177 q 876 111 876 121 m 389 959 l 391 943 q 371 904 391 914 q 299 970 348 890 q 273 992 293 980 q 246 1011 253 1003 q 239 1030 239 1018 q 279 1054 239 1054 l 334 1049 q 425 1093 371 1049 q 489 1144 456 1119 q 530 1171 523 1169 q 544 1173 536 1173 q 574 1161 563 1173 q 674 1064 616 1106 q 711 1037 692 1050 q 764 1015 734 1022 q 804 1005 794 1009 q 830 980 830 996 q 806 949 830 962 q 763 922 772 931 q 746 904 755 914 q 728 885 736 893 q 699 865 708 865 q 682 874 690 865 q 675 898 675 883 l 676 925 q 664 983 676 957 q 538 1088 543 1083 q 467 1048 504 1077 q 411 1007 430 1020 q 389 959 389 989 "},"„":{"x_min":146.140625,"x_max":710.421875,"ha":876,"o":"m 193 150 l 272 144 q 344 149 327 144 q 367 154 360 154 q 398 131 398 154 q 388 105 398 120 q 361 57 379 90 q 320 -12 344 24 q 206 -139 261 -104 q 156 -133 178 -159 q 146 -109 146 -120 q 151 -96 146 -99 q 173 -80 157 -92 q 207 -53 190 -68 q 249 3 249 -13 q 236 35 249 21 q 209 68 224 49 q 187 98 194 87 q 175 116 180 109 q 171 133 171 124 q 193 150 171 150 m 505 150 l 584 144 q 656 149 639 144 q 679 154 672 154 q 710 131 710 154 q 700 105 710 120 q 673 57 691 90 q 632 -12 656 24 q 518 -139 573 -104 q 468 -133 490 -159 q 458 -109 458 -120 q 463 -96 458 -99 q 485 -80 469 -92 q 519 -53 502 -68 q 561 3 561 -13 q 548 35 561 21 q 521 68 536 49 q 499 98 506 87 q 487 116 492 109 q 483 133 483 124 q 505 150 483 150 "},"Â":{"x_min":55.609375,"x_max":1206.65625,"ha":1287,"o":"m 271 -51 q 244 -76 271 -76 q 209 -63 224 -76 q 168 -38 193 -49 q 118 -17 143 -27 q 55 21 55 7 q 77 49 55 35 q 115 68 99 64 q 147 79 132 73 q 207 142 179 92 q 377 499 256 235 l 247 499 q 210 496 223 499 q 180 480 197 494 q 147 452 162 467 q 119 425 132 437 q 94 413 106 413 q 75 461 64 413 q 84 546 84 498 l 81 602 q 107 653 81 653 q 137 632 120 653 q 225 558 194 558 l 403 554 q 621 1051 604 993 q 638 1144 638 1110 q 649 1158 638 1153 q 670 1163 659 1163 q 702 1136 694 1163 q 732 1047 711 1109 q 779 906 752 986 q 902 552 857 676 q 1051 559 1031 549 q 1085 581 1070 569 q 1125 621 1112 602 q 1146 643 1138 640 q 1162 646 1155 646 q 1184 600 1197 646 q 1169 517 1170 556 q 1168 452 1169 478 q 1163 410 1167 425 q 1142 394 1159 394 q 1128 399 1137 394 q 1117 413 1120 404 l 1098 453 q 1039 499 1079 492 l 921 499 q 1096 81 1056 118 q 1123 64 1108 69 q 1149 54 1138 59 q 1170 46 1159 50 q 1189 40 1181 43 q 1197 5 1219 27 q 1143 -18 1188 -2 q 1082 -42 1098 -35 l 1005 -78 q 963 -65 963 -94 q 968 -33 963 -44 q 979 -8 973 -23 q 991 23 985 6 q 1003 98 1009 78 q 857 499 978 159 l 446 499 q 237 60 335 260 q 241 26 231 46 q 271 -51 271 -30 m 471 554 q 838 551 653 551 l 745 815 q 673 1016 680 998 q 471 554 617 869 m 520 1206 l 522 1190 q 502 1151 522 1161 q 429 1217 478 1137 q 404 1239 424 1227 q 377 1258 384 1250 q 370 1277 370 1265 q 410 1301 370 1301 l 465 1297 q 556 1341 501 1297 q 650 1411 586 1366 q 690 1412 667 1432 q 730 1379 712 1393 q 766 1354 748 1366 q 853 1309 788 1341 q 906 1299 876 1300 q 947 1295 935 1298 q 974 1272 974 1288 q 959 1244 974 1255 q 918 1208 927 1220 l 887 1164 q 861 1141 872 1141 q 834 1174 837 1141 q 821 1233 828 1223 q 810 1251 815 1244 q 740 1292 775 1272 q 668 1335 704 1312 l 597 1292 q 542 1255 589 1286 q 520 1206 520 1236 "},"\u0012":{"x_min":0,"x_max":0,"ha":0},"Í":{"x_min":108.03125,"x_max":420.6875,"ha":472,"o":"m 204 0 l 155 -6 q 118 22 118 -6 q 127 44 119 33 q 145 65 136 54 q 165 89 153 76 q 185 112 176 101 q 205 150 205 139 l 208 622 q 204 912 208 784 q 158 976 204 933 q 119 1033 119 1013 q 177 1047 119 1062 q 272 1044 226 1035 q 342 1052 319 1052 q 364 1033 364 1052 q 341 1001 364 1019 q 303 968 318 983 q 281 941 288 953 q 270 898 270 923 l 273 567 l 266 180 l 266 160 q 267 134 266 150 q 285 96 268 118 q 316 56 303 74 q 337 16 337 28 q 300 -5 337 -5 l 204 0 m 390 1210 l 323 1219 q 304 1215 312 1219 q 275 1199 295 1211 q 236 1173 255 1186 q 180 1132 188 1140 q 143 1113 161 1113 q 116 1122 124 1113 q 108 1142 108 1131 q 134 1180 108 1165 q 264 1276 160 1195 q 278 1319 270 1280 q 320 1387 292 1387 q 343 1375 335 1387 q 357 1344 350 1363 q 373 1305 364 1326 q 394 1270 382 1283 q 420 1231 420 1243 q 390 1210 420 1210 "},"´":{"x_min":102.40625,"x_max":415.078125,"ha":539,"o":"m 384 1098 l 317 1107 q 298 1103 306 1107 q 269 1087 290 1100 q 230 1060 249 1074 q 174 1020 183 1028 q 137 1001 155 1001 q 110 1010 119 1001 q 102 1029 102 1019 q 128 1068 102 1053 q 258 1164 154 1083 q 272 1207 265 1168 q 314 1275 286 1275 q 337 1263 330 1275 q 352 1233 345 1251 q 367 1193 358 1214 q 389 1158 376 1171 q 415 1119 415 1131 q 384 1098 415 1098 "},"Ú":{"x_min":22.375,"x_max":1008.515625,"ha":1049,"o":"m 1008 1088 q 994 1064 1008 1081 q 968 1029 980 1047 q 938 953 939 984 q 935 881 937 923 q 932 789 934 839 q 926 682 929 738 q 916 572 922 626 q 889 401 903 450 q 862 310 876 352 q 828 225 849 269 q 777 141 807 182 q 708 66 748 99 q 492 -6 617 -6 q 274 93 358 -6 q 151 463 171 215 l 112 876 q 101 918 109 906 q 60 959 87 935 q 27 992 33 983 q 22 1008 22 1001 q 65 1032 22 1032 l 100 1029 l 205 1049 q 257 1037 257 1058 q 241 1008 257 1024 q 215 976 225 992 q 197 943 204 960 q 181 882 181 906 q 183 818 181 858 q 189 723 185 777 q 235 327 211 421 q 293 177 259 233 q 496 56 366 56 q 781 278 691 56 q 877 945 877 515 q 868 986 877 973 q 832 1026 857 1001 q 793 1078 793 1063 q 833 1093 793 1093 l 900 1090 q 948 1097 930 1090 q 1008 1088 1008 1119 m 653 1210 l 586 1219 q 567 1215 575 1219 q 538 1199 558 1211 q 499 1173 518 1186 q 443 1132 451 1140 q 406 1113 424 1113 q 379 1122 387 1113 q 371 1142 371 1131 q 397 1180 371 1165 q 527 1276 423 1195 q 541 1319 533 1280 q 583 1387 555 1387 q 606 1375 598 1387 q 620 1344 613 1363 q 636 1305 627 1326 q 657 1270 645 1283 q 683 1231 683 1243 q 653 1210 683 1210 "},"Ý":{"x_min":16.28125,"x_max":940.6875,"ha":957,"o":"m 368 -54 q 345 -35 345 -54 q 383 20 345 -14 q 434 96 434 64 l 436 320 q 430 495 436 436 l 229 787 q 146 906 191 843 q 112 932 131 926 q 81 940 92 938 q 59 945 69 942 q 39 951 48 947 q 16 978 16 961 q 50 1007 16 993 q 110 1034 84 1021 q 153 1059 135 1048 q 206 1082 193 1082 q 227 1062 227 1082 q 220 1038 227 1050 q 208 1015 214 1026 q 194 951 182 966 q 379 672 302 779 q 472 545 457 564 q 747 971 625 756 q 757 1021 762 999 q 750 1054 752 1043 q 763 1130 732 1130 q 791 1112 769 1130 q 829 1082 813 1094 q 894 1043 871 1051 q 940 1000 940 1026 q 891 975 940 976 q 819 950 834 973 q 782 893 805 927 q 732 819 759 859 q 676 734 706 779 q 617 642 647 689 q 503 457 553 541 q 500 340 500 387 l 500 269 l 501 164 l 501 107 q 536 21 501 69 q 554 1 546 8 q 575 -28 575 -16 q 563 -44 575 -40 q 518 -48 551 -48 l 446 -48 l 368 -54 m 693 1210 l 626 1219 q 607 1215 615 1219 q 578 1199 598 1211 q 539 1173 558 1186 q 483 1132 491 1140 q 446 1113 464 1113 q 419 1122 427 1113 q 411 1142 411 1131 q 437 1180 411 1165 q 567 1276 463 1195 q 581 1319 573 1280 q 623 1387 595 1387 q 646 1375 638 1387 q 660 1344 653 1363 q 676 1305 667 1326 q 697 1270 685 1283 q 723 1231 723 1243 q 693 1210 723 1210 "},"Ω":{"x_min":65.78125,"x_max":1051.25,"ha":1114,"o":"m 71 -56 l 77 -2 q 74 44 77 19 l 70 84 l 65 118 q 78 134 65 134 q 120 117 99 134 q 154 89 141 100 q 184 67 168 78 q 239 44 221 44 l 379 40 q 231 303 297 144 q 163 585 163 466 q 192 801 163 704 q 274 968 221 899 q 569 1110 383 1110 q 851 975 752 1110 q 950 603 950 842 q 877 286 950 445 q 725 52 821 163 l 887 52 q 936 72 911 52 l 1005 130 q 1045 113 1045 159 l 1038 54 q 1044 -12 1038 16 q 1051 -53 1051 -42 q 1030 -82 1051 -82 q 1007 -73 1018 -82 q 896 -6 982 -51 l 675 -9 q 636 19 636 -9 q 667 72 636 38 q 736 164 697 107 q 808 290 775 221 q 865 765 918 524 q 713 1006 828 933 q 572 1043 654 1043 q 427 1008 491 1043 q 321 910 364 973 q 233 571 233 782 q 347 214 233 424 q 448 61 398 120 q 471 14 471 34 q 426 -15 471 -15 l 246 -11 q 184 -24 203 -11 l 112 -80 q 71 -56 71 -110 "},"Ö":{"x_min":71.21875,"x_max":907.46875,"ha":984,"o":"m 786 120 q 655 8 731 46 q 510 -29 579 -29 q 389 -15 441 -29 q 291 26 338 -2 q 204 99 244 54 q 134 207 164 144 q 71 536 71 343 q 190 919 71 771 q 497 1066 309 1066 q 782 956 675 1066 q 907 551 907 826 q 786 120 907 280 m 489 35 q 570 45 531 35 q 647 78 609 54 q 719 139 685 101 q 779 234 753 177 q 836 550 836 360 q 596 990 836 925 q 502 1005 537 1005 q 428 997 467 1005 q 349 969 389 988 q 271 916 309 949 q 204 834 233 883 q 139 563 139 725 q 324 83 139 200 q 489 35 397 37 m 564 1352 q 595 1347 569 1352 q 712 1342 621 1342 q 749 1319 749 1342 q 727 1278 749 1302 q 670 1213 675 1222 q 628 1196 651 1181 q 618 1208 622 1200 q 606 1227 614 1216 q 587 1252 598 1238 q 539 1331 539 1313 q 564 1352 539 1352 m 435 1319 q 412 1277 435 1301 q 355 1213 361 1223 q 300 1209 327 1169 l 245 1287 q 251 1352 204 1352 l 288 1347 q 387 1342 339 1342 q 435 1319 435 1342 "},"\u0001":{"x_min":0,"x_max":0,"ha":0},"z":{"x_min":86.8125,"x_max":870.046875,"ha":886,"o":"m 147 66 q 110 59 118 59 q 95 66 103 59 q 86 86 86 74 q 106 130 86 109 q 152 178 126 151 q 216 250 177 205 q 707 875 434 502 q 258 867 322 873 q 168 805 219 862 q 138 776 145 779 q 124 773 131 773 q 111 794 105 773 q 115 934 127 865 q 111 980 111 959 q 130 1001 111 1001 q 159 987 145 1001 q 183 962 174 972 q 200 945 191 952 q 235 929 218 928 q 291 929 252 929 q 531 929 411 929 q 734 931 730 929 q 746 936 739 933 q 782 942 773 948 q 794 931 791 937 q 799 897 808 912 q 783 874 790 883 q 754 837 775 866 q 699 759 734 808 q 507 507 598 621 l 272 211 q 205 126 231 160 q 283 128 243 128 l 555 124 q 699 133 664 124 q 758 157 735 143 q 800 183 782 170 q 831 205 818 196 q 852 214 844 214 q 866 174 877 214 q 850 61 850 111 l 851 32 q 832 9 851 9 q 788 31 819 9 q 705 73 727 71 l 663 73 q 231 72 285 71 q 147 66 177 73 "},"™":{"x_min":147.859375,"x_max":1683.34375,"ha":1833,"o":"m 503 368 q 459 372 485 368 q 408 377 432 377 q 344 373 360 377 q 299 388 299 363 q 312 418 299 404 q 341 444 325 431 q 370 471 357 457 q 385 503 384 484 l 408 966 l 339 966 l 278 965 q 221 937 246 959 q 185 905 196 914 q 165 895 174 895 q 147 916 147 895 l 157 1010 l 154 1055 q 176 1098 154 1098 q 201 1081 187 1098 q 227 1054 215 1064 q 250 1039 240 1044 q 286 1030 269 1030 q 473 1027 398 1027 l 581 1027 q 682 1042 653 1027 q 725 1078 711 1056 q 756 1102 743 1102 q 777 1050 792 1102 q 769 989 769 1018 q 767 937 768 959 q 761 901 766 914 q 746 887 756 887 q 718 903 725 887 q 642 965 693 965 l 473 966 q 460 686 465 853 q 456 510 456 519 q 460 488 456 501 q 470 463 463 475 q 510 421 487 434 q 526 390 526 413 q 503 368 526 368 m 959 387 l 935 384 q 904 407 904 384 q 926 439 906 421 q 962 498 956 466 q 973 563 968 531 q 985 633 979 596 q 998 710 992 670 q 1009 784 1004 749 q 1022 882 1022 865 q 1016 909 1023 898 q 1000 931 1009 920 q 978 953 990 942 q 956 975 966 965 q 933 1011 933 1000 q 959 1030 933 1030 l 1005 1026 q 1077 1034 1037 1026 q 1126 1043 1117 1043 q 1152 1024 1150 1043 q 1138 997 1152 1010 q 1116 972 1124 984 q 1104 948 1108 959 l 1090 910 q 1259 542 1197 644 q 1273 524 1270 524 q 1285 540 1278 524 q 1303 575 1292 556 q 1328 621 1313 594 q 1362 683 1343 649 q 1401 755 1380 717 q 1481 913 1439 826 q 1454 957 1474 928 q 1420 1017 1420 1006 q 1449 1036 1420 1036 l 1502 1032 l 1604 1040 q 1631 1024 1631 1040 q 1621 1002 1631 1011 q 1603 978 1612 992 q 1584 945 1594 963 q 1553 887 1557 901 q 1581 639 1561 762 q 1605 503 1601 516 q 1616 476 1609 491 q 1633 448 1624 461 q 1667 407 1652 421 q 1683 386 1683 394 q 1648 370 1683 370 l 1625 370 q 1584 365 1606 370 q 1528 355 1543 355 q 1501 376 1501 355 q 1515 404 1501 387 q 1540 476 1540 434 l 1540 493 q 1521 641 1540 515 q 1496 818 1502 767 q 1417 661 1464 750 q 1331 489 1342 519 q 1305 434 1319 459 q 1277 409 1292 409 q 1257 415 1262 409 q 1247 430 1252 420 l 1226 489 l 1123 689 q 1070 795 1098 738 q 1051 693 1058 785 q 1041 569 1043 601 q 1035 488 1034 495 q 1044 466 1036 481 q 1060 438 1052 451 q 1083 394 1083 401 q 1044 377 1083 370 q 959 387 984 387 "},"Ř":{"x_min":82.0625,"x_max":937.984375,"ha":985,"o":"m 160 -44 q 82 -28 82 -64 q 103 8 82 -12 q 136 42 124 29 q 153 68 147 56 q 168 140 167 94 q 170 226 169 186 q 172 317 171 266 q 174 424 173 368 q 176 539 175 480 q 177 653 177 598 q 178 936 181 909 q 168 976 175 963 q 151 1002 161 990 q 129 1024 141 1013 q 108 1041 116 1034 q 95 1063 95 1053 q 111 1073 95 1073 l 140 1072 q 275 1080 226 1072 q 335 1087 324 1087 q 346 1079 346 1087 q 332 1056 346 1070 q 260 976 278 1002 q 241 946 242 950 q 239 930 240 942 q 238 904 238 919 q 237 870 237 888 q 236 835 236 852 q 235 775 235 784 q 348 932 263 849 q 484 1017 408 990 q 647 1021 555 1042 q 774 916 735 1001 q 794 807 794 872 q 775 698 794 742 q 726 622 756 655 q 655 566 695 590 q 574 526 615 543 l 420 469 q 796 96 777 102 q 852 90 818 88 q 900 90 885 92 q 937 75 937 88 q 908 33 937 63 q 822 -73 845 -26 q 800 -104 810 -96 q 784 -111 790 -111 q 753 13 753 -111 q 748 43 753 40 q 726 64 743 47 q 682 109 708 82 q 622 171 655 137 q 554 241 589 205 q 485 313 519 278 q 424 375 452 347 q 352 448 361 440 q 333 471 343 455 q 324 496 324 486 q 352 520 324 516 q 419 533 379 524 q 501 556 459 541 q 583 593 543 571 q 656 645 624 615 q 727 804 727 713 q 687 934 727 894 q 562 973 646 973 q 400 903 478 973 q 254 687 309 820 q 235 634 240 654 l 235 101 q 252 70 235 85 q 305 18 297 29 q 318 0 314 8 q 305 -42 348 -42 l 230 -37 q 160 -44 187 -37 m 707 1190 l 655 1194 q 618 1182 637 1194 q 582 1161 598 1171 q 551 1142 565 1152 q 484 1085 526 1124 q 435 1081 463 1066 q 418 1098 423 1087 l 368 1135 l 336 1161 q 248 1209 273 1209 l 184 1201 q 153 1222 153 1201 q 174 1252 153 1241 q 209 1280 195 1264 q 236 1313 223 1297 q 259 1341 248 1330 q 280 1353 270 1353 q 297 1345 290 1353 q 305 1323 305 1338 l 303 1292 q 323 1240 303 1256 q 355 1214 343 1224 q 381 1195 368 1204 q 454 1148 410 1174 q 587 1235 541 1202 q 596 1273 595 1247 q 598 1314 596 1298 q 608 1339 600 1331 q 628 1347 617 1347 q 648 1338 640 1347 q 665 1314 657 1329 q 708 1254 691 1268 q 729 1197 754 1216 q 707 1190 720 1190 "},"ã":{"x_min":85.15625,"x_max":1095.328125,"ha":1055,"o":"m 923 2 q 900 46 891 2 q 910 151 918 129 l 785 347 q 709 474 749 404 q 651 335 678 389 q 578 225 624 280 q 488 130 532 169 q 216 -2 339 -2 q 112 40 151 -2 q 96 191 67 92 q 286 430 136 322 q 576 564 422 528 q 650 577 617 574 q 554 754 576 708 q 519 777 541 769 q 424 812 436 805 q 413 829 413 819 q 448 862 413 851 q 556 916 509 878 q 607 939 582 939 q 632 912 632 939 l 607 830 q 609 783 600 800 l 752 518 q 925 238 846 351 q 968 188 953 198 q 1005 170 984 179 q 1047 153 1027 161 q 1095 115 1095 132 q 1061 83 1095 96 q 1005 55 1026 69 q 970 29 984 41 q 946 9 956 17 q 923 2 935 2 m 166 181 q 158 134 158 151 q 162 104 158 116 q 173 82 166 92 q 213 62 191 62 q 305 83 254 62 q 398 134 357 103 q 477 205 438 165 q 605 380 560 291 q 668 522 646 457 q 439 453 560 513 q 252 316 328 398 q 166 181 186 244 m 410 1065 q 384 1018 410 1018 q 360 1028 371 1018 q 344 1055 348 1039 q 271 1130 329 1103 q 250 1154 250 1141 q 261 1177 250 1168 q 283 1186 271 1186 l 341 1178 q 367 1183 359 1178 q 386 1194 376 1187 q 410 1208 397 1201 q 515 1219 467 1236 q 567 1192 554 1207 q 586 1165 581 1176 q 597 1143 591 1154 q 671 1092 626 1092 q 729 1147 722 1092 q 731 1180 731 1163 l 730 1203 q 740 1234 730 1223 q 760 1245 750 1245 q 789 1223 780 1245 q 813 1184 797 1202 q 844 1153 829 1167 q 870 1129 859 1139 q 882 1106 882 1118 q 870 1085 882 1095 q 841 1076 858 1076 l 794 1081 q 771 1075 777 1081 q 755 1062 765 1069 q 730 1048 745 1055 q 610 1042 664 1019 q 536 1118 567 1059 q 460 1166 511 1166 q 418 1139 433 1166 q 408 1101 408 1122 l 410 1065 "},"æ":{"x_min":40.34375,"x_max":1203.84375,"ha":1258,"o":"m 731 4 l 739 88 q 736 117 739 107 q 690 198 733 126 q 571 413 647 270 q 410 154 518 265 q 155 12 271 12 q 64 52 99 12 q 50 193 24 101 q 137 344 72 269 q 366 507 223 443 q 498 549 437 537 q 375 791 402 732 q 345 812 365 805 q 263 845 274 838 q 251 861 251 852 q 280 890 251 881 q 328 912 308 900 q 364 936 348 925 q 443 935 443 992 q 434 895 443 917 q 423 818 412 836 l 534 596 q 669 887 537 779 q 822 968 741 947 q 1016 961 911 991 q 1163 844 1126 929 q 1176 772 1176 813 q 1165 701 1176 732 q 1137 648 1154 670 q 1099 610 1120 626 q 1058 585 1078 595 q 994 569 1022 569 q 892 579 924 569 q 836 592 860 590 q 796 595 813 594 q 771 601 779 596 q 762 616 762 605 q 773 641 762 626 q 798 672 784 655 q 841 722 838 718 q 846 732 843 727 q 854 741 849 737 q 894 743 877 763 q 912 683 904 732 q 924 634 920 635 q 934 631 929 632 q 948 628 940 629 q 1027 634 1003 621 q 1069 665 1051 647 q 1102 813 1127 727 q 1006 901 1084 874 q 902 915 965 915 q 785 889 839 915 q 688 817 730 862 q 596 594 596 720 q 676 403 596 476 q 887 331 756 331 q 1077 379 1029 331 q 1110 424 1098 398 q 1128 457 1123 449 q 1141 464 1133 464 q 1157 458 1149 464 q 1165 440 1165 453 q 1168 414 1165 428 q 1174 386 1170 400 q 1192 339 1182 358 q 1203 309 1203 320 q 1174 284 1203 284 q 1134 298 1164 284 q 1102 311 1104 311 l 1025 287 q 735 297 875 250 q 679 321 706 307 q 757 190 732 227 q 792 148 783 153 q 821 134 801 142 q 859 118 841 126 q 903 83 903 98 q 871 50 903 69 q 788 0 797 8 q 753 -23 770 -23 q 731 4 731 -23 m 118 92 q 163 73 132 73 q 233 90 195 73 q 308 137 271 107 q 380 206 345 166 q 445 290 415 245 q 539 472 507 382 l 524 500 q 260 379 386 479 q 111 185 140 285 q 118 92 94 124 "},"ĩ":{"x_min":32.734375,"x_max":664.15625,"ha":595,"o":"m 238 -35 q 204 -9 204 -35 q 223 26 204 1 q 260 76 242 52 q 280 113 278 100 l 295 674 q 281 710 294 695 q 252 740 267 726 q 223 768 236 754 q 211 797 211 781 q 259 815 211 827 q 337 807 295 807 l 414 810 q 449 784 449 810 q 428 754 449 770 q 394 727 407 738 q 373 706 381 715 q 360 680 360 692 l 346 158 l 347 112 q 367 54 347 83 q 396 12 387 25 q 405 -9 405 0 q 367 -33 405 -33 l 337 -31 l 238 -35 m 192 1028 q 167 981 192 981 q 142 991 154 981 q 126 1018 130 1002 q 53 1093 112 1066 q 32 1117 32 1104 q 43 1140 32 1131 q 65 1149 53 1149 l 123 1141 q 149 1146 141 1141 q 168 1157 158 1150 q 192 1171 179 1164 q 297 1182 249 1199 q 350 1155 336 1170 q 368 1128 363 1139 q 379 1106 373 1117 q 453 1055 409 1055 q 511 1110 504 1055 q 513 1143 513 1126 l 512 1166 q 522 1197 512 1186 q 542 1208 532 1208 q 571 1186 563 1208 q 595 1147 580 1165 q 626 1116 611 1130 q 652 1092 641 1102 q 664 1069 664 1081 q 652 1048 664 1058 q 624 1039 641 1039 l 576 1044 q 553 1038 559 1044 q 537 1025 547 1032 q 512 1011 527 1018 q 392 1005 447 982 q 318 1081 349 1022 q 242 1129 293 1129 q 200 1102 215 1129 q 190 1064 190 1085 l 192 1028 "},"É":{"x_min":71.890625,"x_max":766.46875,"ha":874,"o":"m 570 470 q 334 470 457 470 q 139 461 210 470 l 139 445 q 223 161 143 270 q 501 0 313 40 q 614 -18 592 -18 q 654 -8 636 -18 q 687 12 672 0 q 715 33 702 23 q 738 42 727 42 q 758 20 758 42 q 746 -31 758 -2 q 718 -158 721 -94 q 697 -187 717 -187 q 630 -122 671 -187 q 557 -75 605 -84 q 88 290 166 -20 q 71 452 71 356 q 101 629 71 547 q 178 774 130 712 q 284 879 225 836 q 403 949 343 922 q 607 1006 510 999 q 678 1059 642 1007 q 736 1108 714 1108 q 758 1063 770 1108 q 765 928 748 1025 q 761 893 769 903 q 746 883 754 883 q 712 907 729 883 q 630 945 686 945 q 519 931 565 945 q 428 894 474 917 q 338 836 383 870 q 254 756 293 801 q 146 535 167 655 q 187 533 165 533 l 234 533 q 575 541 355 533 q 612 561 588 542 q 700 615 683 615 q 725 584 725 615 l 705 495 q 701 451 701 474 l 703 425 q 680 391 703 391 q 656 403 667 391 q 632 430 644 415 q 570 470 600 467 m 724 1237 l 657 1246 q 638 1242 646 1246 q 609 1226 629 1238 q 570 1200 589 1213 q 514 1159 522 1167 q 477 1140 495 1140 q 450 1149 458 1140 q 442 1169 442 1158 q 468 1207 442 1192 q 598 1303 494 1222 q 612 1346 604 1307 q 654 1414 626 1414 q 677 1402 669 1414 q 691 1371 684 1390 q 707 1332 698 1353 q 728 1297 716 1310 q 754 1258 754 1270 q 724 1237 754 1237 "},"ŀ":{"x_min":48.828125,"x_max":667.875,"ha":732,"o":"m 578 16 q 527 22 552 16 q 465 27 502 27 q 421 12 454 26 q 308 -12 358 -13 q 221 11 258 -10 q 162 75 185 33 q 119 330 119 156 l 128 956 q 115 1130 128 1095 q 92 1164 107 1155 q 63 1184 78 1174 q 48 1209 48 1195 q 90 1233 48 1233 l 141 1230 l 255 1235 q 289 1211 289 1235 q 276 1187 289 1197 q 246 1163 263 1176 q 196 1085 200 1129 q 185 330 185 992 q 291 50 185 65 q 351 50 330 44 q 387 63 372 56 q 436 89 398 68 q 458 116 449 96 q 475 165 466 136 q 493 202 484 195 q 513 209 503 209 q 530 200 524 209 q 542 172 535 190 q 580 90 563 113 q 578 16 629 22 m 627 787 q 667 762 667 787 q 641 716 667 744 q 599 670 615 687 q 577 641 583 654 q 521 636 545 585 q 482 695 505 667 q 430 770 430 757 q 469 797 430 804 q 585 786 520 786 l 627 787 "},"~":{"x_min":56.875,"x_max":1050.5625,"ha":1062,"o":"m 885 605 q 916 663 885 663 q 943 637 934 663 q 1028 524 965 575 q 1050 494 1050 507 q 1007 470 1050 461 q 918 478 935 484 l 849 435 q 727 396 781 396 q 639 411 674 396 q 579 446 605 425 q 531 492 552 467 q 486 538 509 517 q 370 588 432 588 q 242 534 290 588 q 224 513 231 521 q 216 485 218 504 q 210 448 213 467 q 202 416 208 430 q 182 402 196 402 q 159 412 168 402 q 148 434 149 422 q 141 460 147 445 q 124 491 134 475 q 80 542 103 524 q 69 590 40 573 q 105 595 88 602 q 176 572 159 572 q 208 584 193 572 q 244 612 223 597 q 361 652 302 652 q 456 638 420 652 q 517 602 491 623 q 563 555 543 580 q 605 508 583 530 q 822 486 697 417 q 876 530 861 508 q 886 569 886 538 l 885 605 "},"³":{"x_min":114.859375,"x_max":604.96875,"ha":698,"o":"m 562 1125 q 600 1104 600 1125 q 588 1077 600 1092 q 453 899 464 923 q 581 807 540 876 q 604 718 604 766 q 593 641 604 671 q 564 591 582 612 q 525 557 546 571 q 482 537 503 544 q 268 545 415 511 l 146 552 q 128 554 130 553 q 120 587 105 565 q 142 603 125 594 q 171 627 158 613 q 194 655 185 640 q 211 683 204 669 q 225 708 218 697 q 258 731 240 731 q 282 700 276 731 l 291 638 q 327 592 303 600 q 479 597 412 560 q 540 708 540 630 q 492 822 540 786 q 382 838 442 859 q 319 854 319 816 q 368 895 319 875 q 497 1049 406 911 l 503 1058 q 436 1058 467 1058 l 349 1059 q 282 1043 322 1059 q 233 1011 261 1034 q 192 979 205 988 q 167 971 180 971 q 153 990 153 971 l 158 1056 l 152 1163 q 198 1182 152 1218 q 290 1123 269 1127 q 474 1116 337 1109 l 562 1125 "},"¡":{"x_min":124.203125,"x_max":452.453125,"ha":546,"o":"m 274 701 l 322 697 q 388 690 375 697 q 394 648 415 674 q 363 609 373 622 q 348 588 353 597 q 337 562 340 576 l 287 -93 q 299 -136 287 -119 q 324 -169 312 -154 q 356 -241 356 -211 q 320 -264 356 -270 l 278 -252 q 188 -242 244 -242 l 169 -242 q 135 -236 146 -242 q 124 -216 124 -229 q 146 -174 124 -193 q 184 -138 168 -155 q 211 -106 200 -121 q 230 -62 230 -76 q 271 546 271 519 q 271 586 271 574 q 270 609 272 599 q 257 645 266 632 q 274 701 220 701 m 427 1102 q 452 1084 452 1102 q 422 1035 452 1069 q 381 987 393 1001 q 362 963 369 973 q 339 945 345 945 q 318 964 327 945 q 296 998 308 983 q 271 1029 283 1014 q 278 1103 211 1103 l 370 1098 l 427 1102 "},"[":{"x_min":135.640625,"x_max":508.671875,"ha":644,"o":"m 202 -212 q 153 -181 153 -212 l 161 -134 q 163 14 163 -122 l 161 391 q 153 744 161 537 q 143 1017 145 950 q 139 1135 141 1083 q 135 1265 135 1241 q 172 1307 135 1307 l 222 1308 q 346 1313 332 1311 q 371 1325 360 1316 q 396 1346 383 1334 l 453 1406 q 480 1420 467 1420 q 496 1412 493 1420 q 499 1385 499 1403 l 497 1289 q 503 1199 497 1228 q 508 1161 508 1170 q 500 1145 508 1151 q 487 1139 493 1139 q 474 1144 481 1139 q 461 1157 467 1150 l 436 1188 q 348 1245 386 1243 q 333 1246 343 1246 l 311 1246 l 241 1245 q 204 1245 223 1245 l 206 1222 l 211 1063 q 216 904 211 1061 l 223 679 l 229 428 q 231 238 231 318 q 219 -147 231 157 l 278 -147 l 355 -147 q 410 -130 383 -147 q 455 -100 436 -114 q 501 -116 501 -67 l 495 -194 l 499 -266 q 484 -294 499 -294 q 460 -281 472 -294 q 437 -259 448 -268 q 412 -242 425 -250 q 350 -214 370 -215 q 306 -212 330 -212 q 256 -212 283 -212 l 202 -212 "},"%":{"x_min":118.6875,"x_max":1144.15625,"ha":1264,"o":"m 377 512 q 345 510 355 510 q 313 512 335 510 q 266 524 291 515 q 214 549 240 533 q 166 592 188 565 q 118 748 118 652 q 188 921 118 847 q 404 994 274 1013 q 552 903 499 980 q 595 735 595 838 q 538 584 595 642 q 377 512 478 523 m 355 56 l 360 0 q 353 -23 360 -12 q 337 -33 346 -33 q 310 -18 321 -33 q 288 6 300 -3 q 262 25 276 16 l 206 60 q 195 77 194 68 q 225 108 196 101 q 278 120 254 115 q 308 130 303 124 q 336 164 314 137 q 393 236 357 191 q 475 340 429 281 q 571 462 521 398 q 672 589 621 525 q 766 708 722 653 l 892 868 q 912 922 912 893 l 908 967 q 914 988 908 977 q 932 999 920 999 q 961 979 944 999 q 1053 901 1004 928 q 1069 877 1069 891 q 1031 854 1069 854 l 1010 855 q 965 847 980 855 q 944 831 950 840 q 908 786 937 822 l 841 702 q 368 102 432 192 q 355 56 355 83 m 251 606 q 306 580 278 587 q 346 573 334 573 q 374 574 358 573 q 411 582 390 576 q 453 598 431 588 q 493 628 475 609 q 535 741 535 671 q 432 923 535 882 q 312 927 367 950 l 261 906 q 245 896 256 904 q 222 870 235 889 q 202 832 210 852 q 185 743 185 791 q 205 660 185 695 q 251 606 224 626 m 680 137 q 667 225 667 174 q 686 321 667 276 q 737 401 704 366 q 952 474 823 493 q 1100 383 1048 460 q 1144 215 1144 318 q 1087 64 1144 122 q 925 -8 1027 3 q 763 29 838 -17 q 680 137 706 64 m 754 321 q 739 275 744 299 q 734 213 734 251 q 753 140 734 174 q 800 86 773 105 q 1002 78 889 23 q 1072 154 1050 102 q 1084 222 1084 182 q 1075 294 1084 263 q 1052 347 1066 325 q 1019 382 1038 368 q 982 404 1001 396 q 861 408 916 430 q 818 388 838 398 q 781 361 797 379 q 754 321 765 343 "},"P":{"x_min":93.59375,"x_max":769.78125,"ha":837,"o":"m 136 -55 q 107 -16 101 -55 q 121 -1 109 -8 q 148 17 133 4 q 173 43 163 30 q 198 87 195 70 q 198 111 198 87 l 195 275 q 189 531 195 275 q 167 1053 181 978 q 138 1098 162 1077 q 103 1131 113 1119 q 93 1157 93 1143 q 104 1177 93 1171 q 144 1184 115 1182 q 255 1192 230 1186 q 288 1199 282 1199 q 313 1171 313 1199 q 299 1146 313 1162 q 276 1120 285 1131 q 257 1099 266 1109 q 244 1083 248 1089 q 238 1061 237 1073 l 238 914 q 340 1059 260 1002 q 558 1108 442 1131 q 756 923 711 1076 q 769 812 769 879 q 748 684 769 746 q 688 580 726 623 q 484 492 609 492 q 294 580 378 492 q 243 659 263 612 q 263 148 263 191 q 271 88 263 105 q 290 54 278 70 l 340 -6 q 355 -35 355 -25 q 324 -61 355 -61 q 292 -55 316 -61 q 215 -50 269 -50 l 136 -55 m 408 570 q 562 567 482 535 q 682 695 644 598 q 701 806 701 745 q 690 904 701 866 q 663 968 680 942 q 624 1011 646 994 q 580 1037 602 1028 q 493 1053 541 1053 q 400 1030 444 1053 q 326 971 356 1007 q 264 806 264 895 q 337 622 264 698 q 408 570 368 588 "},"∏":{"x_min":71.65625,"x_max":1035.96875,"ha":1040,"o":"m 221 -188 l 172 -195 q 146 -188 158 -195 q 134 -168 134 -181 q 143 -145 134 -155 q 161 -123 152 -135 q 181 -99 170 -111 q 201 -75 192 -86 q 222 -38 222 -50 l 222 992 q 168 1010 208 1007 q 110 1014 127 1012 q 82 1024 92 1016 q 105 1072 52 1047 q 174 1127 138 1088 q 225 1181 210 1165 q 248 1196 240 1196 q 263 1189 257 1196 q 269 1169 269 1182 l 265 1120 q 271 1061 265 1093 l 838 1058 q 867 1165 867 1126 q 889 1204 867 1204 q 911 1186 899 1204 q 939 1144 924 1169 q 1003 1060 982 1075 q 1026 1003 1053 1022 q 1000 997 1016 997 l 912 1006 q 880 999 891 1006 l 880 -31 q 906 -75 880 -45 q 940 -116 931 -105 q 958 -138 949 -128 q 967 -160 967 -147 q 930 -188 967 -188 l 881 -181 l 785 -187 q 748 -166 748 -187 q 770 -124 748 -151 q 799 -86 791 -97 q 818 -46 817 -59 q 819 1 819 -33 l 819 203 l 815 995 l 815 997 l 286 997 q 287 988 287 994 l 283 196 l 283 -5 q 284 -49 283 -40 q 290 -70 284 -59 q 303 -92 295 -81 l 339 -141 q 317 -194 374 -194 l 221 -188 "},"_":{"x_min":-13.5625,"x_max":1058.703125,"ha":1042,"o":"m -13 -185 l 729 -191 q 1058 -185 973 -191 l 1058 -248 l 411 -252 q -10 -248 103 -252 l -13 -185 "},"Ŕ":{"x_min":82.0625,"x_max":937.984375,"ha":985,"o":"m 160 -44 q 82 -28 82 -64 q 103 8 82 -12 q 136 42 124 29 q 153 68 147 56 q 168 140 167 94 q 170 226 169 186 q 172 317 171 266 q 174 424 173 368 q 176 539 175 480 q 177 653 177 598 q 178 936 181 909 q 168 976 175 963 q 151 1002 161 990 q 129 1024 141 1013 q 108 1041 116 1034 q 95 1063 95 1053 q 111 1073 95 1073 l 140 1072 q 275 1080 226 1072 q 335 1087 324 1087 q 346 1079 346 1087 q 332 1056 346 1070 q 260 976 278 1002 q 241 946 242 950 q 239 930 240 942 q 238 904 238 919 q 237 870 237 888 q 236 835 236 852 q 235 775 235 784 q 348 932 263 849 q 484 1017 408 990 q 647 1021 555 1042 q 774 916 735 1001 q 794 807 794 872 q 775 698 794 742 q 726 622 756 655 q 655 566 695 590 q 574 526 615 543 l 420 469 q 796 96 777 102 q 852 90 818 88 q 900 90 885 92 q 937 75 937 88 q 908 33 937 63 q 822 -73 845 -26 q 800 -104 810 -96 q 784 -111 790 -111 q 753 13 753 -111 q 748 43 753 40 q 726 64 743 47 q 682 109 708 82 q 622 171 655 137 q 554 241 589 205 q 485 313 519 278 q 424 375 452 347 q 352 448 361 440 q 333 471 343 455 q 324 496 324 486 q 352 520 324 516 q 419 533 379 524 q 501 556 459 541 q 583 593 543 571 q 656 645 624 615 q 727 804 727 713 q 687 934 727 894 q 562 973 646 973 q 400 903 478 973 q 254 687 309 820 q 235 634 240 654 l 235 101 q 252 70 235 85 q 305 18 297 29 q 318 0 314 8 q 305 -42 348 -42 l 230 -37 q 160 -44 187 -37 m 606 1210 l 539 1219 q 520 1215 528 1219 q 491 1199 511 1211 q 452 1173 471 1186 q 396 1132 404 1140 q 359 1113 377 1113 q 332 1122 340 1113 q 324 1142 324 1131 q 350 1180 324 1165 q 480 1276 376 1195 q 494 1319 486 1280 q 536 1387 508 1387 q 559 1375 551 1387 q 573 1344 566 1363 q 589 1305 580 1326 q 610 1270 598 1283 q 636 1231 636 1243 q 606 1210 636 1210 "},"ñ":{"x_min":122.703125,"x_max":935.28125,"ha":962,"o":"m 320 -4 q 299 -23 320 -23 l 264 -20 l 142 -15 q 138 31 105 -13 l 180 93 q 193 121 191 109 q 198 160 196 134 q 202 226 200 187 q 206 316 204 266 q 211 418 208 365 q 216 524 214 471 q 219 623 218 577 q 223 776 223 725 q 196 825 219 796 q 164 866 174 854 q 155 884 155 878 q 176 899 155 899 q 220 899 197 899 q 267 900 244 900 l 356 908 q 364 861 394 908 l 298 786 q 287 768 288 773 q 285 742 286 762 q 283 697 284 723 q 278 591 280 663 q 378 751 314 678 q 551 842 459 842 q 754 650 685 842 q 789 512 775 592 q 813 378 804 432 q 828 291 822 324 q 840 223 838 231 q 850 203 842 215 q 870 179 859 191 q 914 145 893 155 q 935 120 935 135 q 922 100 935 105 q 888 92 910 95 q 795 71 819 82 q 753 56 766 56 q 732 90 720 56 l 746 119 q 774 203 774 187 q 772 241 774 219 q 766 292 769 263 q 750 393 758 358 q 736 467 742 429 q 721 547 730 505 q 699 630 712 589 q 664 704 685 671 q 544 778 619 778 q 343 595 430 778 q 273 370 279 461 q 259 137 259 156 q 265 101 259 117 q 281 69 272 86 l 317 10 q 320 -4 320 2 m 386 1056 q 360 1009 386 1009 q 335 1019 347 1009 q 319 1046 323 1030 q 247 1121 305 1094 q 226 1145 226 1132 q 236 1168 226 1159 q 259 1177 247 1177 l 317 1169 q 343 1174 334 1169 q 362 1185 351 1178 q 386 1199 372 1192 q 491 1210 443 1227 q 543 1183 530 1198 q 562 1156 557 1167 q 573 1134 567 1145 q 646 1083 602 1083 q 705 1138 698 1083 q 707 1171 707 1154 l 706 1194 q 716 1225 706 1214 q 736 1236 726 1236 q 765 1214 756 1236 q 789 1175 773 1193 q 820 1144 804 1158 q 846 1120 835 1130 q 857 1097 857 1109 q 846 1076 857 1086 q 817 1067 834 1067 l 770 1072 q 747 1066 753 1072 q 731 1053 741 1060 q 706 1039 721 1046 q 585 1033 640 1010 q 512 1109 543 1050 q 435 1157 486 1157 q 394 1130 408 1157 q 384 1092 384 1113 l 386 1056 "},"‚":{"x_min":134.28125,"x_max":386.75,"ha":505,"o":"m 181 150 l 261 144 q 334 149 316 144 q 359 154 352 154 q 377 148 366 154 q 377 106 396 137 l 309 -12 q 194 -139 248 -107 q 144 -134 164 -158 q 134 -110 134 -121 q 140 -96 134 -99 q 161 -80 145 -92 q 194 -52 177 -68 q 237 3 237 -14 q 224 34 237 21 q 197 67 212 48 q 175 97 183 86 q 164 115 167 108 q 158 132 158 124 q 181 150 158 150 "},"Æ":{"x_min":28.3125,"x_max":1267.59375,"ha":1293,"o":"m 236 105 q 234 85 234 99 q 255 -27 234 72 q 229 -62 261 -62 q 197 -49 208 -62 q 168 -26 185 -36 q 131 -4 151 -15 q 67 31 88 21 q 33 77 13 55 q 112 111 62 107 l 112 110 q 192 163 137 113 q 276 273 212 181 q 440 514 404 460 q 263 511 279 514 q 231 496 246 507 q 202 471 216 484 q 152 438 168 438 q 132 463 132 438 q 143 567 132 463 l 140 618 q 164 665 140 665 q 201 634 176 665 q 271 572 252 572 q 480 567 277 572 q 731 967 679 858 l 693 1009 l 644 1052 q 643 1061 643 1055 q 675 1080 643 1080 q 735 1086 694 1080 l 794 1094 q 854 1077 854 1103 q 844 1049 853 1061 q 825 1023 834 1037 q 812 1000 815 1010 q 807 979 808 990 q 803 931 805 967 q 939 961 866 945 q 1087 1006 1013 978 q 1155 1089 1114 1017 q 1187 1114 1170 1114 q 1210 1099 1204 1114 q 1220 1060 1216 1084 q 1247 957 1232 985 q 1263 917 1263 930 q 1256 900 1263 905 q 1241 895 1248 895 q 1223 903 1234 895 q 1114 944 1154 949 q 1031 928 1075 938 q 945 906 988 918 l 798 864 l 785 562 l 936 563 l 1066 564 q 1163 621 1121 564 q 1179 636 1169 630 q 1196 642 1189 642 q 1216 601 1227 642 q 1199 469 1199 544 l 1201 440 q 1195 418 1201 429 q 1181 406 1189 406 q 1154 423 1166 406 l 1125 465 q 1095 496 1107 491 q 998 507 1068 507 l 830 505 l 782 505 l 769 138 q 944 61 819 113 q 1093 -2 1069 8 q 1127 -13 1117 -13 q 1163 -3 1138 -13 q 1209 13 1188 6 q 1251 23 1241 23 q 1267 6 1267 23 q 1258 -27 1267 -10 q 1234 -63 1248 -44 q 1183 -149 1193 -120 q 1148 -192 1167 -192 q 1113 -130 1125 -192 q 1077 -60 1102 -73 q 1012 -28 1053 -46 q 927 8 972 -10 q 766 72 843 43 l 766 56 q 804 -6 766 21 q 829 -24 817 -16 q 841 -42 841 -32 q 800 -64 841 -61 q 734 -69 760 -66 q 691 -75 708 -72 q 646 -82 652 -82 q 615 -68 615 -82 q 627 -38 615 -49 q 648 -12 638 -27 q 670 18 659 2 q 697 84 695 62 q 700 151 698 106 q 705 254 702 197 l 715 507 q 516 512 552 511 q 309 209 370 295 q 236 105 249 124 m 556 564 q 718 563 640 563 l 738 859 l 698 793 q 556 564 619 661 "},"ª":{"x_min":122.21875,"x_max":763.671875,"ha":796,"o":"m 434 1136 q 461 1102 461 1136 q 452 1064 461 1090 q 434 1001 429 1006 q 453 971 438 996 q 492 910 469 946 q 540 833 514 874 q 590 755 566 792 q 656 653 653 657 q 690 634 672 642 q 725 617 709 626 q 763 579 763 598 q 749 554 763 560 q 715 545 735 548 q 675 537 695 541 q 644 520 655 532 q 605 495 623 495 q 577 554 563 495 l 590 608 q 592 639 595 632 q 582 658 589 647 q 531 741 576 670 l 509 706 q 316 504 419 557 q 193 490 250 470 q 132 542 151 504 q 134 652 110 587 q 259 799 161 723 q 400 860 307 835 q 446 870 425 867 q 379 974 390 954 q 328 994 364 985 q 281 1009 292 1003 q 269 1028 269 1015 q 302 1057 269 1047 q 354 1083 335 1067 q 395 1118 374 1099 q 434 1136 415 1136 m 205 569 q 241 554 217 554 q 296 570 265 554 q 353 610 326 585 q 404 665 381 635 q 446 722 428 695 q 492 800 480 772 l 481 816 q 301 742 383 802 q 205 622 224 687 q 205 569 193 584 m 196 109 q 172 139 172 109 q 174 166 172 151 q 179 196 177 181 q 185 251 185 241 l 179 299 q 185 317 179 311 q 198 323 191 323 q 220 311 206 323 q 248 284 233 299 q 295 246 289 246 q 557 259 418 246 q 624 301 585 261 l 651 328 q 674 340 663 340 q 700 288 700 340 l 699 231 q 705 189 699 210 q 711 162 711 169 q 674 128 711 119 q 642 149 668 130 q 568 194 579 193 q 542 196 557 196 q 506 195 528 196 q 458 194 484 195 q 403 192 431 193 q 318 188 348 190 q 272 173 288 186 q 244 147 257 161 q 196 109 209 109 "},"Œ":{"x_min":90.203125,"x_max":1287.265625,"ha":1391,"o":"m 671 -4 q 644 12 644 -4 q 673 45 644 25 q 707 82 692 58 q 731 131 729 116 l 739 272 q 615 112 705 183 q 459 46 529 46 q 321 66 372 46 q 233 116 270 86 q 166 196 196 146 q 90 497 101 307 q 90 513 90 505 q 90 529 90 521 q 202 849 90 721 q 478 977 313 977 q 679 869 590 977 q 731 791 708 834 l 722 939 q 720 979 721 964 q 713 1002 719 994 q 697 1019 707 1011 q 664 1042 689 1026 q 626 1081 626 1066 q 659 1100 626 1100 l 696 1098 q 775 1109 731 1098 q 826 1120 818 1120 q 850 1097 850 1120 q 833 1068 850 1082 q 807 1042 815 1054 q 793 1018 798 1030 q 786 978 786 1000 q 786 962 786 978 l 786 945 l 953 992 q 1102 1045 1058 1024 q 1162 1131 1118 1053 q 1191 1155 1176 1155 q 1213 1141 1207 1155 q 1224 1105 1220 1127 q 1251 1009 1237 1033 q 1264 972 1264 984 q 1245 952 1264 952 q 1205 965 1230 952 q 1140 990 1158 990 q 1100 985 1123 990 q 1048 972 1077 980 q 986 954 1020 965 q 919 933 953 944 q 788 891 836 906 q 798 602 792 723 q 951 599 857 599 l 1093 599 q 1174 666 1113 599 q 1201 681 1187 681 q 1227 626 1237 681 q 1214 519 1214 558 l 1218 470 q 1195 443 1218 443 q 1170 457 1182 443 q 1147 486 1159 470 q 1123 517 1136 503 q 1093 533 1110 531 q 1046 536 1077 534 q 979 541 1015 539 q 831 546 881 546 l 800 545 q 801 512 801 529 q 801 439 801 496 l 793 179 l 986 116 q 1147 71 1130 71 q 1181 78 1165 71 q 1213 92 1197 84 q 1267 112 1256 112 q 1287 93 1287 112 q 1265 45 1287 80 q 1222 -40 1224 -21 q 1190 -85 1215 -85 q 1135 -10 1167 -85 q 1119 15 1127 8 q 932 76 1028 48 q 798 116 836 105 q 824 54 798 83 q 842 33 834 43 q 850 9 850 23 q 819 -4 850 -4 l 722 -1 l 671 -4 m 411 103 q 502 111 461 94 q 574 150 543 127 q 633 208 604 174 q 682 288 661 242 q 729 495 729 387 q 714 669 729 604 q 675 779 699 735 q 623 850 652 824 q 569 892 595 877 q 475 921 515 921 q 403 913 436 921 q 336 886 370 904 q 269 836 302 867 q 212 762 237 806 q 155 522 155 662 q 328 128 155 213 q 411 103 360 112 "},"ﬀ":{"x_min":36.625,"x_max":1440.546875,"ha":1449,"o":"m 330 -48 q 301 -54 314 -50 q 274 -63 288 -58 q 239 -68 259 -68 q 219 -50 219 -68 q 247 0 219 -31 q 284 44 276 32 q 303 87 303 69 l 302 112 l 300 419 q 299 661 299 549 l 197 661 q 111 621 154 661 q 84 597 98 610 q 58 585 70 585 q 36 608 36 585 l 44 686 q 46 748 46 724 l 46 782 q 65 816 46 816 q 100 787 82 816 q 169 724 120 751 q 191 716 182 716 l 299 716 l 299 766 q 374 1051 299 967 q 615 1115 450 1136 q 688 1113 672 1108 q 716 1127 705 1119 l 773 1176 q 795 1157 795 1188 q 794 1136 795 1142 l 794 999 q 779 969 800 969 q 714 1014 757 969 q 626 1066 670 1061 q 524 1068 615 1068 q 356 763 356 1068 l 356 716 q 549 716 453 716 q 813 716 750 716 l 909 716 l 909 793 q 995 1079 909 996 q 1259 1142 1083 1164 q 1332 1141 1316 1135 q 1359 1154 1348 1146 l 1418 1203 q 1440 1184 1440 1216 l 1433 1090 l 1439 1015 q 1404 1002 1439 984 q 1368 1031 1386 1011 q 1338 1061 1349 1051 q 1297 1088 1313 1083 q 1270 1093 1282 1092 q 1245 1096 1259 1095 l 1168 1095 q 967 790 967 1095 l 967 716 q 1225 725 1181 721 q 1286 741 1269 729 q 1313 763 1304 754 q 1329 779 1321 771 q 1346 796 1337 788 q 1380 815 1370 815 q 1395 774 1408 815 q 1382 663 1382 735 l 1387 596 q 1380 578 1387 585 q 1365 571 1374 571 q 1349 577 1356 571 q 1336 592 1342 583 l 1313 621 q 1246 662 1273 661 l 967 662 l 965 168 l 965 124 q 1005 55 965 71 q 1048 29 1037 42 q 1059 9 1059 16 q 1027 -6 1059 -4 q 975 -10 995 -8 q 940 -14 956 -12 q 893 -26 916 -18 q 829 -16 829 -48 q 857 34 829 2 q 895 78 886 66 q 913 124 913 103 q 909 662 909 161 l 356 661 l 354 137 l 354 90 q 395 21 354 37 q 437 -4 426 8 q 448 -24 448 -17 q 417 -40 448 -37 q 365 -44 385 -42 q 330 -48 345 -46 "},"T":{"x_min":62.578125,"x_max":906.21875,"ha":937,"o":"m 398 -3 l 327 -9 q 304 9 304 -9 q 343 65 304 29 q 398 141 395 112 q 426 649 415 384 q 439 966 436 913 q 267 966 353 966 l 204 965 q 163 950 179 964 q 134 921 147 935 q 109 895 122 906 q 84 883 97 883 q 65 931 54 883 q 74 1019 74 968 l 71 1073 q 96 1123 71 1123 q 127 1102 112 1123 q 152 1067 141 1081 q 172 1045 164 1053 q 199 1030 187 1030 l 580 1022 q 745 1026 653 1022 q 830 1079 786 1032 q 849 1102 843 1092 q 881 1119 860 1119 q 902 1074 915 1119 q 888 988 889 1028 q 887 921 887 948 q 882 878 886 894 q 861 862 877 862 q 847 870 855 862 q 830 896 838 878 q 811 929 822 914 q 790 952 800 944 q 757 966 777 962 l 504 966 q 473 434 485 711 q 461 148 461 156 q 466 124 461 139 q 478 94 470 109 q 507 50 495 61 q 533 15 533 27 q 524 -1 533 2 q 486 -5 514 -5 l 398 -3 "},"š":{"x_min":-10.921875,"x_max":600.859375,"ha":564,"o":"m 443 763 q 432 743 443 743 q 409 752 421 743 q 386 773 397 762 q 343 805 354 804 q 316 804 332 806 q 283 798 301 803 q 247 785 265 793 q 215 763 229 777 q 181 687 181 733 q 273 565 181 634 q 375 483 345 511 q 426 428 406 455 q 472 297 472 366 q 324 103 472 164 q 251 82 276 82 q 206 69 225 82 q 172 39 187 55 q 144 10 156 23 q 126 -3 133 -3 q 116 0 120 -3 q 109 8 112 3 q 103 27 103 18 l 100 147 q 128 208 100 230 q 146 189 135 204 q 164 168 157 175 q 181 155 171 160 q 292 156 223 136 q 402 242 373 180 q 316 453 448 341 l 213 533 q 118 687 118 609 q 248 849 118 805 q 324 863 289 863 q 359 889 332 863 q 397 923 387 914 q 426 944 421 944 q 438 902 438 944 l 438 846 l 443 763 m 569 1136 l 518 1140 q 480 1128 499 1140 q 441 1104 461 1117 q 404 1080 421 1092 q 326 1015 375 1060 q 270 1013 305 996 q 252 1034 256 1021 q 231 1057 242 1047 q 210 1077 221 1066 q 190 1098 200 1088 q 171 1121 181 1108 q 100 1188 117 1181 q 71 1195 83 1195 l 42 1195 q -10 1218 -10 1195 q 13 1247 -10 1238 q 53 1270 37 1256 q 83 1297 69 1283 q 131 1332 120 1332 q 149 1323 143 1332 q 155 1305 155 1315 l 147 1252 q 162 1210 147 1227 q 191 1178 177 1194 q 220 1147 205 1163 q 296 1077 256 1110 q 359 1116 320 1088 q 450 1181 398 1144 q 458 1218 457 1193 q 461 1260 459 1243 q 471 1285 463 1277 q 491 1293 479 1293 q 511 1284 503 1293 q 527 1260 519 1275 q 570 1199 553 1214 q 592 1143 617 1161 q 569 1136 583 1136 "},"Þ":{"x_min":55.609375,"x_max":813.1875,"ha":879,"o":"m 112 3 q 120 26 112 15 q 137 47 128 36 q 155 71 145 59 q 174 94 166 83 q 193 128 193 118 q 174 467 184 259 q 146 1001 158 845 q 127 1031 145 1016 q 65 1085 75 1075 q 55 1110 55 1095 q 82 1131 55 1131 l 148 1125 q 230 1133 195 1125 q 274 1142 265 1142 q 300 1121 300 1142 q 271 1083 300 1106 q 212 1008 212 1034 q 223 817 212 996 q 499 866 358 866 q 786 739 716 866 q 813 623 813 692 q 796 504 813 555 q 750 415 779 453 q 681 351 721 377 q 595 310 641 326 q 246 293 451 261 q 253 138 250 164 q 262 102 256 112 q 276 82 268 92 l 316 39 q 331 8 331 20 q 290 -14 331 -14 l 223 -13 q 179 -18 202 -13 q 112 3 112 -31 m 590 794 q 226 754 436 831 l 235 553 q 243 364 240 432 q 531 360 394 324 q 717 493 661 395 q 745 602 745 543 q 725 698 745 661 q 590 794 687 771 "},"j":{"x_min":-73.921875,"x_max":470.015625,"ha":594,"o":"m 432 953 q 470 941 470 960 q 442 902 470 920 q 389 817 404 877 q 389 644 381 788 q 400 446 396 501 q 415 105 415 163 q 413 9 415 48 q 405 -59 410 -28 q 263 -278 377 -243 q 89 -249 181 -303 q -12 -207 23 -210 q -60 -194 -47 -205 q -73 -170 -73 -183 q -59 -148 -73 -157 q 9 -109 -24 -128 q 65 -66 42 -90 q 101 -42 87 -42 q 121 -78 121 -42 l 119 -113 q 164 -212 119 -185 q 240 -218 195 -231 q 294 -185 274 -207 q 324 -132 313 -162 q 345 113 350 -61 q 313 803 329 669 q 290 848 309 828 q 246 885 270 868 q 207 935 207 915 q 233 956 207 956 q 292 950 259 956 q 349 944 326 944 q 385 945 373 944 l 432 953 m 419 1239 q 449 1200 479 1239 l 374 1109 q 326 1107 348 1061 l 275 1171 q 243 1228 243 1215 q 268 1248 243 1248 q 400 1238 347 1238 l 419 1239 "},"1":{"x_min":-9.5,"x_max":419.8125,"ha":564,"o":"m 335 -6 l 200 -15 q 188 9 166 -15 q 273 133 248 73 q 290 363 278 148 q 307 652 302 577 q 317 796 311 727 l 337 1029 q 321 1033 337 1044 l 297 1021 l 246 992 q 178 956 185 959 q 161 940 172 954 q 137 907 149 926 q 96 837 109 864 q 74 811 83 811 q 58 829 65 811 q 42 873 50 847 q 4 973 17 954 q -9 1000 -9 993 q 8 1013 -9 1016 q 143 996 106 981 q 228 1042 172 1009 q 305 1087 283 1075 q 367 1120 355 1116 q 404 1088 404 1134 l 394 978 q 353 412 367 667 q 339 137 339 156 q 403 32 339 96 q 419 4 419 16 q 388 -11 419 -11 l 335 -6 "},"›":{"x_min":182.09375,"x_max":653.4375,"ha":825,"o":"m 374 88 q 366 168 374 88 q 370 191 366 183 q 397 226 375 200 q 454 295 418 252 q 644 518 597 461 q 653 535 653 522 q 634 576 653 560 q 555 668 594 626 q 484 747 517 710 q 393 888 393 849 l 398 959 q 374 990 398 990 q 350 979 362 990 q 324 952 339 968 q 254 889 281 903 q 213 850 213 866 q 229 829 213 834 q 266 823 244 825 q 313 817 288 821 q 349 805 338 813 q 377 777 360 796 q 422 725 393 758 q 580 541 537 590 q 319 244 397 322 q 271 228 309 231 q 207 220 232 224 q 182 196 182 216 q 196 172 182 183 q 231 149 211 161 q 303 94 291 111 q 354 55 329 55 q 374 88 378 55 "},"<":{"x_min":127.5,"x_max":858.625,"ha":1021,"o":"m 818 129 q 838 94 854 129 q 809 56 830 76 q 775 23 788 35 q 739 -30 746 -8 q 720 -65 733 -51 q 697 -78 708 -78 q 672 -49 677 -78 q 661 0 668 -21 q 648 36 655 21 q 624 72 636 61 q 581 112 613 84 q 506 175 550 139 q 413 254 463 211 q 312 339 362 296 q 135 494 187 446 q 127 512 127 499 q 151 556 127 541 q 218 602 174 571 q 312 672 262 634 q 413 751 362 710 q 510 828 465 792 q 623 926 602 904 q 649 961 644 948 q 657 987 654 973 q 670 1059 671 1037 q 670 1091 669 1081 q 699 1115 673 1115 q 758 1064 716 1115 l 809 1005 q 858 940 858 948 q 849 923 858 931 q 816 915 841 915 q 686 886 773 915 q 350 619 661 878 q 223 510 273 554 q 613 165 392 337 q 653 135 642 142 q 723 124 672 124 l 818 129 "},"¬":{"x_min":108.515625,"x_max":1265.5625,"ha":1379,"o":"m 335 612 l 243 613 q 197 588 221 613 q 159 553 172 564 q 131 541 146 541 q 108 562 108 541 l 114 599 q 115 630 115 614 l 111 740 q 166 737 111 796 q 214 696 193 708 q 239 684 235 684 l 382 683 q 735 682 594 682 l 1081 684 q 1089 722 1089 701 l 1083 785 q 1107 819 1083 819 q 1137 805 1121 819 q 1165 780 1152 790 q 1193 760 1178 771 q 1239 731 1221 742 q 1265 697 1265 714 q 1252 674 1265 681 q 1220 663 1239 667 q 1180 656 1201 659 q 1144 644 1159 653 l 1140 349 l 1140 323 q 1205 221 1140 286 q 1222 188 1222 201 q 1203 175 1222 175 l 1121 179 l 1034 174 q 1008 195 1008 174 q 1019 221 1008 207 q 1041 250 1029 235 q 1076 315 1075 292 q 1077 354 1077 338 l 1077 385 l 1076 544 l 1076 583 q 1077 619 1076 602 q 335 612 599 612 "},"t":{"x_min":34.59375,"x_max":773.171875,"ha":827,"o":"m 223 265 l 223 286 q 234 445 227 366 q 247 609 241 524 q 193 610 208 610 q 174 610 193 610 q 133 598 148 610 q 107 575 118 586 q 56 538 73 538 q 34 560 34 538 q 44 613 34 575 q 54 684 54 651 l 50 729 q 65 754 50 754 q 101 724 75 754 q 140 681 126 695 q 164 668 153 668 q 250 666 206 668 q 262 855 262 815 q 210 927 262 872 q 193 959 193 944 q 232 983 193 983 q 260 979 242 983 q 301 975 277 975 l 384 981 q 414 958 414 981 q 401 930 414 944 q 385 914 389 916 q 353 883 368 906 q 334 852 337 859 q 330 827 332 845 q 325 784 328 809 l 316 662 q 551 656 520 653 q 599 672 581 659 q 627 695 617 686 q 642 709 637 704 q 655 720 648 715 q 682 732 670 732 q 705 688 705 732 l 700 607 q 704 575 700 590 q 682 520 719 520 q 655 531 669 520 q 623 554 640 541 q 559 595 573 594 l 311 607 l 298 422 q 293 223 283 274 q 320 146 303 173 q 440 84 358 84 q 571 129 502 84 q 594 146 586 139 q 611 176 601 153 q 624 235 621 198 q 649 271 628 271 q 673 256 664 271 l 706 190 q 742 142 722 159 q 767 120 761 126 q 773 107 773 115 q 735 84 773 84 l 662 89 q 584 71 617 89 q 335 42 439 -10 q 223 265 223 98 "},"ù":{"x_min":72.984375,"x_max":736.96875,"ha":842,"o":"m 610 166 l 610 182 l 592 491 l 558 394 q 493 230 512 266 q 456 169 473 193 q 416 124 438 144 q 306 81 365 81 q 132 408 132 81 l 140 739 q 123 781 140 763 q 94 811 105 799 q 72 847 72 832 q 110 869 72 869 l 155 867 q 237 875 206 867 q 275 883 269 883 q 292 870 292 883 q 250 805 292 846 q 219 775 233 790 q 203 749 205 760 q 200 706 202 738 q 197 630 199 674 q 194 352 188 413 q 207 260 200 291 q 226 206 214 229 q 306 151 255 151 q 520 453 421 151 q 568 781 607 717 q 535 810 559 794 q 501 850 501 832 q 539 876 501 876 l 572 876 q 648 881 622 876 q 682 888 677 888 q 703 869 703 888 q 681 824 703 850 q 648 782 658 798 q 637 752 637 766 q 638 710 637 737 q 642 644 639 683 q 646 557 644 604 q 652 459 649 509 q 658 362 655 410 q 665 275 662 314 q 675 171 672 185 q 681 148 677 158 q 690 130 685 138 l 732 80 q 720 48 745 56 q 655 44 702 44 q 591 39 608 44 q 543 52 543 24 q 550 77 543 69 q 566 96 557 86 q 585 120 575 107 q 610 166 608 153 m 196 1109 q 165 1130 165 1109 q 184 1162 165 1143 q 212 1202 203 1180 q 228 1242 220 1223 q 242 1273 235 1260 q 266 1286 250 1286 q 289 1271 281 1286 q 301 1237 296 1256 q 309 1199 305 1218 q 321 1176 313 1181 q 345 1158 328 1170 q 380 1130 361 1145 q 448 1082 429 1092 q 478 1047 478 1064 q 448 1012 478 1012 q 400 1037 425 1012 q 339 1079 389 1048 q 282 1114 290 1111 q 263 1118 274 1118 l 196 1109 "},"ĉ":{"x_min":205.140625,"x_max":979.375,"ha":1042,"o":"m 953 207 q 973 59 953 126 q 957 7 990 7 q 924 17 944 7 q 895 35 905 27 q 878 49 886 43 q 786 56 851 71 q 595 29 656 29 q 494 36 533 29 q 416 60 456 43 q 338 106 376 77 q 270 181 300 136 q 205 434 205 279 q 279 659 205 564 q 445 779 340 736 q 619 815 532 815 l 726 806 q 818 844 780 806 q 855 862 835 862 q 873 833 883 862 q 844 685 844 746 q 847 661 844 685 q 842 642 847 651 q 829 634 837 634 q 800 655 815 634 q 776 692 786 676 q 757 720 767 708 q 709 750 735 746 q 613 758 649 758 q 537 748 577 758 q 459 720 497 738 q 387 674 420 701 q 327 613 353 647 q 272 442 272 537 q 301 277 272 346 q 376 166 329 208 q 601 89 462 89 q 711 100 660 89 q 788 119 761 111 q 834 135 816 127 q 862 153 852 144 q 879 173 873 163 l 905 220 q 936 246 919 246 q 953 207 953 246 m 494 994 l 496 978 q 476 939 496 949 q 404 1005 453 925 q 378 1027 398 1015 q 351 1046 358 1038 q 344 1065 344 1053 q 384 1089 344 1089 l 439 1084 q 530 1128 476 1084 q 594 1179 561 1154 q 635 1206 628 1204 q 649 1208 641 1208 q 679 1196 668 1208 q 779 1099 721 1141 q 816 1072 797 1085 q 869 1050 839 1057 q 909 1040 899 1044 q 935 1015 935 1031 q 911 984 935 997 q 868 957 877 966 q 851 939 860 949 q 833 920 841 928 q 804 900 813 900 q 787 909 795 900 q 780 933 780 918 l 781 960 q 769 1018 781 992 q 643 1123 648 1118 q 572 1083 609 1112 q 516 1042 535 1055 q 494 994 494 1024 "},"ï":{"x_min":109.953125,"x_max":633.296875,"ha":595,"o":"m 280 -35 q 245 -9 245 -35 q 264 26 245 1 q 301 76 283 52 q 321 113 319 100 l 336 674 q 322 710 335 695 q 293 740 309 726 q 265 768 278 754 q 252 797 252 781 q 300 815 252 827 q 379 807 337 807 l 455 810 q 490 784 490 810 q 469 754 490 770 q 435 727 449 738 q 415 706 422 715 q 402 680 402 692 l 388 158 l 388 112 q 408 54 388 83 q 437 12 428 25 q 447 -9 447 0 q 408 -33 447 -33 l 378 -31 l 280 -35 m 448 1146 q 479 1142 453 1146 q 596 1137 505 1137 q 633 1114 633 1137 q 610 1072 633 1097 q 553 1008 558 1017 q 511 991 534 976 q 502 1003 505 995 q 490 1022 498 1011 q 471 1046 482 1032 q 423 1126 423 1108 q 448 1146 423 1146 m 319 1114 q 296 1072 319 1095 q 239 1008 245 1018 q 183 1004 210 963 l 129 1083 q 134 1146 88 1146 l 172 1142 q 271 1137 222 1137 q 319 1114 319 1137 "},"Ò":{"x_min":71.21875,"x_max":907.46875,"ha":984,"o":"m 786 120 q 655 8 731 46 q 510 -29 579 -29 q 389 -15 441 -29 q 291 26 338 -2 q 204 99 244 54 q 134 207 164 144 q 71 536 71 343 q 190 919 71 771 q 497 1066 309 1066 q 782 956 675 1066 q 907 551 907 826 q 786 120 907 280 m 489 35 q 570 45 531 35 q 647 78 609 54 q 719 139 685 101 q 779 234 753 177 q 836 550 836 360 q 596 990 836 925 q 502 1005 537 1005 q 428 997 467 1005 q 349 969 389 988 q 271 916 309 949 q 204 834 233 883 q 139 563 139 725 q 324 83 139 200 q 489 35 397 37 m 310 1244 q 279 1265 279 1244 q 298 1296 279 1278 q 325 1336 316 1315 q 341 1376 334 1358 q 356 1408 348 1395 q 379 1421 364 1421 q 403 1406 395 1421 q 414 1372 410 1391 q 423 1334 419 1352 q 434 1310 427 1316 q 458 1292 442 1305 q 493 1265 474 1280 q 561 1217 543 1227 q 592 1181 592 1199 q 561 1147 592 1147 q 514 1171 538 1147 q 453 1214 502 1183 q 396 1249 404 1245 q 377 1253 388 1253 l 310 1244 "},"&":{"x_min":104.109375,"x_max":1186.890625,"ha":1245,"o":"m 1184 293 q 1155 276 1184 251 q 1124 307 1140 289 q 1099 333 1108 326 q 1030 358 1072 358 l 925 354 q 926 338 926 346 l 926 322 q 767 2 926 91 q 500 -48 670 -52 q 233 32 349 -46 q 122 181 156 85 q 104 304 104 232 q 127 432 103 375 q 188 528 151 488 q 269 594 225 569 q 354 635 314 620 q 445 661 416 659 q 474 666 474 663 q 464 674 474 670 q 444 685 454 679 q 416 705 435 691 q 378 744 397 720 q 328 869 328 807 q 342 970 328 932 q 378 1035 356 1008 q 428 1079 400 1062 q 484 1106 455 1096 q 659 1113 571 1135 q 715 1105 702 1103 q 739 1110 727 1107 l 819 1139 q 847 1127 847 1145 q 824 1070 847 1113 q 802 1000 803 1030 q 800 950 800 969 q 792 923 800 931 q 774 915 784 915 q 754 928 763 915 q 736 959 745 941 q 703 1020 712 1011 l 689 1034 q 590 1066 666 1057 q 448 1026 508 1077 q 392 891 392 977 q 473 741 392 806 q 542 700 506 714 q 594 686 578 686 q 617 688 610 686 q 633 695 624 691 q 683 730 646 704 q 720 725 720 756 q 714 675 720 704 q 708 605 708 647 l 708 581 q 687 565 708 552 l 640 604 q 611 626 627 615 q 550 623 590 623 q 472 616 511 623 q 393 595 434 610 q 313 555 352 579 q 241 495 273 531 q 173 260 159 400 q 210 148 179 198 q 278 71 240 99 q 505 6 364 6 q 838 184 765 6 q 864 327 864 248 l 863 349 q 790 348 824 349 q 697 347 711 347 q 671 339 684 347 q 647 320 659 331 q 611 278 625 299 q 577 249 590 249 q 558 278 558 249 l 562 344 q 554 417 562 387 q 545 462 545 446 q 560 478 545 478 q 586 465 574 478 q 611 436 598 452 q 680 394 647 394 l 1040 405 q 1098 426 1074 405 q 1138 473 1122 446 q 1171 510 1161 510 q 1186 476 1186 510 l 1181 364 l 1184 293 "},"˝":{"x_min":102.40625,"x_max":782.671875,"ha":817,"o":"m 384 1098 l 317 1107 q 298 1103 306 1107 q 269 1087 290 1100 q 230 1060 249 1074 q 174 1020 183 1028 q 137 1001 155 1001 q 110 1010 119 1001 q 102 1029 102 1019 q 128 1068 102 1053 q 258 1164 154 1083 q 272 1207 265 1168 q 314 1275 286 1275 q 337 1263 330 1275 q 352 1233 345 1251 q 367 1193 358 1214 q 389 1158 376 1171 q 415 1119 415 1131 q 384 1098 415 1098 m 752 1078 l 685 1087 q 666 1083 674 1087 q 637 1066 657 1079 q 598 1040 617 1053 q 542 1000 550 1008 q 505 981 523 981 q 478 990 486 981 q 470 1009 470 999 q 496 1048 470 1033 q 626 1144 522 1063 q 640 1187 632 1148 q 682 1255 654 1255 q 705 1243 697 1255 q 719 1212 712 1230 q 735 1172 726 1194 q 756 1138 744 1151 q 782 1099 782 1110 q 752 1078 782 1078 "},"I":{"x_min":118.015625,"x_max":364.890625,"ha":472,"o":"m 204 0 l 155 -6 q 118 22 118 -6 q 127 44 119 33 q 145 65 136 54 q 165 89 153 76 q 185 112 176 101 q 205 150 205 139 l 208 622 q 204 912 208 784 q 158 976 204 933 q 119 1033 119 1013 q 177 1047 119 1062 q 272 1044 226 1035 q 342 1052 319 1052 q 364 1033 364 1052 q 341 1001 364 1019 q 303 968 318 983 q 281 941 288 953 q 270 898 270 923 l 273 567 l 266 180 l 266 160 q 267 134 266 150 q 285 96 268 118 q 316 56 303 74 q 337 16 337 28 q 300 -5 337 -5 l 204 0 "},"G":{"x_min":67.140625,"x_max":885.671875,"ha":959,"o":"m 841 582 q 881 494 900 582 l 833 166 q 807 26 815 53 q 784 -8 799 -1 q 715 -15 768 -15 q 580 -1 662 -15 q 422 42 497 12 q 282 118 347 71 q 169 229 217 164 q 67 568 67 368 q 170 870 67 747 q 402 1028 256 973 q 644 1074 524 1074 l 722 1068 q 759 1081 743 1068 q 806 1120 781 1097 q 845 1143 830 1143 q 858 1105 867 1143 q 851 1026 851 1070 l 855 953 q 838 915 855 915 q 805 941 826 915 q 761 982 784 967 q 718 1003 739 997 q 541 1003 659 1022 q 324 919 423 984 q 164 712 211 847 q 139 542 139 641 q 170 364 139 442 q 250 230 201 286 q 362 139 300 174 q 486 84 424 104 q 731 49 624 38 q 763 174 746 60 q 787 336 780 288 l 810 492 q 810 497 810 495 q 771 526 810 526 l 607 526 q 523 493 562 526 l 487 457 q 465 448 476 448 q 455 460 455 448 q 459 500 455 476 q 472 609 472 559 l 469 652 q 487 691 469 691 q 520 668 500 691 q 553 630 539 644 q 577 607 566 616 q 615 590 598 592 q 650 587 632 588 q 688 585 667 586 q 733 584 710 585 q 777 583 756 583 q 841 582 841 582 "},"`":{"x_min":96.984375,"x_max":409.640625,"ha":539,"o":"m 127 1098 q 96 1119 96 1098 q 115 1151 96 1132 q 143 1191 134 1169 q 159 1231 151 1212 q 173 1262 166 1249 q 197 1275 181 1275 q 220 1260 212 1275 q 232 1226 227 1245 q 240 1188 236 1207 q 252 1165 244 1170 q 276 1147 259 1159 q 311 1119 292 1134 q 379 1071 360 1081 q 409 1036 409 1053 q 379 1001 409 1001 q 331 1026 356 1001 q 270 1068 320 1037 q 213 1103 221 1100 q 194 1107 205 1107 l 127 1098 "},"·":{"x_min":146.5,"x_max":383.875,"ha":517,"o":"m 343 584 q 383 559 383 584 q 357 513 383 541 q 315 467 331 484 q 293 438 299 451 q 237 433 261 382 q 198 492 221 464 q 146 567 146 554 q 185 594 146 601 q 301 583 236 583 l 343 584 "},"¿":{"x_min":91.84375,"x_max":706.9375,"ha":789,"o":"m 385 739 l 441 742 q 468 729 468 742 q 457 707 468 717 q 431 686 445 698 q 393 613 393 656 q 361 390 393 466 q 281 274 335 331 q 236 230 258 251 q 198 184 215 209 q 158 73 158 129 q 171 -17 158 16 q 209 -75 184 -52 q 345 -123 259 -123 q 540 -4 479 -123 q 529 91 561 34 q 542 121 513 121 q 581 109 555 121 q 660 85 636 84 q 695 80 683 86 q 706 63 706 73 q 696 46 706 53 q 671 30 685 38 q 613 -17 628 5 q 572 -70 598 -39 q 511 -127 546 -101 q 281 -182 405 -206 q 187 -142 224 -170 q 133 -88 151 -114 q 91 52 91 -29 q 176 257 91 174 q 265 352 244 325 q 297 408 287 379 q 313 467 308 436 q 323 527 319 497 q 328 643 335 627 q 312 670 320 660 l 274 710 q 266 729 266 720 q 325 743 266 756 q 385 739 347 739 m 298 921 q 261 942 261 921 q 284 986 261 958 q 316 1027 308 1014 q 332 1052 325 1041 q 360 1079 350 1079 q 378 1065 369 1079 q 399 1036 386 1052 q 427 1003 413 1020 q 468 953 465 959 q 472 939 472 947 q 447 921 472 921 l 390 925 l 298 921 "},"ý":{"x_min":30.890625,"x_max":891.40625,"ha":899,"o":"m 329 -20 l 296 -21 q 276 12 259 -21 q 302 43 284 27 q 328 70 319 60 q 353 118 350 94 q 359 165 356 141 q 365 214 362 189 l 391 425 q 172 668 230 478 q 147 759 155 722 q 129 806 138 796 q 111 824 120 815 q 89 840 102 832 q 64 861 77 849 q 30 911 30 889 q 50 925 30 925 q 93 926 69 925 q 141 931 117 928 q 220 946 199 938 q 248 954 241 954 q 260 943 260 954 q 250 916 260 931 q 229 884 241 901 q 198 813 198 836 q 205 756 198 789 q 225 688 211 724 q 259 615 239 651 q 306 550 279 579 q 445 484 369 484 q 683 664 589 484 q 731 793 724 741 q 698 850 731 813 q 667 898 667 886 q 687 916 667 916 q 717 912 692 916 q 767 909 741 909 q 806 911 792 909 q 831 914 820 912 q 868 920 860 920 q 878 870 908 920 q 842 828 865 848 q 787 765 796 788 q 765 707 778 741 q 733 634 752 672 q 688 559 714 596 q 629 491 662 521 q 458 420 552 423 q 438 269 457 412 q 417 106 417 116 q 427 79 417 96 q 451 46 438 62 q 474 15 463 29 q 484 -11 484 0 q 460 -27 484 -27 l 329 -20 m 659 1100 l 592 1109 q 573 1105 581 1109 q 544 1089 565 1102 q 505 1062 524 1076 q 449 1022 458 1030 q 412 1003 430 1003 q 385 1012 394 1003 q 377 1031 377 1021 q 403 1070 377 1055 q 533 1166 429 1085 q 547 1209 540 1170 q 589 1277 561 1277 q 612 1265 605 1277 q 627 1235 620 1253 q 642 1195 633 1216 q 664 1160 651 1173 q 690 1121 690 1133 q 659 1100 690 1100 "},"º":{"x_min":137,"x_max":675.515625,"ha":782,"o":"m 569 570 q 498 497 538 523 q 417 471 459 472 q 345 476 376 471 q 286 495 315 481 q 232 534 257 509 q 187 598 206 558 q 146 826 146 683 q 221 1079 146 986 q 408 1169 292 1169 q 617 993 562 1169 q 638 839 638 929 q 619 683 638 750 q 569 570 600 617 m 277 590 q 338 545 305 557 q 403 534 372 534 q 463 553 434 535 q 516 610 493 572 q 571 847 571 695 q 514 1050 571 975 q 465 1096 491 1081 q 426 1110 439 1110 q 406 1109 414 1110 q 389 1106 398 1108 q 322 1083 347 1102 q 279 1043 297 1063 q 248 994 262 1024 q 216 833 216 927 q 233 681 216 740 q 277 590 250 622 m 675 162 q 638 128 675 119 q 606 149 632 130 q 532 194 543 193 q 506 196 521 196 q 470 195 492 196 q 422 194 448 195 q 367 192 395 193 q 282 188 312 190 q 237 173 252 186 q 208 147 221 161 q 160 109 173 109 q 137 139 137 109 q 139 166 137 151 q 143 196 141 181 q 149 251 149 241 l 143 299 q 149 317 143 311 q 162 323 155 323 q 184 311 170 323 q 212 284 198 299 q 259 246 253 246 q 521 259 382 246 q 588 301 549 261 l 615 328 q 638 340 628 340 q 664 288 664 340 l 663 231 q 669 189 663 210 q 675 162 675 169 "},"∞":{"x_min":61.046875,"x_max":1299.890625,"ha":1360,"o":"m 502 130 q 432 97 470 110 q 337 84 394 84 q 225 109 280 84 q 134 177 171 134 q 61 389 61 263 q 137 594 61 516 q 335 673 212 673 q 625 496 521 673 q 644 464 636 476 q 666 459 657 444 q 774 603 693 531 q 986 695 874 695 q 1273 515 1201 695 q 1279 259 1323 390 q 1121 84 1237 137 q 995 56 1061 56 q 887 71 929 56 q 813 107 845 85 q 756 158 780 130 q 714 212 732 185 q 666 302 699 235 q 656 309 663 309 q 638 287 643 309 q 609 233 634 266 q 558 175 583 200 q 502 130 533 151 m 695 379 q 742 294 716 339 q 801 210 767 248 q 984 119 880 119 q 1154 188 1085 119 q 1227 385 1227 263 q 1093 611 1227 548 q 824 560 956 674 q 695 379 736 484 m 260 169 q 355 153 303 153 q 445 174 406 153 q 516 229 484 196 q 615 383 570 284 q 562 463 588 423 q 504 535 536 503 q 337 607 434 607 q 187 545 244 607 q 132 389 132 485 q 260 169 132 218 "},"ű":{"x_min":96.984375,"x_max":911.671875,"ha":920,"o":"m 634 166 l 634 182 l 616 491 l 582 394 q 517 230 536 266 q 480 169 497 193 q 440 124 462 144 q 330 81 389 81 q 156 408 156 81 l 164 739 q 147 781 164 763 q 118 811 129 799 q 96 847 96 832 q 134 869 96 869 l 179 867 q 261 875 230 867 q 299 883 293 883 q 316 870 316 883 q 274 805 316 846 q 243 775 257 790 q 227 749 229 760 q 224 706 226 738 q 221 630 223 674 q 218 352 212 413 q 231 260 224 291 q 250 206 238 229 q 330 151 279 151 q 544 453 445 151 q 592 781 631 717 q 559 810 583 794 q 525 850 525 832 q 563 876 525 876 l 596 876 q 672 881 646 876 q 706 888 701 888 q 727 869 727 888 q 705 824 727 850 q 672 782 682 798 q 661 752 661 766 q 662 710 661 737 q 666 644 663 683 q 670 557 668 604 q 676 459 673 509 q 682 362 679 410 q 689 275 686 314 q 699 171 696 185 q 705 148 701 158 q 714 130 709 138 l 756 80 q 744 48 769 56 q 679 44 726 44 q 615 39 632 44 q 567 52 567 24 q 574 77 567 69 q 590 96 581 86 q 609 120 599 107 q 634 166 632 153 m 513 1124 l 446 1133 q 427 1129 435 1133 q 398 1113 419 1126 q 359 1086 378 1100 q 303 1046 312 1054 q 266 1027 284 1027 q 239 1036 248 1027 q 231 1055 231 1045 q 257 1094 231 1079 q 387 1190 283 1109 q 401 1233 394 1194 q 443 1301 415 1301 q 466 1289 459 1301 q 481 1259 474 1277 q 496 1219 487 1240 q 518 1184 505 1197 q 544 1145 544 1157 q 513 1124 544 1124 m 881 1104 l 814 1113 q 795 1109 803 1113 q 766 1092 786 1105 q 727 1066 746 1079 q 671 1026 679 1034 q 634 1007 652 1007 q 607 1016 615 1007 q 599 1035 599 1025 q 625 1074 599 1059 q 755 1170 651 1089 q 769 1213 761 1174 q 811 1281 783 1281 q 834 1269 826 1281 q 848 1238 841 1256 q 864 1198 855 1220 q 885 1164 873 1177 q 911 1125 911 1136 q 881 1104 911 1104 "},"\u0005":{"x_min":0,"x_max":0,"ha":0},"\b":{"x_min":0,"x_max":0,"ha":0},"Ǽ":{"x_min":28.3125,"x_max":1267.59375,"ha":1293,"o":"m 236 105 q 234 85 234 99 q 255 -27 234 72 q 229 -62 261 -62 q 197 -49 208 -62 q 168 -26 185 -36 q 131 -4 151 -15 q 67 31 88 21 q 33 77 13 55 q 112 111 62 107 l 112 110 q 192 163 137 113 q 276 273 212 181 q 440 514 404 460 q 263 511 279 514 q 231 496 246 507 q 202 471 216 484 q 152 438 168 438 q 132 463 132 438 q 143 567 132 463 l 140 618 q 164 665 140 665 q 201 634 176 665 q 271 572 252 572 q 480 567 277 572 q 731 967 679 858 l 693 1009 l 644 1052 q 643 1061 643 1055 q 675 1080 643 1080 q 735 1086 694 1080 l 794 1094 q 854 1077 854 1103 q 844 1049 853 1061 q 825 1023 834 1037 q 812 1000 815 1010 q 807 979 808 990 q 803 931 805 967 q 939 961 866 945 q 1087 1006 1013 978 q 1155 1089 1114 1017 q 1187 1114 1170 1114 q 1210 1099 1204 1114 q 1220 1060 1216 1084 q 1247 957 1232 985 q 1263 917 1263 930 q 1256 900 1263 905 q 1241 895 1248 895 q 1223 903 1234 895 q 1114 944 1154 949 q 1031 928 1075 938 q 945 906 988 918 l 798 864 l 785 562 l 936 563 l 1066 564 q 1163 621 1121 564 q 1179 636 1169 630 q 1196 642 1189 642 q 1216 601 1227 642 q 1199 469 1199 544 l 1201 440 q 1195 418 1201 429 q 1181 406 1189 406 q 1154 423 1166 406 l 1125 465 q 1095 496 1107 491 q 998 507 1068 507 l 830 505 l 782 505 l 769 138 q 944 61 819 113 q 1093 -2 1069 8 q 1127 -13 1117 -13 q 1163 -3 1138 -13 q 1209 13 1188 6 q 1251 23 1241 23 q 1267 6 1267 23 q 1258 -27 1267 -10 q 1234 -63 1248 -44 q 1183 -149 1193 -120 q 1148 -192 1167 -192 q 1113 -130 1125 -192 q 1077 -60 1102 -73 q 1012 -28 1053 -46 q 927 8 972 -10 q 766 72 843 43 l 766 56 q 804 -6 766 21 q 829 -24 817 -16 q 841 -42 841 -32 q 800 -64 841 -61 q 734 -69 760 -66 q 691 -75 708 -72 q 646 -82 652 -82 q 615 -68 615 -82 q 627 -38 615 -49 q 648 -12 638 -27 q 670 18 659 2 q 697 84 695 62 q 700 151 698 106 q 705 254 702 197 l 715 507 q 516 512 552 511 q 309 209 370 295 q 236 105 249 124 m 556 564 q 718 563 640 563 l 738 859 l 698 793 q 556 564 619 661 m 1128 1252 l 1061 1261 q 1042 1257 1050 1261 q 1013 1241 1034 1253 q 974 1215 993 1228 q 918 1174 927 1182 q 881 1155 899 1155 q 854 1164 863 1155 q 846 1184 846 1173 q 872 1222 846 1207 q 1002 1318 898 1237 q 1016 1361 1009 1322 q 1058 1429 1030 1429 q 1081 1417 1074 1429 q 1095 1386 1089 1405 q 1111 1347 1102 1368 q 1133 1312 1120 1325 q 1159 1273 1159 1285 q 1128 1252 1159 1252 "},"ń":{"x_min":122.703125,"x_max":935.28125,"ha":962,"o":"m 320 -4 q 299 -23 320 -23 l 264 -20 l 142 -15 q 138 31 105 -13 l 180 93 q 193 121 191 109 q 198 160 196 134 q 202 226 200 187 q 206 316 204 266 q 211 418 208 365 q 216 524 214 471 q 219 623 218 577 q 223 776 223 725 q 196 825 219 796 q 164 866 174 854 q 155 884 155 878 q 176 899 155 899 q 220 899 197 899 q 267 900 244 900 l 356 908 q 364 861 394 908 l 298 786 q 287 768 288 773 q 285 742 286 762 q 283 697 284 723 q 278 591 280 663 q 378 751 314 678 q 551 842 459 842 q 754 650 685 842 q 789 512 775 592 q 813 378 804 432 q 828 291 822 324 q 840 223 838 231 q 850 203 842 215 q 870 179 859 191 q 914 145 893 155 q 935 120 935 135 q 922 100 935 105 q 888 92 910 95 q 795 71 819 82 q 753 56 766 56 q 732 90 720 56 l 746 119 q 774 203 774 187 q 772 241 774 219 q 766 292 769 263 q 750 393 758 358 q 736 467 742 429 q 721 547 730 505 q 699 630 712 589 q 664 704 685 671 q 544 778 619 778 q 343 595 430 778 q 273 370 279 461 q 259 137 259 156 q 265 101 259 117 q 281 69 272 86 l 317 10 q 320 -4 320 2 m 736 1090 l 668 1099 q 649 1095 658 1099 q 621 1079 641 1092 q 582 1052 601 1066 q 526 1012 534 1020 q 489 993 507 993 q 462 1002 470 993 q 453 1021 453 1011 q 480 1060 453 1045 q 609 1156 506 1075 q 624 1199 616 1160 q 666 1267 638 1267 q 689 1255 681 1267 q 703 1225 696 1243 q 719 1185 710 1206 q 740 1150 727 1163 q 766 1111 766 1123 q 736 1090 766 1090 "},";":{"x_min":134.28125,"x_max":386.59375,"ha":517,"o":"m 343 859 q 383 834 383 859 q 357 788 383 816 q 315 742 331 759 q 293 713 299 726 q 237 708 261 657 q 198 767 221 739 q 146 842 146 829 q 185 869 146 876 q 301 858 236 858 l 343 859 m 386 130 q 378 107 386 120 q 360 76 370 95 q 337 35 350 58 q 308 -12 324 12 q 274 -61 293 -37 q 144 -134 183 -180 q 134 -110 134 -121 q 140 -96 134 -99 q 161 -80 145 -92 q 194 -52 177 -68 q 237 3 237 -14 q 224 34 237 21 q 197 67 212 48 q 175 97 183 86 q 164 115 167 108 q 158 132 158 124 q 181 150 158 150 l 261 144 q 334 149 316 144 q 386 130 386 164 "},"6":{"x_min":111.90625,"x_max":689.75,"ha":798,"o":"m 191 279 q 198 307 192 279 q 226 370 204 335 q 281 430 248 405 q 450 478 347 478 q 611 412 539 478 q 689 225 689 339 q 595 20 689 90 q 373 -27 497 -50 q 236 43 301 -14 q 128 241 161 109 q 111 419 111 310 q 142 629 111 529 q 223 809 173 729 q 460 1059 307 944 q 505 1100 496 1087 q 529 1148 523 1123 q 556 1199 539 1199 q 572 1187 564 1199 q 583 1153 581 1176 q 592 1115 586 1131 q 607 1085 598 1099 q 632 1044 612 1075 q 652 1002 652 1013 q 626 992 652 988 q 611 1000 620 994 q 593 1010 602 1006 q 575 1017 583 1015 q 519 1019 539 1027 q 489 1004 500 1011 q 206 592 275 861 q 182 390 182 502 q 191 279 182 279 m 259 308 q 240 224 240 269 q 250 153 240 179 q 275 107 259 127 q 310 71 290 86 q 351 47 330 56 q 548 65 450 0 q 619 206 619 112 q 560 363 619 303 q 370 405 486 437 q 259 308 293 383 "},"n":{"x_min":122.703125,"x_max":935.28125,"ha":962,"o":"m 320 -4 q 299 -23 320 -23 l 264 -20 l 142 -15 q 138 31 105 -13 l 180 93 q 193 121 191 109 q 198 160 196 134 q 202 226 200 187 q 206 316 204 266 q 211 418 208 365 q 216 524 214 471 q 219 623 218 577 q 223 776 223 725 q 196 825 219 796 q 164 866 174 854 q 155 884 155 878 q 176 899 155 899 q 220 899 197 899 q 267 900 244 900 l 356 908 q 364 861 394 908 l 298 786 q 287 768 288 773 q 285 742 286 762 q 283 697 284 723 q 278 591 280 663 q 378 751 314 678 q 551 842 459 842 q 754 650 685 842 q 789 512 775 592 q 813 378 804 432 q 828 291 822 324 q 840 223 838 231 q 850 203 842 215 q 870 179 859 191 q 914 145 893 155 q 935 120 935 135 q 922 100 935 105 q 888 92 910 95 q 795 71 819 82 q 753 56 766 56 q 732 90 720 56 l 746 119 q 774 203 774 187 q 772 241 774 219 q 766 292 769 263 q 750 393 758 358 q 736 467 742 429 q 721 547 730 505 q 699 630 712 589 q 664 704 685 671 q 544 778 619 778 q 343 595 430 778 q 273 370 279 461 q 259 137 259 156 q 265 101 259 117 q 281 69 272 86 l 317 10 q 320 -4 320 2 "},"\u0017":{"x_min":0,"x_max":0,"ha":0},"¤":{"x_min":43.578125,"x_max":986.140625,"ha":969,"o":"m 202 -54 q 183 -81 202 -81 q 158 -70 170 -81 q 140 -51 147 -59 q 124 -34 132 -42 q 85 -4 110 -19 q 49 52 27 30 q 72 62 59 62 q 99 63 84 63 q 162 88 139 64 l 248 184 q 177 399 177 269 q 255 627 177 529 l 184 704 q 108 734 155 734 q 61 759 61 734 q 87 792 61 777 q 123 815 112 807 q 143 832 134 824 l 177 868 q 201 879 188 879 q 221 851 221 879 l 214 799 q 227 750 214 764 q 296 671 242 735 q 515 756 390 756 q 728 683 640 756 q 816 781 816 781 q 829 846 829 803 q 837 899 829 889 q 854 909 846 909 q 870 903 863 909 q 884 888 877 897 q 932 835 914 849 q 961 813 950 822 q 986 780 986 794 q 971 762 986 767 q 937 756 957 757 q 895 751 917 754 q 854 731 873 748 q 767 642 821 701 q 842 390 842 550 q 777 189 842 267 q 845 120 817 144 q 894 93 872 96 q 936 87 916 89 q 971 80 956 85 q 986 65 986 75 q 979 46 986 54 q 961 29 971 38 l 914 -8 l 870 -59 q 842 -60 855 -71 q 829 -24 829 -49 q 816 62 829 40 l 736 150 q 495 75 640 75 q 349 108 424 75 q 291 143 320 122 q 205 43 237 78 q 196 -1 196 31 l 202 -54 m 323 606 q 267 515 288 567 q 247 409 247 464 q 261 312 247 354 q 296 240 274 270 q 346 191 318 210 q 401 161 373 172 q 478 141 451 141 q 531 143 506 141 q 587 154 556 145 q 653 179 619 162 q 714 223 687 196 q 779 394 779 289 q 621 675 779 617 q 515 693 573 693 q 407 669 456 693 q 323 606 359 645 "},"∂":{"x_min":132.9375,"x_max":783.34375,"ha":929,"o":"m 356 765 l 299 773 q 254 769 272 773 q 199 768 210 758 q 187 786 187 777 q 197 806 187 794 q 219 831 206 817 q 262 893 253 868 q 288 947 271 918 q 335 1002 305 975 q 505 1068 406 1068 q 716 916 643 1068 q 783 544 783 776 q 670 130 783 288 q 544 15 617 55 q 395 -25 472 -25 q 270 -3 318 -25 q 191 58 221 18 q 132 274 132 133 q 244 549 132 424 q 404 659 314 628 q 495 674 448 674 q 715 566 637 674 l 716 591 q 595 972 716 878 q 507 1006 550 1006 q 437 992 464 1006 q 389 961 410 979 q 347 911 362 936 q 332 872 332 885 q 375 803 332 853 q 385 781 385 790 q 356 765 385 765 m 712 486 q 495 615 633 615 q 284 499 373 615 q 221 385 237 436 q 208 185 191 286 q 291 55 223 97 q 389 33 326 33 q 508 64 452 33 q 607 153 564 94 q 712 486 694 271 "},"p":{"x_min":65.78125,"x_max":720.265625,"ha":793,"o":"m 101 -282 q 65 -263 65 -282 q 81 -235 65 -250 q 116 -203 97 -221 q 167 -119 167 -157 l 166 -20 l 164 206 l 160 478 q 154 810 157 796 q 145 833 151 823 q 131 851 139 843 l 100 885 q 69 931 69 916 q 96 952 69 952 l 161 945 q 213 950 191 945 q 251 954 236 954 q 299 929 299 954 q 280 898 299 913 q 249 872 261 883 q 231 853 238 862 q 219 825 219 836 q 220 800 219 814 q 221 767 220 786 l 222 688 q 327 793 255 755 q 515 823 411 838 q 707 661 663 803 q 720 565 720 619 q 706 474 720 512 q 671 409 693 436 q 620 363 649 381 q 564 334 592 345 q 483 314 513 314 q 437 315 454 314 q 398 320 419 316 q 352 332 376 324 q 305 353 328 340 q 225 431 251 383 l 227 313 q 231 33 230 143 q 234 -108 231 -75 q 243 -156 236 -141 q 261 -183 250 -171 l 309 -233 q 324 -263 324 -250 q 286 -287 324 -287 q 256 -282 282 -287 q 179 -278 230 -278 l 101 -282 m 581 409 q 618 443 602 423 q 653 549 653 490 q 643 641 653 608 q 617 696 634 674 q 580 733 600 719 q 538 754 559 746 q 458 766 503 766 q 372 747 413 766 q 302 699 332 728 q 239 567 239 636 q 374 389 239 434 q 581 409 492 352 "},"‡":{"x_min":192.671875,"x_max":647.703125,"ha":821,"o":"m 333 -26 q 301 0 301 -26 q 379 69 301 22 q 392 86 392 77 l 392 415 l 340 410 q 283 380 310 405 q 244 345 257 356 q 219 334 232 334 q 196 368 196 334 l 199 420 l 193 520 q 219 550 193 550 q 246 538 234 550 q 271 511 258 526 q 341 472 307 472 q 392 475 351 472 l 387 737 q 340 730 368 736 q 296 712 312 724 q 265 688 279 700 q 215 657 227 657 q 193 685 187 657 q 205 777 205 731 l 200 847 q 219 872 200 872 q 265 843 240 872 q 326 795 305 795 q 386 798 360 795 l 384 887 q 381 937 383 929 q 372 951 379 944 q 357 965 366 959 q 305 1008 314 999 q 295 1032 295 1017 q 317 1054 295 1054 q 367 1049 339 1054 q 425 1044 396 1044 l 507 1052 q 538 1026 538 1052 q 461 956 538 1003 q 448 940 448 948 l 448 802 l 500 807 q 569 847 529 810 q 596 872 583 861 q 621 883 608 883 q 642 816 649 883 q 641 801 642 809 q 639 766 639 779 l 647 699 q 621 666 647 666 q 594 678 607 666 q 569 705 582 691 q 499 744 533 744 q 448 741 489 744 l 453 479 q 498 486 472 480 q 539 503 524 492 q 569 527 554 515 q 627 560 607 560 q 647 539 647 560 l 638 482 q 635 439 635 459 l 640 369 q 621 345 640 345 q 575 374 600 345 q 514 421 535 421 q 454 419 480 421 l 456 234 q 459 88 457 94 q 467 74 461 81 q 483 59 474 67 q 535 17 525 27 q 544 -6 544 8 q 522 -28 544 -28 q 472 -23 500 -28 q 415 -18 444 -18 l 333 -26 "},"√":{"x_min":70.53125,"x_max":1086.515625,"ha":929,"o":"m 70 497 q 116 528 70 516 q 238 579 162 541 q 268 564 268 594 q 259 525 268 552 q 244 439 238 459 q 359 204 246 434 l 467 -12 l 733 664 l 830 908 l 892 1067 q 906 1111 906 1102 q 901 1131 906 1121 q 889 1152 896 1142 l 861 1197 q 853 1220 853 1209 q 874 1239 853 1239 q 905 1229 890 1239 q 937 1212 919 1219 q 976 1199 954 1205 q 1045 1183 1017 1188 q 1080 1172 1074 1179 q 1086 1157 1086 1166 q 1074 1136 1086 1147 q 1049 1124 1063 1125 q 1024 1116 1034 1122 q 1003 1102 1013 1110 q 963 1065 985 1089 q 861 825 948 1047 q 742 521 774 602 q 680 361 710 440 q 622 211 650 282 q 572 82 594 139 l 516 -63 q 440 -88 480 -158 l 271 249 q 185 412 196 398 q 166 432 175 425 q 146 446 156 440 l 93 472 q 70 497 70 483 "},"S":{"x_min":74.609375,"x_max":626.9375,"ha":764,"o":"m 609 904 q 574 881 609 866 q 533 912 549 891 q 477 978 511 942 q 291 944 361 992 q 225 803 225 897 q 306 645 225 727 q 394 567 356 595 q 462 517 433 539 q 518 469 491 495 q 567 412 545 443 q 614 263 614 344 q 438 36 614 105 q 229 -2 339 -2 q 128 -74 191 -2 q 88 -65 99 -107 l 89 3 q 82 110 89 73 q 74 152 74 146 q 92 176 74 176 q 118 163 105 176 q 146 132 130 150 q 227 67 190 83 q 242 67 235 67 l 258 67 q 482 131 407 67 q 546 280 546 187 q 431 457 546 364 l 301 564 q 162 803 162 676 q 246 987 162 927 q 438 1038 316 1038 l 472 1037 q 545 1076 499 1037 q 577 1102 562 1090 q 605 1115 592 1115 q 625 1077 632 1115 q 605 966 605 1003 l 609 904 "},"/":{"x_min":27.8125,"x_max":859.984375,"ha":892,"o":"m 205 -206 q 185 -252 218 -252 q 161 -242 172 -252 q 134 -225 149 -233 q 105 -209 120 -217 q 46 -185 84 -199 q 27 -166 27 -178 q 32 -145 27 -153 q 51 -133 37 -137 q 80 -126 65 -130 q 138 -91 123 -114 q 300 243 162 -53 q 473 618 437 541 q 542 767 509 695 q 603 896 575 838 q 672 1039 655 1008 q 693 1094 693 1079 q 690 1119 693 1110 q 685 1135 688 1127 q 682 1181 673 1170 q 704 1192 691 1192 q 745 1174 718 1192 q 802 1134 777 1144 q 843 1116 826 1125 q 859 1096 859 1108 q 815 1067 859 1070 q 756 1045 781 1065 q 746 1032 750 1040 q 723 986 741 1024 q 677 893 704 948 q 617 768 651 838 q 548 622 584 699 q 473 465 512 545 q 398 308 435 385 q 328 161 362 231 q 268 35 295 91 q 197 -117 202 -105 q 191 -142 191 -129 q 193 -166 191 -155 l 205 -206 "},"y":{"x_min":12.890625,"x_max":873.40625,"ha":861,"o":"m 311 -20 l 278 -21 q 258 12 241 -21 q 284 43 266 27 q 310 70 301 60 q 335 118 332 94 q 341 165 338 141 q 347 214 344 189 l 373 425 q 154 668 212 478 q 129 759 137 722 q 111 806 120 796 q 93 824 102 815 q 71 840 84 832 q 46 861 59 849 q 12 911 12 889 q 32 925 12 925 q 75 926 51 925 q 123 931 99 928 q 202 946 181 938 q 230 954 223 954 q 242 943 242 954 q 232 916 242 931 q 211 884 223 901 q 180 813 180 836 q 187 756 180 789 q 207 688 193 724 q 241 615 221 651 q 288 550 261 579 q 427 484 351 484 q 665 664 571 484 q 713 793 706 741 q 680 850 713 813 q 649 898 649 886 q 669 916 649 916 q 699 912 674 916 q 749 909 723 909 q 788 911 774 909 q 813 914 802 912 q 850 920 842 920 q 860 870 890 920 q 824 828 847 848 q 769 765 778 788 q 747 707 760 741 q 715 634 734 672 q 670 559 696 596 q 611 491 644 521 q 440 420 534 423 q 420 269 439 412 q 399 106 399 116 q 409 79 399 96 q 433 46 420 62 q 456 15 445 29 q 466 -11 466 0 q 442 -27 466 -27 l 311 -20 "},"≈":{"x_min":56.875,"x_max":1052.5625,"ha":1062,"o":"m 885 327 q 916 385 885 385 q 943 359 934 385 q 1028 246 965 297 q 1050 216 1050 229 q 1007 192 1050 183 q 918 200 935 206 l 849 157 q 727 118 781 118 q 639 133 674 118 q 579 168 605 147 q 531 214 552 189 q 486 260 509 239 q 370 310 432 310 q 242 256 290 310 q 224 235 231 243 q 216 207 218 226 q 210 170 213 189 q 202 138 208 152 q 182 124 196 124 q 159 134 168 124 q 148 156 149 144 q 141 182 147 167 q 124 213 134 197 q 80 264 103 246 q 69 312 40 295 q 105 317 88 324 q 176 294 159 294 q 208 306 193 294 q 244 334 223 319 q 361 374 302 374 q 456 360 420 374 q 517 324 491 345 q 563 277 543 302 q 605 230 583 252 q 822 208 697 139 q 876 252 861 230 q 886 291 886 260 l 885 327 m 887 673 q 918 731 887 731 q 945 705 936 731 q 1030 592 967 643 q 1052 562 1052 575 q 1009 538 1052 529 q 920 546 937 552 l 851 503 q 729 464 783 464 q 641 479 676 464 q 581 514 607 493 q 533 560 554 535 q 488 606 511 585 q 372 656 434 656 q 244 602 292 656 q 226 581 233 589 q 218 553 220 572 q 212 516 215 535 q 204 484 210 498 q 184 470 198 470 q 161 480 170 470 q 150 502 151 490 q 143 528 149 513 q 126 559 136 543 q 82 610 105 592 q 71 658 42 641 q 107 663 90 670 q 178 640 161 640 q 210 652 195 640 q 246 680 225 665 q 363 720 304 720 q 458 706 422 720 q 519 670 493 691 q 565 623 545 648 q 607 576 585 598 q 824 554 699 485 q 878 598 863 576 q 888 637 888 606 l 887 673 "},"g":{"x_min":49.515625,"x_max":854.8125,"ha":924,"o":"m 678 742 q 710 648 710 697 q 698 572 710 600 q 668 521 687 544 q 624 481 649 499 q 573 451 599 464 q 471 420 522 428 q 427 358 427 385 q 443 316 427 331 q 486 289 459 301 q 546 268 512 278 q 616 246 580 259 q 685 216 651 233 q 746 173 719 199 q 805 20 805 115 q 674 -181 805 -110 q 363 -237 540 -255 q 213 -201 274 -227 q 120 -148 152 -174 q 49 -2 49 -89 q 70 84 49 28 q 80 148 78 115 l 82 202 q 85 247 84 223 q 107 272 87 272 q 130 260 118 272 q 160 229 143 247 q 260 156 208 179 q 281 134 281 147 q 268 111 281 121 q 236 100 256 102 q 195 96 217 99 q 157 85 173 94 q 119 -10 119 63 q 219 -134 119 -86 q 438 -178 311 -178 q 647 -120 558 -178 q 735 20 735 -62 q 615 181 735 135 q 513 216 583 194 q 417 252 443 238 q 358 338 358 286 q 384 422 358 391 q 255 495 308 439 q 198 621 198 555 q 221 727 198 687 q 282 792 244 767 q 462 839 352 839 q 642 781 571 839 q 689 893 672 819 q 700 931 694 916 q 719 946 707 946 q 738 940 731 946 q 758 919 746 934 l 844 815 q 847 775 863 793 q 832 767 841 767 q 806 767 823 767 q 768 763 790 766 q 678 742 709 756 m 318 523 q 373 490 342 502 q 426 478 403 478 q 470 481 449 478 q 514 492 491 484 q 561 511 537 499 q 602 541 584 523 q 644 628 644 581 q 629 701 644 674 q 588 746 613 729 q 460 777 540 777 q 282 701 330 777 q 264 636 264 673 q 279 572 264 600 q 318 523 294 543 "},"ĸ":{"x_min":74.609375,"x_max":746.046875,"ha":730,"o":"m 98 19 q 76 37 76 19 q 97 80 76 52 q 144 163 139 137 q 148 748 154 421 l 103 806 q 74 861 74 844 q 94 879 74 884 q 250 880 161 864 q 286 868 286 887 q 264 820 286 849 q 229 774 242 791 q 213 740 217 757 l 210 480 q 491 725 379 609 q 512 797 506 750 q 526 852 518 844 q 547 861 535 861 q 570 848 560 861 q 592 816 580 835 q 655 737 627 758 q 683 700 683 715 q 643 676 683 676 l 595 680 q 535 668 554 680 l 534 668 q 257 439 511 656 q 541 214 404 311 q 595 176 577 189 q 638 161 613 163 q 687 158 663 159 q 728 152 711 156 q 746 134 746 148 q 734 108 746 120 q 706 84 722 96 q 651 27 661 46 q 592 -5 619 -34 q 577 35 581 4 q 571 80 573 67 q 557 121 567 110 l 450 204 q 208 404 312 313 l 207 221 l 207 162 q 230 114 207 149 q 275 33 275 50 q 256 17 275 17 l 198 20 l 98 19 "},"²":{"x_min":14.921875,"x_max":531.046875,"ha":633,"o":"m 527 592 q 480 577 527 556 l 428 626 q 380 641 412 639 q 314 642 349 642 q 188 639 223 642 q 139 636 153 636 q 99 678 74 636 q 114 702 105 689 q 140 735 124 715 q 174 778 155 754 q 243 864 214 827 q 385 1085 349 997 q 393 1122 393 1105 q 385 1152 394 1138 q 362 1176 376 1166 q 246 1189 317 1208 q 215 1181 223 1184 q 200 1168 206 1178 q 189 1144 194 1158 q 176 1084 177 1110 q 151 1037 173 1037 q 135 1044 142 1037 q 117 1063 129 1051 q 89 1089 104 1075 q 39 1133 63 1114 q 14 1167 14 1152 q 103 1204 14 1195 q 141 1210 124 1207 q 173 1221 158 1214 q 207 1234 189 1227 q 407 1214 330 1277 q 432 1044 480 1155 q 268 803 400 966 q 192 701 192 709 q 221 695 192 693 l 381 699 q 421 721 393 699 q 469 770 448 743 q 512 808 498 808 q 531 770 531 808 l 524 713 q 522 682 522 700 l 527 592 "},"–":{"x_min":149.203125,"x_max":963.078125,"ha":1112,"o":"m 836 399 l 281 403 q 213 375 240 403 q 194 355 203 364 q 170 346 185 346 q 149 375 149 346 l 159 453 q 155 509 159 453 q 162 532 155 522 q 176 541 168 541 q 213 511 195 541 q 259 470 229 486 q 270 466 266 466 q 687 461 623 461 q 785 461 748 461 q 836 462 822 461 q 864 475 850 464 q 890 497 878 485 q 913 518 902 509 q 937 528 924 528 q 959 497 959 528 l 954 423 l 963 361 q 937 335 963 335 q 900 355 923 335 q 864 386 878 375 q 836 399 851 396 "},"ë":{"x_min":82.75,"x_max":876.9375,"ha":937,"o":"m 876 111 q 836 86 876 73 q 758 102 771 106 q 721 87 744 97 q 666 65 697 76 q 419 44 555 27 q 238 104 322 55 q 103 270 143 159 q 82 406 82 328 q 103 545 82 484 q 158 654 124 606 q 238 737 193 702 q 332 794 283 771 q 630 828 470 860 q 802 720 748 804 q 830 622 830 677 q 818 534 830 568 q 788 475 807 500 q 745 433 769 450 q 695 406 720 417 q 617 387 649 387 q 502 399 541 387 q 436 414 463 411 q 389 417 408 416 q 360 422 370 418 q 350 437 350 427 q 370 473 350 456 q 444 558 417 514 q 501 581 475 606 q 512 539 509 575 q 542 458 517 470 q 623 448 560 448 q 709 492 664 448 q 758 596 758 540 q 511 778 758 778 q 260 667 368 778 q 153 413 153 556 q 244 181 153 264 q 495 101 334 101 q 710 154 640 101 q 752 203 739 175 q 773 246 765 231 q 788 272 781 262 q 806 282 796 282 q 821 277 815 282 q 829 267 826 273 q 834 238 830 264 q 856 156 845 177 q 876 111 876 121 m 591 1104 q 622 1100 597 1104 q 739 1095 648 1095 q 776 1072 776 1095 q 754 1030 776 1055 q 697 966 702 975 q 655 949 678 934 q 645 961 649 953 q 633 980 641 969 q 614 1004 625 990 q 566 1084 566 1066 q 591 1104 566 1104 m 462 1072 q 439 1030 462 1053 q 382 966 388 976 q 327 962 354 921 l 273 1041 q 278 1104 231 1104 l 315 1100 q 414 1095 366 1095 q 462 1072 462 1095 "},"ƒ":{"x_min":-16.953125,"x_max":943.296875,"ha":907,"o":"m 549 663 l 436 662 q 405 171 411 229 q 389 73 398 113 q 365 -1 380 34 q 325 -63 349 -36 q 183 -122 273 -122 q 137 -118 155 -122 q 106 -115 120 -115 q 82 -119 93 -115 q 61 -131 71 -124 l 2 -179 q -16 -163 -16 -190 l -10 -94 q -5 37 -5 -33 q 1 62 -5 51 q 17 73 8 73 q 56 40 38 73 q 100 -26 84 -11 q 198 -57 135 -57 q 293 5 259 -57 q 339 233 330 77 l 358 553 q 364 662 361 612 q 291 661 322 661 l 235 661 q 182 647 203 661 q 123 598 155 628 q 96 585 108 585 q 74 608 74 585 l 82 686 q 84 748 84 724 l 84 782 q 103 816 84 816 q 138 787 120 816 q 207 724 158 751 q 235 716 220 716 q 264 716 250 716 q 290 716 277 716 q 368 717 318 715 q 389 877 378 829 q 421 971 401 926 q 476 1052 441 1017 q 760 1128 573 1152 q 833 1127 818 1121 q 858 1142 849 1134 l 901 1184 q 925 1195 914 1195 q 940 1150 950 1195 q 932 1066 932 1115 l 937 985 q 920 961 937 961 q 885 979 903 961 q 859 1008 868 996 q 840 1030 850 1019 q 795 1062 816 1056 q 744 1068 775 1068 l 665 1068 q 514 992 567 1068 q 439 718 452 905 q 623 727 553 721 q 706 781 660 731 q 762 829 748 829 q 779 793 790 829 q 759 640 759 730 l 763 596 q 756 578 763 585 q 740 571 749 571 q 725 577 731 571 q 711 592 718 583 l 689 621 q 631 662 651 658 q 593 664 611 666 q 549 663 576 663 "},"J":{"x_min":42.203125,"x_max":656.90625,"ha":699,"o":"m 636 1094 q 632 1045 679 1094 l 575 990 q 560 958 561 974 l 549 423 q 543 288 547 356 q 520 166 539 221 q 466 70 501 112 q 255 -63 400 -8 q 210 -101 236 -71 q 179 -140 185 -130 q 166 -160 172 -150 q 153 -179 160 -170 q 111 -171 119 -224 q 90 -85 101 -111 q 74 -48 79 -59 q 64 -26 69 -37 q 54 -5 59 -15 q 56 45 29 45 q 93 35 68 45 q 139 19 118 26 q 174 8 160 12 q 268 6 228 -6 q 333 36 307 20 q 474 252 453 111 q 487 514 482 309 q 494 770 493 718 l 497 918 l 498 933 q 490 976 498 967 q 471 997 482 986 q 448 1020 460 1008 q 411 1052 419 1047 q 401 1082 401 1059 q 420 1105 401 1105 l 505 1091 q 527 1090 516 1090 l 548 1090 l 636 1094 "},"Ã":{"x_min":55.609375,"x_max":1206.65625,"ha":1287,"o":"m 271 -51 q 244 -76 271 -76 q 209 -63 224 -76 q 168 -38 193 -49 q 118 -17 143 -27 q 55 21 55 7 q 77 49 55 35 q 115 68 99 64 q 147 79 132 73 q 207 142 179 92 q 377 499 256 235 l 247 499 q 210 496 223 499 q 180 480 197 494 q 147 452 162 467 q 119 425 132 437 q 94 413 106 413 q 75 461 64 413 q 84 546 84 498 l 81 602 q 107 653 81 653 q 137 632 120 653 q 225 558 194 558 l 403 554 q 621 1051 604 993 q 638 1144 638 1110 q 649 1158 638 1153 q 670 1163 659 1163 q 702 1136 694 1163 q 732 1047 711 1109 q 779 906 752 986 q 902 552 857 676 q 1051 559 1031 549 q 1085 581 1070 569 q 1125 621 1112 602 q 1146 643 1138 640 q 1162 646 1155 646 q 1184 600 1197 646 q 1169 517 1170 556 q 1168 452 1169 478 q 1163 410 1167 425 q 1142 394 1159 394 q 1128 399 1137 394 q 1117 413 1120 404 l 1098 453 q 1039 499 1079 492 l 921 499 q 1096 81 1056 118 q 1123 64 1108 69 q 1149 54 1138 59 q 1170 46 1159 50 q 1189 40 1181 43 q 1197 5 1219 27 q 1143 -18 1188 -2 q 1082 -42 1098 -35 l 1005 -78 q 963 -65 963 -94 q 968 -33 963 -44 q 979 -8 973 -23 q 991 23 985 6 q 1003 98 1009 78 q 857 499 978 159 l 446 499 q 237 60 335 260 q 241 26 231 46 q 271 -51 271 -30 m 471 554 q 838 551 653 551 l 745 815 q 673 1016 680 998 q 471 554 617 869 m 495 1189 q 477 1164 495 1164 q 453 1173 466 1164 q 436 1192 441 1183 q 425 1211 431 1202 q 409 1229 419 1221 q 365 1255 388 1248 q 327 1282 327 1265 q 336 1299 327 1291 q 356 1307 344 1307 l 377 1306 q 432 1317 422 1308 q 453 1339 443 1326 q 480 1366 464 1352 q 578 1400 521 1400 q 683 1346 640 1400 q 706 1316 694 1331 q 784 1267 745 1267 q 852 1290 826 1267 q 856 1391 875 1312 q 860 1424 852 1414 q 877 1434 868 1434 q 906 1412 894 1433 q 982 1347 937 1364 q 1013 1316 1013 1334 q 1002 1297 1013 1305 q 970 1288 992 1290 q 933 1284 947 1286 q 914 1274 919 1282 q 897 1255 908 1266 q 868 1233 886 1244 q 747 1208 808 1196 q 690 1238 713 1215 q 655 1276 667 1261 q 631 1305 643 1292 q 575 1339 600 1339 q 535 1333 550 1339 q 510 1318 521 1326 q 486 1285 490 1299 q 482 1260 482 1271 l 495 1189 "},"©":{"x_min":74.609375,"x_max":1080.40625,"ha":1155,"o":"m 74 561 q 152 835 74 713 q 461 1051 258 1001 q 718 1055 584 1081 q 931 952 842 1031 q 1080 551 1080 822 q 941 105 1080 255 q 598 -29 816 -29 q 240 101 382 -29 q 95 356 137 194 q 74 543 74 439 q 74 561 74 552 m 225 834 q 165 718 188 785 q 143 556 143 651 q 161 382 143 461 q 211 246 179 304 q 287 147 244 187 q 381 83 330 107 q 592 35 474 37 q 761 57 701 35 q 863 114 821 80 q 938 204 906 147 q 1009 550 1009 330 q 718 990 1009 926 q 601 1005 646 1005 q 507 997 556 1005 q 408 969 459 988 q 310 916 358 949 q 225 834 262 883 m 850 218 q 826 196 850 196 q 779 208 815 196 q 732 221 744 221 q 711 217 721 221 q 685 207 701 212 q 647 196 669 202 q 482 189 547 169 q 364 263 418 208 q 267 522 267 361 q 443 839 267 749 q 552 871 505 871 q 621 868 599 871 q 659 861 644 865 q 709 851 697 851 q 735 855 721 851 q 762 866 750 860 q 809 881 795 881 q 828 851 843 881 q 816 826 824 841 l 800 793 q 765 704 765 723 q 743 665 763 665 q 718 690 728 665 q 702 733 708 716 q 690 765 697 750 q 651 804 675 794 q 607 813 627 813 l 564 813 q 404 737 469 813 q 335 530 335 657 q 398 309 335 389 q 540 238 455 238 q 696 287 642 238 q 722 328 716 305 q 733 368 729 352 q 759 400 743 400 q 781 374 775 400 q 793 334 787 349 q 805 305 798 318 l 838 253 q 850 218 850 231 "},"˘":{"x_min":52.90625,"x_max":673.921875,"ha":732,"o":"m 523 1176 l 509 1252 q 517 1276 509 1268 q 536 1283 524 1283 q 557 1276 547 1283 q 579 1257 567 1268 q 642 1211 611 1225 q 666 1163 689 1188 q 633 1149 656 1153 q 600 1144 609 1146 q 571 1127 582 1140 q 498 1031 546 1067 q 393 994 449 994 q 301 1008 337 994 q 240 1043 266 1022 q 167 1142 187 1085 q 118 1172 158 1167 q 52 1205 52 1182 q 60 1222 52 1213 q 87 1234 67 1231 q 124 1247 107 1237 q 157 1266 141 1256 q 210 1294 198 1294 q 234 1268 234 1294 l 217 1219 q 221 1171 208 1192 q 248 1129 233 1150 q 280 1091 262 1108 q 369 1053 323 1053 q 438 1063 415 1053 q 475 1089 460 1073 q 500 1124 490 1104 q 521 1164 510 1144 q 523 1176 523 1170 "},"≥":{"x_min":161.75,"x_max":892.828125,"ha":1021,"o":"m 201 366 q 182 330 165 366 q 211 292 190 313 q 244 259 232 272 q 280 206 273 227 q 299 171 287 185 q 322 158 312 158 q 347 186 342 158 q 358 237 352 215 q 372 272 365 258 q 395 309 383 297 q 438 344 407 321 q 513 398 470 368 q 606 463 556 428 q 707 535 657 499 q 884 676 828 623 q 892 695 892 681 q 869 738 892 724 q 801 781 845 753 q 708 843 757 810 q 606 911 658 876 q 510 977 555 946 q 382 1070 411 1045 q 359 1121 365 1085 q 351 1169 353 1157 q 350 1195 349 1182 q 349 1219 350 1209 q 320 1243 346 1243 q 261 1193 303 1243 l 211 1132 q 161 1068 161 1077 q 170 1051 161 1059 q 203 1043 179 1043 q 334 1014 246 1043 q 521 891 372 995 q 797 692 718 753 q 407 399 601 534 q 366 371 378 379 q 296 360 347 360 l 201 366 m 868 -59 l 858 17 l 861 73 q 855 96 861 87 q 841 105 849 105 q 803 75 822 105 q 758 35 788 50 q 747 31 751 31 q 329 26 362 25 q 282 37 296 27 q 256 60 268 48 q 233 82 244 72 q 208 92 222 92 q 186 61 186 92 l 191 -11 l 183 -73 q 208 -99 183 -99 q 245 -79 223 -99 q 281 -49 268 -59 q 309 -35 295 -38 l 736 -31 q 803 -60 777 -31 q 823 -80 814 -71 q 846 -88 832 -88 q 868 -59 868 -88 "},"D":{"x_min":48.15625,"x_max":941.375,"ha":1020,"o":"m 105 3 q 113 25 105 15 q 130 48 121 35 q 149 73 139 60 q 167 97 159 86 q 186 135 186 125 q 167 470 177 265 q 139 993 150 836 q 120 1027 137 1009 l 64 1079 q 48 1110 48 1095 q 74 1131 48 1131 l 139 1123 q 207 1130 174 1123 q 272 1140 252 1140 q 293 1121 293 1140 q 264 1083 293 1106 q 204 999 204 1034 l 205 974 l 337 1009 q 776 971 596 1071 q 918 803 874 916 q 941 651 941 744 q 907 478 941 558 q 817 339 873 398 q 689 239 761 280 q 540 172 617 198 q 250 116 402 126 q 279 74 255 104 q 314 31 304 45 q 324 8 324 18 q 283 -14 324 -14 l 215 -13 q 171 -18 195 -13 q 105 3 105 -31 m 209 914 l 244 186 l 258 186 q 662 309 472 186 q 846 514 792 392 q 873 659 873 577 q 844 804 873 741 q 767 903 815 866 q 526 972 677 972 q 209 914 375 972 "},"ÿ":{"x_min":30.890625,"x_max":891.40625,"ha":899,"o":"m 329 -20 l 296 -21 q 276 12 259 -21 q 302 43 284 27 q 328 70 319 60 q 353 118 350 94 q 359 165 356 141 q 365 214 362 189 l 391 425 q 172 668 230 478 q 147 759 155 722 q 129 806 138 796 q 111 824 120 815 q 89 840 102 832 q 64 861 77 849 q 30 911 30 889 q 50 925 30 925 q 93 926 69 925 q 141 931 117 928 q 220 946 199 938 q 248 954 241 954 q 260 943 260 954 q 250 916 260 931 q 229 884 241 901 q 198 813 198 836 q 205 756 198 789 q 225 688 211 724 q 259 615 239 651 q 306 550 279 579 q 445 484 369 484 q 683 664 589 484 q 731 793 724 741 q 698 850 731 813 q 667 898 667 886 q 687 916 667 916 q 717 912 692 916 q 767 909 741 909 q 806 911 792 909 q 831 914 820 912 q 868 920 860 920 q 878 870 908 920 q 842 828 865 848 q 787 765 796 788 q 765 707 778 741 q 733 634 752 672 q 688 559 714 596 q 629 491 662 521 q 458 420 552 423 q 438 269 457 412 q 417 106 417 116 q 427 79 417 96 q 451 46 438 62 q 474 15 463 29 q 484 -11 484 0 q 460 -27 484 -27 l 329 -20 m 590 1185 q 621 1181 596 1185 q 738 1176 647 1176 q 775 1153 775 1176 q 753 1111 775 1136 q 696 1047 701 1056 q 654 1030 677 1015 q 644 1042 648 1034 q 632 1061 640 1050 q 613 1085 624 1071 q 565 1165 565 1147 q 590 1185 565 1185 m 461 1153 q 438 1111 461 1134 q 381 1047 387 1057 q 326 1043 353 1002 l 272 1122 q 277 1185 230 1185 l 314 1181 q 413 1176 365 1176 q 461 1153 461 1176 "},"ł":{"x_min":-20.109375,"x_max":687.90625,"ha":712,"o":"m 661 16 q 611 22 636 16 q 548 27 585 27 q 504 12 537 26 q 392 -12 442 -13 q 305 11 341 -10 q 246 75 268 33 q 202 330 202 156 q 205 531 202 401 l 168 512 q 105 414 123 486 q 75 385 93 385 q 52 411 60 385 q -11 547 32 477 q -2 579 -32 579 q 48 567 0 579 q 115 555 107 551 q 206 599 151 573 l 212 877 q 208 1080 212 1043 q 199 1130 204 1117 q 187 1152 194 1143 q 157 1177 182 1159 q 132 1209 132 1195 q 174 1233 132 1233 l 225 1230 l 339 1235 q 373 1211 373 1235 q 359 1187 373 1197 q 330 1163 346 1176 q 279 1085 284 1128 q 269 628 273 1033 q 409 696 355 668 q 439 731 429 709 q 457 773 449 752 q 472 809 464 794 q 491 824 480 824 q 510 816 503 824 q 525 794 518 809 l 563 722 l 600 674 q 603 659 603 668 q 573 633 603 633 l 505 641 q 472 644 482 644 q 443 637 462 644 q 396 619 423 630 q 269 562 347 599 q 268 440 268 499 l 268 330 q 375 50 268 65 q 434 50 413 44 q 470 63 455 56 q 520 89 481 68 q 541 116 533 96 q 558 165 550 136 q 577 202 567 195 q 597 209 586 209 q 613 200 607 209 q 626 172 619 190 q 663 90 647 113 q 661 16 712 22 "},"Ł":{"x_min":-28.234375,"x_max":800.3125,"ha":813,"o":"m 147 -47 q 92 -22 92 -47 q 102 0 92 -10 q 121 22 111 10 q 143 44 130 33 q 166 65 155 54 q 190 97 190 88 q 199 384 190 201 l 160 362 q 118 318 131 346 q 97 258 105 290 q 67 229 85 229 q 44 255 52 229 q -19 391 24 321 q -10 423 -40 423 q 40 411 -8 423 q 107 399 103 394 q 203 451 139 419 q 219 889 219 765 q 175 954 219 911 q 138 1011 138 992 q 179 1030 138 1039 l 223 1020 q 296 1020 257 1014 q 350 1025 335 1025 q 383 1005 383 1025 q 362 975 383 993 q 286 889 306 938 q 278 731 282 878 q 272 522 274 584 l 271 484 q 450 593 381 543 q 479 628 470 606 q 494 670 488 649 q 507 706 500 691 q 525 721 514 721 q 544 713 537 721 q 559 691 552 706 l 597 619 l 634 571 q 637 556 637 564 q 607 530 637 530 l 539 538 q 506 541 516 541 q 473 530 496 541 q 418 503 451 520 q 269 423 355 471 l 258 118 q 614 86 380 94 q 661 85 645 85 q 748 132 697 85 q 773 144 761 144 q 800 113 800 144 l 778 21 q 774 -21 774 1 l 775 -46 q 752 -80 775 -80 q 727 -66 738 -80 q 704 -35 715 -52 q 647 12 673 10 q 589 18 620 14 q 523 25 558 21 q 452 32 489 28 q 381 39 416 35 q 262 49 301 47 q 283 -15 269 4 q 305 -59 305 -49 q 255 -79 305 -85 q 210 -67 238 -77 q 147 -47 160 -47 "},"$":{"x_min":115.296875,"x_max":747.40625,"ha":806,"o":"m 135 50 q 115 83 115 50 q 128 295 128 171 q 151 318 128 332 q 182 289 171 307 q 202 256 193 271 q 219 226 210 240 q 266 185 244 190 q 405 170 341 170 q 421 639 416 425 q 287 734 325 693 q 229 816 248 775 q 210 906 210 857 q 227 990 210 955 q 272 1050 243 1024 q 427 1115 332 1102 q 424 1233 427 1200 q 409 1281 421 1266 q 385 1309 398 1296 l 362 1333 q 362 1374 339 1355 q 413 1380 380 1387 q 477 1373 446 1373 l 541 1380 q 564 1372 556 1380 q 558 1328 581 1355 q 528 1300 545 1321 q 494 1243 494 1260 q 491 1119 494 1226 q 590 1108 546 1118 q 649 1126 602 1108 q 712 1150 697 1143 q 747 1146 747 1167 q 739 1112 747 1136 l 720 1045 q 710 1005 712 1026 q 705 968 708 985 q 697 940 702 951 q 683 929 693 929 q 667 934 674 929 q 653 945 659 938 q 626 982 636 961 q 610 1016 616 1004 q 581 1050 594 1047 q 490 1061 538 1061 l 480 675 q 563 628 520 653 q 641 569 606 603 q 720 369 720 491 q 649 192 720 261 q 464 111 583 128 q 461 -13 461 8 q 468 -46 461 -35 q 483 -68 474 -57 q 499 -86 493 -78 q 512 -102 506 -94 q 517 -151 538 -136 q 487 -159 502 -163 q 462 -153 472 -155 q 362 -154 404 -139 q 309 -139 309 -172 q 330 -93 309 -117 q 362 -55 351 -69 q 393 -4 389 -21 q 402 106 398 18 q 263 119 326 106 q 181 85 227 122 q 153 61 166 71 q 135 50 141 50 m 422 710 q 427 1055 427 933 q 286 965 320 1034 q 318 798 246 885 q 422 710 355 754 m 465 174 q 649 396 649 202 q 542 564 649 492 q 478 606 512 585 l 465 174 "},"w":{"x_min":-3.390625,"x_max":1094.65625,"ha":1158,"o":"m 1044 1032 q 1094 1019 1094 1046 q 1044 914 1094 1003 q 1026 871 1026 883 q 1028 838 1026 859 q 1031 786 1029 817 q 1035 716 1032 755 q 1039 634 1037 676 q 1040 388 1046 455 q 1024 271 1034 322 q 997 171 1013 219 q 957 85 980 122 q 831 3 906 3 q 695 100 744 3 q 649 221 662 168 q 629 303 636 273 q 615 359 621 334 l 602 421 l 590 349 q 510 84 552 162 q 453 1 476 21 q 383 -31 416 -31 q 288 29 318 -31 q 202 351 248 107 q 126 736 128 702 q 40 805 121 768 q 2 827 8 819 q -3 842 -3 834 q 46 870 -3 864 q 140 892 109 878 q 185 912 171 906 q 257 911 257 946 q 244 872 257 896 q 220 829 230 848 q 204 794 210 809 q 193 739 193 767 q 201 666 193 712 q 221 569 208 620 q 274 352 223 558 l 300 217 q 385 33 339 33 q 463 132 416 33 q 513 267 503 218 q 530 350 522 316 q 544 421 537 383 q 553 690 574 585 q 495 765 546 725 q 475 778 484 773 q 456 792 465 782 q 446 812 446 803 q 485 831 446 831 q 557 834 524 831 q 614 840 589 836 q 693 849 679 849 q 686 794 724 849 q 651 750 668 769 q 630 726 634 731 q 625 716 626 722 q 623 699 623 710 l 623 668 q 637 556 623 599 q 676 345 663 399 q 751 133 706 217 q 808 80 770 96 q 904 130 866 56 q 953 250 942 208 q 972 753 1005 446 q 956 859 962 846 q 941 879 951 872 q 918 894 931 887 q 891 907 905 901 q 866 921 878 914 q 849 969 824 948 q 880 980 857 975 q 923 989 902 984 q 960 999 943 994 l 1044 1032 "},"∫":{"x_min":20.046875,"x_max":662.765625,"ha":681,"o":"m 31 -243 q 22 -200 14 -243 l 22 -56 q 21 -46 21 -53 q 56 -32 21 -14 q 80 -51 67 -39 q 107 -74 93 -63 q 137 -96 121 -86 q 251 -111 198 -134 q 310 63 310 -86 l 308 922 q 329 1078 308 1032 q 384 1149 351 1125 q 457 1173 417 1173 q 518 1175 497 1173 q 557 1182 539 1177 q 618 1218 594 1195 q 652 1241 642 1241 q 661 1197 666 1241 l 661 1053 q 647 1023 667 1023 q 603 1047 628 1023 q 563 1084 577 1072 q 536 1104 549 1096 q 481 1115 514 1115 q 431 1107 449 1115 q 399 1074 413 1098 q 373 899 373 1026 l 375 81 q 361 -65 375 -24 q 330 -128 347 -106 q 214 -176 290 -176 l 160 -175 q 115 -183 129 -175 q 71 -215 94 -194 q 31 -243 40 -243 "},"\\":{"x_min":27.390625,"x_max":859.515625,"ha":888,"o":"m 681 -206 q 701 -252 668 -252 q 726 -242 714 -252 q 752 -225 738 -233 q 781 -209 766 -217 q 841 -185 803 -199 q 859 -166 859 -178 q 854 -145 859 -153 q 836 -133 850 -137 q 806 -126 822 -130 q 748 -91 763 -114 q 587 243 724 -53 q 413 618 449 541 q 344 767 378 695 q 283 896 311 838 q 215 1039 231 1008 q 194 1094 194 1079 q 196 1119 194 1110 q 201 1135 198 1127 q 204 1181 213 1170 q 183 1192 195 1192 q 142 1174 168 1192 q 85 1134 109 1144 q 44 1116 60 1125 q 27 1096 27 1108 q 72 1067 27 1070 q 130 1045 105 1065 q 141 1032 137 1040 q 164 986 145 1024 q 209 893 182 948 q 269 768 236 838 q 339 622 302 699 q 413 465 375 545 q 488 308 451 385 q 558 161 525 231 q 618 35 591 91 q 690 -117 684 -105 q 696 -142 696 -129 q 693 -166 696 -155 l 681 -206 "},"Ì":{"x_min":38.609375,"x_max":364.890625,"ha":472,"o":"m 204 0 l 155 -6 q 118 22 118 -6 q 127 44 119 33 q 145 65 136 54 q 165 89 153 76 q 185 112 176 101 q 205 150 205 139 l 208 622 q 204 912 208 784 q 158 976 204 933 q 119 1033 119 1013 q 177 1047 119 1062 q 272 1044 226 1035 q 342 1052 319 1052 q 364 1033 364 1052 q 341 1001 364 1019 q 303 968 318 983 q 281 941 288 953 q 270 898 270 923 l 273 567 l 266 180 l 266 160 q 267 134 266 150 q 285 96 268 118 q 316 56 303 74 q 337 16 337 28 q 300 -5 337 -5 l 204 0 m 69 1192 q 38 1213 38 1192 q 57 1244 38 1226 q 84 1284 75 1263 q 100 1324 93 1306 q 115 1356 107 1343 q 138 1369 123 1369 q 162 1354 154 1369 q 173 1320 169 1339 q 182 1282 178 1300 q 193 1258 186 1264 q 217 1240 201 1253 q 252 1213 233 1228 q 320 1165 302 1175 q 351 1129 351 1147 q 320 1095 351 1095 q 273 1119 297 1095 q 212 1162 261 1131 q 155 1197 163 1193 q 136 1201 147 1201 l 69 1192 "},"Ç":{"x_min":52.21875,"x_max":912.203125,"ha":1021,"o":"m 246 -257 q 213 -235 213 -257 q 229 -212 213 -225 q 299 -126 278 -174 q 323 -103 309 -103 q 343 -110 336 -103 q 350 -128 350 -118 l 349 -159 q 472 -236 349 -236 q 560 -182 545 -236 q 557 -127 569 -146 q 531 -99 545 -109 q 501 -80 517 -88 q 472 -63 485 -72 q 439 -16 439 -43 l 439 -9 q 457 35 439 -7 q 206 147 324 50 q 73 354 113 224 q 52 507 52 421 q 71 661 52 594 q 126 780 91 728 q 207 870 160 832 q 306 934 253 908 q 417 976 360 960 q 531 1002 474 993 q 688 1019 627 1018 q 764 1024 749 1020 q 792 1036 778 1028 q 830 1067 820 1051 q 873 1095 848 1095 q 897 1072 897 1095 l 887 1030 q 873 906 873 963 l 875 878 q 856 853 875 853 q 820 881 839 853 q 782 923 802 908 q 740 945 762 938 q 642 955 710 955 q 510 943 575 955 q 388 907 446 931 q 281 847 330 883 q 196 763 232 811 q 120 522 120 660 q 271 179 120 290 q 566 88 393 88 q 785 147 725 88 q 813 186 800 161 q 845 229 826 211 q 879 248 865 248 q 903 208 903 248 l 897 141 q 905 65 897 103 q 912 19 912 27 q 891 -10 912 -10 q 848 9 872 -10 q 813 35 824 29 q 769 49 792 48 q 728 47 746 50 q 687 40 711 44 q 584 29 619 29 l 540 29 q 521 30 531 29 q 522 -23 503 -4 q 554 -41 531 -32 q 592 -63 577 -50 q 618 -91 607 -75 q 644 -182 654 -140 q 617 -245 634 -224 q 579 -278 601 -267 q 488 -297 541 -297 q 411 -290 436 -297 q 364 -274 385 -282 q 324 -258 343 -265 q 288 -250 305 -250 l 246 -257 "},"C":{"x_min":88.171875,"x_max":947.796875,"ha":1038,"o":"m 927 -36 q 884 -16 908 -36 q 850 9 860 3 q 805 23 828 21 q 764 21 781 24 q 722 13 747 17 q 568 3 628 0 q 408 27 459 10 q 315 69 358 44 q 230 130 271 94 q 158 218 189 167 q 88 481 88 330 q 343 907 88 782 q 772 993 509 989 q 851 1025 813 993 q 869 1045 862 1034 q 909 1068 884 1068 q 933 1045 933 1068 q 923 1003 933 1045 q 909 880 909 936 l 911 851 q 892 827 911 827 q 856 854 875 827 q 818 897 838 882 q 775 919 798 912 q 678 929 746 929 q 546 916 611 929 q 424 880 482 904 q 317 820 366 856 q 232 736 268 784 q 155 496 155 634 q 306 153 155 264 q 602 62 429 62 q 822 120 761 62 q 849 160 836 134 q 881 203 862 185 q 915 221 901 221 q 939 182 939 221 l 933 115 q 944 20 933 76 q 927 -36 955 -36 "},"Ē":{"x_min":71.890625,"x_max":766.46875,"ha":874,"o":"m 570 470 q 334 470 457 470 q 139 461 210 470 l 139 445 q 223 161 143 270 q 501 0 313 40 q 614 -18 592 -18 q 654 -8 636 -18 q 687 12 672 0 q 715 33 702 23 q 738 42 727 42 q 758 20 758 42 q 746 -31 758 -2 q 718 -158 721 -94 q 697 -187 717 -187 q 630 -122 671 -187 q 557 -75 605 -84 q 88 290 166 -20 q 71 452 71 356 q 101 629 71 547 q 178 774 130 712 q 284 879 225 836 q 403 949 343 922 q 607 1006 510 999 q 678 1059 642 1007 q 736 1108 714 1108 q 758 1063 770 1108 q 765 928 748 1025 q 761 893 769 903 q 746 883 754 883 q 712 907 729 883 q 630 945 686 945 q 519 931 565 945 q 428 894 474 917 q 338 836 383 870 q 254 756 293 801 q 146 535 167 655 q 187 533 165 533 l 234 533 q 575 541 355 533 q 612 561 588 542 q 700 615 683 615 q 725 584 725 615 l 705 495 q 701 451 701 474 l 703 425 q 680 391 703 391 q 656 403 667 391 q 632 430 644 415 q 570 470 600 467 m 555 1257 l 445 1255 l 415 1242 q 376 1219 399 1234 q 317 1219 328 1188 q 316 1254 309 1239 q 323 1283 323 1269 q 321 1308 323 1297 q 315 1329 318 1318 q 312 1380 302 1371 q 333 1390 322 1390 q 354 1382 343 1390 q 377 1364 365 1374 q 429 1327 412 1333 q 529 1328 496 1328 q 596 1328 570 1328 q 628 1330 622 1328 q 660 1355 633 1332 q 719 1389 694 1389 q 743 1356 743 1389 q 736 1323 743 1344 q 723 1258 723 1283 l 725 1223 q 702 1190 725 1190 q 663 1219 683 1190 q 627 1253 640 1250 q 555 1257 606 1257 "},"!":{"x_min":130.890625,"x_max":459.15625,"ha":546,"o":"m 309 243 l 260 247 q 194 255 207 247 q 189 296 168 270 q 220 335 210 322 q 234 356 229 347 q 245 382 242 368 l 295 1038 q 283 1081 295 1064 q 259 1115 271 1099 q 226 1186 226 1156 q 263 1209 226 1216 l 304 1197 q 394 1187 338 1187 l 413 1187 q 447 1181 436 1187 q 459 1161 459 1174 q 436 1119 459 1138 q 398 1083 414 1100 q 372 1051 382 1066 q 352 1007 352 1021 q 311 398 311 425 q 311 358 311 370 q 313 335 311 345 q 325 299 316 312 q 309 243 362 243 m 155 -157 q 130 -139 130 -157 q 160 -90 130 -124 q 201 -42 189 -56 q 221 -18 213 -28 q 244 0 237 0 q 265 -19 255 0 q 287 -53 274 -38 q 311 -84 299 -69 q 305 -158 372 -158 l 212 -153 l 155 -157 "},"ç":{"x_min":204.828125,"x_max":979.0625,"ha":1042,"o":"m 290 -257 q 257 -235 257 -257 q 273 -212 257 -225 q 343 -126 322 -174 q 367 -103 354 -103 q 387 -110 380 -103 q 394 -128 394 -118 l 393 -159 q 516 -236 393 -236 q 603 -182 589 -236 q 601 -127 613 -146 q 575 -99 589 -109 q 545 -80 561 -88 q 515 -63 529 -72 q 485 -2 473 -36 l 501 35 q 305 136 383 54 q 204 434 204 240 q 278 659 204 564 q 444 779 339 736 q 619 815 532 815 l 726 806 q 817 844 779 806 q 855 862 835 862 q 873 833 883 862 q 844 685 844 746 l 847 661 q 842 642 847 651 q 830 634 836 634 q 800 655 815 634 q 776 692 786 676 q 756 720 767 708 q 709 750 735 746 q 613 758 649 758 q 537 748 577 758 q 458 720 497 738 q 386 674 420 701 q 328 613 353 647 q 272 442 272 537 q 301 277 272 346 q 375 166 329 208 q 601 89 461 89 q 710 100 660 89 q 788 119 760 111 q 833 135 815 127 q 862 153 851 144 q 880 173 872 163 l 904 220 q 935 246 918 246 q 952 207 952 246 q 973 59 952 126 q 957 7 990 7 q 924 17 944 7 q 895 35 904 27 q 878 49 886 43 q 786 56 851 71 q 564 29 658 29 q 562 -19 550 -6 q 598 -41 575 -32 q 636 -63 621 -50 q 663 -91 651 -75 q 688 -182 698 -140 q 661 -245 678 -224 q 622 -278 645 -267 q 532 -297 585 -297 q 455 -290 480 -297 q 408 -274 430 -282 q 368 -258 387 -265 q 333 -250 349 -250 l 290 -257 "},"Ĵ":{"x_min":13.203125,"x_max":798.9375,"ha":669,"o":"m 607 1094 q 603 1045 650 1094 l 546 990 q 531 958 532 974 l 520 423 q 514 288 518 356 q 491 166 510 221 q 437 70 472 112 q 226 -63 371 -8 q 181 -101 207 -71 q 150 -140 156 -130 q 137 -160 143 -150 q 124 -179 131 -170 q 82 -171 90 -224 q 61 -85 72 -111 q 45 -48 50 -59 q 35 -26 40 -37 q 25 -5 30 -15 q 27 45 0 45 q 64 35 39 45 q 110 19 89 26 q 145 8 131 12 q 239 6 199 -6 q 304 36 278 20 q 445 252 424 111 q 458 514 453 309 q 465 770 464 718 l 468 918 l 469 933 q 461 976 469 967 q 442 997 453 986 q 419 1020 431 1008 q 382 1052 390 1047 q 372 1082 372 1059 q 391 1105 372 1105 l 476 1091 q 498 1090 487 1090 l 519 1090 l 607 1094 m 344 1200 l 346 1184 q 326 1145 346 1155 q 254 1211 303 1131 q 228 1233 248 1221 q 201 1252 208 1244 q 194 1271 194 1259 q 234 1295 194 1295 l 289 1291 q 380 1335 326 1291 q 474 1405 410 1360 q 514 1406 492 1426 q 555 1373 537 1387 q 591 1348 573 1360 q 678 1303 613 1335 q 730 1293 700 1294 q 771 1289 760 1292 q 798 1266 798 1282 q 784 1238 798 1249 q 742 1202 751 1214 l 712 1158 q 686 1135 696 1135 q 658 1168 661 1135 q 646 1227 653 1217 q 634 1245 639 1238 q 564 1286 600 1266 q 493 1329 529 1306 l 421 1286 q 366 1249 413 1280 q 344 1200 344 1230 "},"\u0015":{"x_min":0,"x_max":0,"ha":0},"È":{"x_min":71.890625,"x_max":766.46875,"ha":874,"o":"m 570 470 q 334 470 457 470 q 139 461 210 470 l 139 445 q 223 161 143 270 q 501 0 313 40 q 614 -18 592 -18 q 654 -8 636 -18 q 687 12 672 0 q 715 33 702 23 q 738 42 727 42 q 758 20 758 42 q 746 -31 758 -2 q 718 -158 721 -94 q 697 -187 717 -187 q 630 -122 671 -187 q 557 -75 605 -84 q 88 290 166 -20 q 71 452 71 356 q 101 629 71 547 q 178 774 130 712 q 284 879 225 836 q 403 949 343 922 q 607 1006 510 999 q 678 1059 642 1007 q 736 1108 714 1108 q 758 1063 770 1108 q 765 928 748 1025 q 761 893 769 903 q 746 883 754 883 q 712 907 729 883 q 630 945 686 945 q 519 931 565 945 q 428 894 474 917 q 338 836 383 870 q 254 756 293 801 q 146 535 167 655 q 187 533 165 533 l 234 533 q 575 541 355 533 q 612 561 588 542 q 700 615 683 615 q 725 584 725 615 l 705 495 q 701 451 701 474 l 703 425 q 680 391 703 391 q 656 403 667 391 q 632 430 644 415 q 570 470 600 467 m 313 1201 q 282 1222 282 1201 q 301 1253 282 1235 q 328 1293 319 1272 q 344 1333 337 1315 q 359 1365 351 1352 q 382 1378 367 1378 q 406 1363 398 1378 q 417 1329 413 1348 q 426 1291 422 1309 q 437 1267 430 1273 q 461 1249 445 1262 q 496 1222 477 1237 q 564 1174 546 1184 q 595 1138 595 1156 q 564 1104 595 1104 q 517 1128 541 1104 q 456 1171 505 1140 q 399 1206 407 1202 q 380 1210 391 1210 l 313 1201 "},"ﬁ":{"x_min":50.1875,"x_max":1161.578125,"ha":1291,"o":"m 325 -48 q 292 -54 307 -50 q 262 -63 277 -58 q 227 -68 247 -68 q 207 -50 207 -68 q 236 0 207 -31 q 273 44 264 32 q 291 87 291 69 l 291 112 l 288 419 q 287 661 287 549 l 210 661 q 124 621 168 661 q 98 597 111 610 q 71 585 84 585 q 50 608 50 585 l 57 686 q 59 748 59 724 l 59 782 q 78 816 59 816 q 113 787 96 816 q 183 724 134 751 q 205 716 196 716 l 287 716 l 287 766 q 371 1062 287 978 q 617 1121 451 1142 q 690 1120 674 1115 q 717 1133 707 1126 l 775 1182 q 797 1163 797 1195 q 796 1143 797 1149 l 796 999 q 781 969 802 969 q 716 1014 759 969 q 628 1066 672 1061 q 526 1068 617 1068 q 358 763 358 1068 l 358 716 q 617 725 573 721 q 678 741 661 729 q 704 763 695 754 q 721 779 713 771 q 737 796 729 788 q 771 815 761 815 q 787 774 800 815 q 774 663 774 735 l 779 596 q 772 578 779 585 q 756 571 765 571 q 741 577 748 571 q 727 592 734 583 l 705 621 q 638 662 662 662 l 358 662 l 356 137 l 356 90 q 397 21 356 37 q 439 -4 428 8 q 451 -24 451 -17 q 419 -40 451 -37 q 365 -44 387 -42 q 325 -48 343 -46 m 936 -31 q 902 -5 902 -31 q 921 30 902 5 q 957 80 940 56 q 978 118 975 104 l 992 678 q 979 714 992 699 q 950 744 965 730 q 921 772 934 758 q 908 801 908 786 q 956 819 908 831 q 1035 811 993 811 l 1112 814 q 1146 788 1146 814 q 1126 758 1146 774 q 1092 731 1105 742 q 1071 710 1079 719 q 1058 684 1058 696 l 1044 162 l 1045 116 q 1065 58 1045 87 q 1094 16 1085 29 q 1103 -5 1103 4 q 1064 -29 1103 -29 l 1034 -27 l 936 -31 m 1121 1149 q 1151 1109 1181 1149 l 1076 1019 q 1028 1017 1050 971 l 978 1082 q 946 1138 946 1125 q 971 1158 946 1158 q 1102 1148 1049 1148 l 1121 1149 "},"X":{"x_min":8.8125,"x_max":1080.40625,"ha":1049,"o":"m 916 -25 q 887 6 887 -25 q 893 43 887 26 q 890 107 907 82 l 876 123 l 705 322 q 535 522 575 474 l 220 139 q 208 84 209 114 q 206 26 206 53 q 200 -17 205 0 q 179 -35 196 -35 q 154 -25 163 -35 q 132 1 145 -15 q 51 80 93 53 q 8 122 8 107 q 18 142 8 132 q 46 151 28 151 l 77 149 q 151 169 131 149 q 207 229 171 189 q 290 324 244 270 q 498 571 383 432 q 191 924 206 915 q 153 933 176 932 q 109 935 130 934 q 72 940 88 935 q 57 956 57 944 q 92 994 57 978 q 145 1030 127 1010 q 176 1068 164 1050 q 199 1100 189 1087 q 223 1113 209 1113 q 242 1099 238 1113 q 247 1058 247 1085 l 245 1016 q 257 961 245 986 q 281 923 269 935 q 318 879 292 911 q 378 805 345 847 q 535 613 477 681 q 797 948 693 803 q 808 974 804 956 q 811 996 811 992 l 798 1089 q 818 1109 798 1109 q 855 1091 832 1109 q 906 1062 878 1073 q 960 1039 933 1050 q 1023 990 1023 1011 q 986 964 1023 969 q 914 944 956 964 q 824 887 838 907 q 715 739 804 855 q 579 564 626 623 q 847 258 765 343 q 944 159 928 173 q 984 140 961 145 q 1028 132 1007 135 q 1065 123 1049 128 q 1080 107 1080 118 q 1061 72 1080 89 q 1023 40 1043 56 q 982 9 1003 24 q 916 -25 932 -25 "},"ô":{"x_min":99.234375,"x_max":763.890625,"ha":863,"o":"m 528 92 q 459 78 489 81 q 414 75 428 75 q 370 79 400 75 q 305 95 340 83 q 233 129 270 107 q 167 189 196 152 q 99 408 99 273 q 184 636 99 537 q 356 744 262 729 q 497 750 416 763 q 640 690 574 738 q 747 526 715 636 q 763 393 763 468 q 741 266 763 318 q 684 179 719 214 q 608 123 649 144 q 528 92 567 103 m 323 158 q 375 142 350 147 q 414 138 401 138 q 452 141 428 138 q 508 152 477 143 q 572 178 539 161 q 634 223 606 194 q 698 394 698 288 q 542 671 698 610 q 300 651 424 717 q 270 636 283 642 q 192 532 222 603 q 167 411 167 471 q 181 309 167 351 q 217 238 195 267 q 267 188 239 208 q 323 158 295 169 m 284 907 l 286 891 q 266 852 286 862 q 194 918 243 838 q 168 940 188 928 q 141 959 148 951 q 134 978 134 966 q 174 1002 134 1002 l 229 997 q 320 1041 266 997 q 384 1092 351 1067 q 425 1119 418 1117 q 439 1121 431 1121 q 469 1109 458 1121 q 569 1012 511 1054 q 606 985 587 998 q 659 963 629 970 q 699 953 689 957 q 725 928 725 944 q 701 897 725 910 q 658 870 667 879 q 641 852 650 862 q 623 833 631 841 q 594 813 603 813 q 577 822 585 813 q 570 846 570 831 l 571 873 q 559 931 571 905 q 433 1036 438 1031 q 362 996 399 1025 q 306 955 325 968 q 284 907 284 937 "},"đ":{"x_min":74.609375,"x_max":769.109375,"ha":756,"o":"m 528 -23 q 500 3 500 -23 q 515 48 500 13 q 539 118 539 105 q 534 150 539 131 q 523 195 528 169 q 390 78 482 103 q 240 86 323 60 q 89 223 127 122 q 74 323 74 263 q 97 430 74 383 q 157 508 120 478 q 330 570 229 570 q 458 522 398 570 q 495 484 478 506 q 487 710 487 632 l 487 807 q 488 843 487 825 l 431 843 q 363 815 391 843 q 344 795 353 804 q 320 786 335 786 q 299 815 299 786 l 309 893 l 305 949 q 311 972 305 963 q 326 981 318 981 q 363 951 344 981 q 409 910 379 926 q 437 906 416 906 q 490 905 459 906 q 496 1011 492 958 q 432 1113 496 1041 q 417 1144 417 1130 q 440 1165 417 1165 q 490 1159 463 1165 q 543 1153 516 1153 l 608 1160 q 639 1152 626 1160 q 653 1130 653 1144 q 631 1094 653 1117 q 568 1023 576 1036 q 551 902 555 1003 q 670 915 645 896 q 696 937 685 925 q 719 959 708 949 q 744 968 730 968 q 765 937 765 968 l 760 864 l 769 801 q 744 775 769 775 q 720 785 734 775 q 642 839 670 834 l 549 842 q 548 807 548 824 l 548 769 q 600 146 548 316 q 637 113 606 124 q 686 92 679 96 q 692 40 731 59 q 630 19 682 36 q 567 -6 578 2 q 528 -23 545 -23 m 141 317 q 151 251 141 280 q 178 202 162 223 q 215 168 194 181 q 258 146 236 154 q 439 176 371 103 q 487 318 487 227 q 435 462 487 408 q 325 510 388 510 q 192 451 244 510 q 141 317 141 396 "},"\u0002":{"x_min":0,"x_max":0,"ha":0},"Ŀ":{"x_min":56.5625,"x_max":833.875,"ha":896,"o":"m 111 -47 q 56 -22 56 -47 q 66 0 56 -10 q 85 22 75 10 q 106 44 94 33 q 129 65 118 54 q 154 97 154 88 q 164 414 154 238 q 182 889 182 748 q 139 954 182 911 q 102 1011 102 992 q 142 1030 102 1039 l 186 1020 q 259 1020 220 1014 q 314 1025 298 1025 q 347 1005 347 1025 q 325 975 347 993 q 249 889 270 938 q 242 731 245 878 q 234 477 238 584 l 222 118 q 627 58 349 83 q 712 105 661 58 q 737 117 725 117 q 763 86 763 117 l 742 -5 q 738 -48 738 -25 l 739 -73 q 716 -107 739 -107 q 692 -95 703 -107 q 669 -66 681 -82 q 609 -15 635 -22 q 552 -1 583 -8 q 486 10 521 4 q 415 22 451 16 q 344 33 379 28 l 226 49 q 247 -15 233 4 q 268 -59 268 -49 q 218 -79 268 -85 q 174 -67 202 -77 q 111 -47 123 -47 m 793 584 q 833 559 833 584 q 807 513 833 541 q 765 467 781 484 q 743 438 749 451 q 687 433 711 382 q 648 492 671 464 q 596 567 596 554 q 635 594 596 601 q 751 583 686 583 l 793 584 "},"Δ":{"x_min":23.734375,"x_max":1237.078125,"ha":1251,"o":"m 1039 32 l 227 32 q 215 36 216 32 q 212 40 214 40 q 177 -46 189 18 q 166 -85 172 -69 q 147 -101 160 -101 q 114 -67 127 -101 q 72 13 92 -10 q 44 48 52 37 q 23 96 23 80 q 59 113 23 124 q 145 94 121 96 l 188 180 q 617 1096 595 994 q 532 1181 580 1136 q 533 1214 516 1197 q 556 1222 541 1222 l 579 1221 l 763 1235 q 792 1197 822 1235 q 745 1141 773 1171 q 701 1093 716 1111 q 1084 120 916 501 q 1129 93 1109 96 l 1193 86 q 1212 84 1204 84 q 1228 78 1220 84 q 1237 64 1237 72 q 1233 50 1237 56 q 1223 38 1228 44 l 1201 21 q 1134 -47 1167 -6 q 1088 -101 1101 -88 q 1063 -114 1075 -114 q 1047 -73 1039 -114 q 1039 32 1070 28 m 232 96 q 1014 95 857 88 l 1015 95 l 836 562 l 735 822 q 658 1015 673 980 q 232 96 563 769 "}}}
